<svg width="1797" height="969" viewBox="0 0 1797 969" fill="none" xmlns="http://www.w3.org/2000/svg">
<path d="M327.371 166.798C327.371 166.798 321.218 170.371 315.066 168.585C308.913 166.798 311.753 160.418 303.234 157.61C294.714 154.803 289.981 158.121 285.249 154.803C280.515 151.486 277.674 152.251 271.522 150.974C265.369 149.699 268.209 140.767 261.11 140.001C254.01 139.236 228.452 141.276 223.246 145.104C218.039 148.933 214.727 151.486 208.101 149.443C201.475 147.402 198.161 150.296 196.269 154.462C194.375 158.631 195.321 163.736 201.002 165.011C206.68 166.288 205.734 170.116 203.367 170.627C201.002 171.137 187.275 172.412 189.641 169.094C192.008 165.776 188.223 165.523 180.649 166.544C173.076 167.563 164.084 175.732 170.236 178.029C176.39 180.325 186.329 177.261 189.641 180.835C192.956 184.408 185.856 187.47 179.23 186.193C172.603 184.918 161.717 186.449 156.037 189.511C150.358 192.575 143.732 203.038 148.938 205.081C154.145 207.122 161.244 206.356 158.877 209.93C156.511 213.504 168.817 213.757 167.398 217.587C165.977 221.415 144.205 227.794 133.319 230.603C122.433 233.409 102.556 234.43 102.082 237.238C101.609 240.044 142.313 234.174 158.404 229.581C174.497 224.988 188.223 220.905 189.169 217.331C190.115 213.757 211.883 204.825 214.725 205.335C217.566 205.847 214.253 212.226 218.987 212.226C223.719 212.226 251.645 216.821 257.323 222.18C263.004 227.541 254.957 245.915 262.056 247.957C269.155 249.998 266.788 261.483 273.415 264.035C280.041 266.587 292.348 278.072 287.614 279.605C282.882 281.136 265.844 298.491 266.317 308.698C266.788 318.908 284.183 330.71 287.733 336.644C291.283 342.578 297.672 347.939 297.672 350.617C297.672 353.297 293.057 356.169 297.672 357.125C302.286 358.082 305.482 363.443 311.16 366.313C316.841 369.185 320.745 365.739 318.26 364.59C315.775 363.443 310.451 358.274 309.031 354.828C307.611 351.385 299.803 346.406 303.352 343.919C306.901 341.431 310.807 350.809 314.711 353.489C318.615 356.169 334.234 366.697 335.654 371.1C337.074 375.501 336.719 379.712 348.433 384.115C360.148 388.517 371.86 390.431 378.25 390.05C384.641 389.666 396.709 389.666 399.193 394.451C401.68 399.236 421.202 395.408 425.461 401.15C429.72 406.893 435.754 406.511 442.856 408.616C449.954 410.722 450.666 413.784 457.056 413.211C463.443 412.635 468.413 408.999 472.32 416.654C476.223 424.311 463.087 432.16 454.925 434.457C446.759 436.753 459.895 438.476 458.12 441.922C456.345 445.368 452.086 448.238 454.569 450.918C457.056 453.599 470.544 470.06 484.741 474.845C498.941 479.63 510.301 484.415 510.301 487.287C510.301 490.157 511.009 525.952 507.462 532.076C503.911 538.202 505.331 540.117 507.814 545.475C510.301 550.836 511.365 556.77 508.882 563.851C506.395 570.933 505.446 579.547 510.359 589.309C515.272 599.071 537.989 605.578 547.927 605.389C557.868 605.197 564.61 602.325 561.415 600.22C558.22 598.113 544.376 599.454 543.312 590.648C542.248 581.844 550.766 578.398 550.766 575.144C550.766 571.89 539.053 570.743 542.604 567.871C546.151 565.001 546.863 564.617 551.122 561.171C555.381 557.725 546.507 554.663 550.058 552.367C553.605 550.07 560.535 552.559 562.216 548.539C563.902 544.518 562.835 542.987 572.776 543.179C582.713 543.371 585.908 537.436 585.2 535.14C584.489 532.843 587.328 533.225 595.849 529.588C604.367 525.952 620.342 513.894 620.698 510.448C621.05 507.002 616.791 501.642 625.313 499.153C633.831 496.665 650.158 496.665 654.773 492.264C659.387 487.86 658.679 475.992 663.65 470.06C668.617 464.126 684.948 456.087 679.622 449.577C674.299 443.069 648.386 440.773 639.865 440.773C631.347 440.773 620.698 441.157 610.757 434.839C600.82 428.523 592.654 417.612 578.81 417.612C564.966 417.612 558.22 407.276 540.829 405.554C523.434 403.831 517.755 405.554 508.882 403.065C500.004 400.577 492.55 401.534 486.872 404.023C481.193 406.511 477.287 409.381 474.092 409.955C470.9 410.53 465.218 406.893 461.315 407.658C457.408 408.424 442.856 409.765 443.212 403.639C443.564 397.515 448.179 391.581 441.081 390.24C433.983 388.9 422.266 391.197 418.719 387.369C415.168 383.542 429.012 381.051 429.72 376.65C430.432 372.247 415.524 373.97 412.329 377.416C409.134 380.862 405.227 383.732 394.934 383.35C384.641 382.966 378.962 378.947 378.962 371.1C378.962 363.251 377.895 360.763 386.06 354.447C394.226 348.129 407.714 350.427 413.393 351.766C419.071 353.106 424.397 347.747 433.983 347.555C443.564 347.363 450.31 349.47 451.73 351.766C453.149 354.063 452.794 364.016 461.315 363.635C469.833 363.251 457.764 347.363 464.51 343.152C471.252 338.943 493.618 334.156 493.97 329.944C494.326 325.735 499.296 320.375 506.75 316.737C514.204 313.101 521.658 315.206 524.145 311.952C526.629 308.698 519.175 308.506 527.34 305.252C535.502 301.999 538.697 308.316 546.507 306.018C554.317 303.721 574.907 301.809 574.195 298.555C573.484 295.299 560.707 298.363 558.932 293.386C557.156 288.409 559.64 284.39 570.644 284.006C581.649 283.624 602.947 283.049 602.239 275.967C601.528 268.884 583.069 266.014 583.425 257.591C583.78 249.169 574.907 241.513 572.064 245.723C569.225 249.934 560.707 252.233 555.025 248.403C549.346 244.576 549.346 231.368 535.858 230.219C522.37 229.072 527.693 238.641 521.658 241.13C515.624 243.618 507.814 246.872 512.077 249.552C516.336 252.233 517.755 259.506 508.882 261.037C500.004 262.568 496.457 264.099 497.165 270.225C497.877 276.349 489.355 279.605 487.228 274.436C485.096 269.268 490.423 262.376 485.096 261.037C479.774 259.698 469.125 259.506 466.282 254.529C463.443 249.552 453.149 252.423 447.471 245.723C441.792 239.025 450.31 231.56 464.862 225.818C479.418 220.075 492.55 211.269 503.555 208.973C514.56 206.676 523.315 213.504 527.578 204.316C531.836 195.127 518.111 190.023 511.484 195.383C504.856 200.742 506.276 189.767 492.08 190.532C477.88 191.298 482.139 200.486 467.939 197.936C453.742 195.383 434.809 186.449 424.872 188.748C414.931 191.044 397.166 194.106 391.376 188.748C385.586 183.387 394.578 180.069 376.119 173.945C357.662 167.819 344.41 159.141 327.371 166.798Z" fill="#B76E00"/>
<path d="M689.915 112.693C689.915 112.693 675.244 112.947 667.672 118.307C660.099 123.666 636.433 123.156 638.327 127.239C640.221 131.323 644.264 133.875 638.219 135.662C632.174 137.449 606.142 136.427 609.456 141.786C612.77 147.147 626.021 146.637 624.127 149.187C622.236 151.74 604.248 151.23 611.35 155.057C618.448 158.887 641.166 158.375 643.06 166.032C644.954 173.689 638.801 184.918 643.06 190.533C647.319 196.149 631.699 197.936 635.962 202.017C640.221 206.101 630.28 210.696 633.123 217.331C635.962 223.967 641.824 237.492 649.54 242.343C657.26 247.192 660.57 249.489 668.146 243.618C675.719 237.748 675.244 224.223 689.915 223.967C704.589 223.711 701.75 215.035 722.099 211.717C742.452 208.399 755.703 208.909 760.911 204.825C766.119 200.742 758.072 192.575 765.644 185.94C773.217 179.304 777.001 173.689 777.95 167.308C778.895 160.928 787.417 159.653 787.417 152.761C787.417 145.871 802.087 135.916 807.295 134.131C812.499 132.344 803.981 123.156 796.409 126.218C788.836 129.282 775.582 133.11 774.636 129.792C773.691 126.474 796.88 123.666 789.781 118.051C782.683 112.437 768.958 105.292 752.864 106.057C736.774 106.823 717.366 108.863 715.476 114.48C713.581 120.094 717.733 123.412 709.031 122.391C700.33 121.369 707.429 111.672 689.915 112.693Z" fill="#B76E00"/>
<path d="M666.726 104.526C666.726 104.526 644.48 97.8904 630.754 98.1443C617.029 98.4001 618.923 102.739 606.617 102.739C594.311 102.739 573.484 102.995 577.272 109.629C581.056 116.267 593.362 114.734 593.837 118.307C594.311 121.881 581.531 118.561 579.637 124.943C577.746 131.323 569.225 129.026 564.021 134.385C558.813 139.745 552.66 143.573 546.033 143.829C539.409 144.083 529.468 146.891 526.154 151.23C522.844 155.569 521.421 160.674 536.566 162.461C551.715 164.246 566.386 163.48 566.386 159.141C566.386 154.804 542.248 156.079 545.562 151.74C548.876 147.402 555.499 151.23 570.174 151.74C584.844 152.251 579.166 146.125 587.213 142.042C595.256 137.959 614.189 137.319 615.609 130.747C617.029 124.177 622.707 129.282 639.276 121.881C655.84 114.48 680.923 112.183 666.726 104.526Z" fill="#B76E00"/>
<path d="M427.948 153.271C427.948 153.271 431.496 145.997 426.173 145.997C420.847 145.997 421.202 143.127 413.393 142.554C405.583 141.978 405.583 145.616 399.193 147.912C392.803 150.209 379.67 154.228 381.801 158.631C383.929 163.034 386.772 168.085 393.87 163.358C400.968 158.631 401.324 155.951 409.134 156.335C416.944 156.717 407.358 160.428 407.714 163.358C408.07 166.288 389.255 168.967 399.549 170.116C409.842 171.263 416.588 172.604 412.329 174.901C408.07 177.199 399.549 185.812 411.261 185.046C422.978 184.281 428.301 179.304 434.691 182.558C441.081 185.812 450.31 189.449 455.281 186.385C460.251 183.323 458.476 182.418 456.7 176.554C454.925 170.69 467.705 165.331 466.994 160.162C466.282 154.996 448.891 156.525 448.891 160.928C448.891 165.331 450.31 168.011 443.212 162.461C436.11 156.908 436.822 152.889 427.948 153.271Z" fill="#B76E00"/>
<path d="M475.867 147.338C475.867 147.338 452.794 149.635 447.115 145.997C441.437 142.362 432.207 132.724 444.984 130.747C457.764 128.771 456.7 134.131 463.443 137.575C470.189 141.021 468.769 132.408 475.867 133.366C482.969 134.321 487.289 146.666 475.867 147.338Z" fill="#B76E00"/>
<path d="M572.42 113.65C571.881 110.019 566.741 106.375 557.868 109.629C548.991 112.883 543.312 116.712 546.507 121.881C549.702 127.048 540.096 130.304 545.609 132.982C551.122 135.662 564.254 132.408 563.191 125.9C562.127 119.391 573.132 118.435 572.42 113.65Z" fill="#B76E00"/>
<path d="M512.077 144.466C512.077 144.466 515.98 140.831 512.077 138.342C508.17 135.854 504.619 137.928 500.716 139.187C496.809 140.447 490.067 136.588 489.355 139.187C488.647 141.786 482.257 145.997 491.131 146.381C500.004 146.763 490.423 148.678 496.457 151.166C502.491 153.654 505.96 158.439 513.809 154.612C521.658 150.784 514.204 149.827 512.077 144.466Z" fill="#B76E00"/>
<path d="M521.302 130.323C521.302 130.323 528.048 127.239 526.985 122.455C525.921 117.67 522.37 112.883 515.624 115.947C508.882 119.009 504.267 116.532 505.687 122.65C507.106 128.771 508.882 129.854 512.785 130.747C516.691 131.643 518.578 132.038 521.302 130.323Z" fill="#B76E00"/>
<path d="M522.37 161.503C522.37 161.503 517.044 157.866 507.814 158.631C498.585 159.397 493.262 163.992 492.906 169.542C492.55 175.093 488.877 174.327 482.904 179.878C476.931 185.428 466.282 188.3 477.998 189.066C489.711 189.831 497.582 188.492 497.553 182.176C497.521 175.858 497.363 171.839 505.428 169.924C513.496 168.011 530.535 165.331 522.37 161.503Z" fill="#B76E00"/>
<path d="M486.469 169.35C487.451 168.453 495.393 162.461 492.906 159.589C490.423 156.717 479.774 162.269 476.223 164.471C472.672 166.67 468.891 170.5 472.733 174.711C476.579 178.922 483.249 172.29 486.469 169.35Z" fill="#B76E00"/>
<path d="M524.53 177.773C524.53 177.773 525.565 173.753 531.599 171.263C537.634 168.777 539.765 166.096 535.502 166.288C531.243 166.48 512.785 169.542 510.301 175.284C507.814 181.027 508.882 189.453 519.175 189.259C529.468 189.065 524.498 193.277 533.727 193.85C542.956 194.426 549.346 190.405 550.414 196.339C551.478 202.273 563.546 203.804 560.351 208.973C557.156 214.141 550.766 213.566 541.893 215.864C533.019 218.161 539.765 216.63 545.799 222.564C551.834 228.496 546.87 228.688 560.887 231.56C574.907 234.43 578.098 234.622 577.746 231.56C577.39 228.496 590.523 232.707 586.264 225.626C582.005 218.542 573.484 216.246 579.874 214.333C586.264 212.418 586.264 222.18 592.298 220.649C598.333 219.118 612.533 214.715 603.659 210.504C594.782 206.292 583.425 204.569 586.976 201.126C590.523 197.68 586.976 190.98 578.098 186.193C569.225 181.41 572.776 176.484 563.902 176.554C555.025 176.623 557.868 167.418 549.346 167.426C540.829 167.435 527.046 181.027 524.53 177.773Z" fill="#B76E00"/>
<path d="M609.165 286.687C609.165 286.687 602.592 287.834 599.044 286.687C595.493 285.537 580.23 288.601 582.005 292.045C583.781 295.491 589.459 296.64 593.362 298.171C597.269 299.702 608.284 299.702 609.165 296.256C610.045 292.811 619.289 286.687 609.165 286.687Z" fill="#B76E00"/>
<path d="M505.331 213.184C505.331 213.184 504.659 213.112 503.631 213.07C500.551 212.944 494.279 213.089 493.384 216.246C492.198 220.457 482.257 223.711 491.487 226.391C500.716 229.072 501.654 221.415 509.173 222.18C516.691 222.946 522.37 224.523 522.726 220.002C523.078 215.481 510.01 213.041 504.659 213.112" fill="#B76E00"/>
<path d="M1087.49 328.983C1080.4 326.299 1079.2 324.522 1079.2 318.908C1079.2 313.293 1069.5 309.464 1065.24 306.784C1060.98 304.105 1063.58 302.318 1070.45 299.638C1077.31 296.958 1082.52 294.533 1085.12 295.555C1087.72 296.576 1087.49 299.638 1087.49 299.638C1088.19 302.388 1082.04 300.787 1078.97 304.359C1075.89 307.933 1090.33 311.507 1091.03 316.1C1091.75 320.695 1098.14 321.97 1099.79 325.288C1101.45 328.605 1094.59 331.668 1087.49 328.983ZM1033.06 317.121C1026.9 318.524 1017.2 315.718 1011.76 314.059C1006.32 312.4 1002.05 312.144 997.324 313.931C992.587 315.718 990.222 316.993 985.252 316.993C980.285 316.993 983.595 319.801 980.756 319.545C977.917 319.29 979.811 317.121 977.679 315.846C975.552 314.569 977.917 308.826 979.099 306.146C980.285 303.468 982.175 301.681 986.201 299.894C990.222 298.107 997.558 301.041 997.558 302.318C997.558 303.594 1001.11 306.018 1006.32 304.487C1011.52 302.956 1015.78 304.487 1015.78 304.487C1023.59 303.849 1028.56 308.698 1033.06 309.848C1037.55 310.995 1039.21 315.718 1033.06 317.121ZM1010.34 298.489C1015.07 298.107 1020.75 296.704 1018.62 299.638C1018.62 299.638 1020.99 300.915 1014.6 301.041C1008.21 301.169 1005.6 298.873 1010.34 298.489ZM1577.58 154.932C1581.13 153.91 1583.26 154.292 1585.87 155.058C1588.47 155.823 1603.61 156.463 1600.54 152.505C1597.46 148.55 1591.31 147.656 1591.07 143.063C1590.84 138.468 1584.68 135.406 1577.82 137.321C1570.96 139.236 1578.77 143.319 1574.27 143.191C1569.77 143.063 1570.48 139.362 1561.49 137.831C1552.5 136.3 1530.73 135.15 1517.48 135.28C1504.22 135.406 1491.92 136.556 1496.17 139.236C1500.44 141.914 1507.54 146.253 1502.09 146.637C1496.65 147.019 1498.07 140.893 1486.95 141.149C1475.83 141.404 1476.53 147.912 1465.65 148.678C1454.76 149.443 1455.24 144.466 1447.43 142.042C1439.62 139.618 1427.78 144.722 1421.63 146.509C1415.48 148.296 1402.47 144.594 1401.05 141.404C1399.63 138.214 1387.32 138.468 1384.48 141.276C1381.64 144.083 1380.22 140.767 1372.41 140.255C1364.6 139.745 1355.14 145.488 1358.92 147.147C1362.71 148.806 1366.73 150.592 1361.76 151.996C1356.79 153.401 1342.36 151.74 1341.17 155.823C1339.99 159.906 1335.49 161.693 1330.52 158.631C1325.55 155.569 1319.4 147.656 1307.8 145.997C1296.21 144.34 1291.95 147.53 1291.95 150.465C1291.95 153.401 1281.54 155.186 1275.15 152.761C1268.76 150.337 1255.03 150.718 1245.8 154.676C1236.57 158.631 1232.31 162.587 1230.89 158.631C1229.48 154.676 1241.31 149.443 1241.31 143.701C1241.31 137.959 1225.45 132.6 1218.83 132.6C1212.2 132.6 1211.02 139.873 1206.52 137.321C1202.02 134.769 1198 129.664 1191.85 129.92C1185.69 130.176 1181.67 135.534 1184.75 138.087C1187.82 140.639 1182.15 140.639 1180.96 143.957C1179.78 147.275 1174.81 144.466 1164.63 148.55C1154.46 152.633 1148.07 157.61 1149.01 159.906C1149.96 162.203 1159.42 164.374 1156.59 165.523C1153.75 166.67 1140.02 167.947 1140.26 171.391C1140.49 174.837 1151.62 174.071 1156.11 179.176C1160.61 184.281 1159.19 186.068 1156.11 185.428C1153.04 184.792 1152.09 182.11 1145.7 179.304C1139.31 176.496 1135.29 179.56 1135.52 181.473C1135.76 183.387 1129.02 186.864 1127.06 184.759C1125.11 182.653 1120.14 185.62 1123.34 187.535C1126.53 189.449 1124.4 196.787 1131.97 197.168C1139.55 197.552 1147.12 195.765 1149.49 199.977C1151.86 204.188 1148.78 200.104 1143.33 199.849C1137.89 199.593 1135.05 199.977 1137.42 203.039C1139.78 206.101 1137.18 212.227 1133.4 213.376C1129.61 214.523 1130.32 213.886 1131.03 210.058C1131.74 206.229 1128.43 201.126 1123.22 197.168C1118.01 193.213 1113.04 182.238 1113.04 178.922C1113.04 175.604 1103.58 173.69 1099.56 180.581C1095.53 187.471 1098.37 196.787 1105.47 198.573C1112.57 200.358 1115.88 204.316 1110.68 204.444C1105.47 204.57 1105 201.508 1093.87 199.465C1082.75 197.424 1072.58 196.021 1073.29 198.446C1073.99 200.87 1082.75 203.804 1078.26 205.081C1073.76 206.356 1061.93 204.953 1058.85 206.229C1055.77 207.506 1051.28 204.953 1045.84 207.122C1040.39 209.293 1036.84 215.672 1030.69 216.438C1024.54 217.203 1029.98 212.099 1024.54 210.058C1019.09 208.015 1014.12 211.589 1016.97 214.523C1019.8 217.459 1019.09 220.138 1013.18 220.265C1007.26 220.393 1009.39 224.988 1003.95 228.816C998.507 232.643 989.511 230.857 987.146 227.285C984.781 223.711 975.077 221.415 978.628 219.756C982.175 218.097 994.718 223.839 1002.05 219.884C1009.39 215.928 996.375 211.589 987.62 208.271C978.862 204.953 967.149 205.335 963.246 205.145C959.339 204.953 968.213 200.168 961.115 198.254C954.016 196.339 944.431 201.699 936.266 201.699C928.104 201.699 916.387 205.527 908.933 211.079C901.479 216.63 899.348 220.457 894.737 226.391C890.122 232.326 884.088 236.153 875.211 237.876C866.337 239.599 860.659 243.045 862.254 244.863C863.854 246.68 867.225 246.202 866.513 249.552C865.805 252.901 869.176 257.878 877.162 257.878C885.152 257.878 885.684 252.423 891.006 254.242C896.333 256.06 893.67 259.888 894.202 261.898C894.737 263.907 900.06 268.31 906.45 268.119C912.84 267.929 918.874 260.463 918.874 256.634C918.874 252.806 927.392 252.615 925.264 249.552C923.133 246.49 911.42 244.768 917.099 240.364C922.777 235.961 933.426 231.176 932.718 227.349C932.007 223.519 946.207 222.564 946.207 226.391C946.207 230.219 933.071 235.196 933.071 239.791C933.071 244.384 932.363 249.552 941.236 249.552C950.11 249.552 951.885 244.283 958.275 247.109C964.666 249.934 964.31 250.318 962.178 252.806C960.051 255.295 948.69 255.295 946.915 258.931C945.143 262.568 931.651 265.057 935.202 267.545C938.753 270.033 947.27 272.522 941.948 273.287C936.621 274.053 921.358 270.607 916.035 271.756C910.709 272.905 908.225 276.349 903.611 274.245C898.996 272.14 894.381 275.967 889.055 272.522C883.732 269.076 881.957 268.884 880.893 272.33C879.826 275.776 871.308 273.671 867.757 277.498C864.206 281.326 862.078 281.518 857.819 284.39C853.557 287.26 843.975 291.28 838.649 292.237C833.326 293.194 826.225 292.621 826.936 295.299C827.644 297.979 839.361 297.214 842.556 301.233C845.747 305.253 843.975 308.698 838.768 309.082C833.56 309.464 818.415 307.551 812.262 309.464C806.109 311.379 808.952 315.462 806.346 318.014C803.744 320.567 797.117 320.311 796.409 322.991C795.697 325.671 803.27 324.522 804.452 326.947C805.638 329.371 812.736 331.286 818.178 332.051C823.623 332.817 842.318 332.551 845.632 328.983C848.942 325.416 847.997 320.311 853.438 318.524C858.883 316.737 862.668 314.441 861.96 311.76C861.248 309.082 868.587 310.485 876.16 309.592C883.732 308.698 883.021 305.764 886.097 306.018C889.174 306.274 896.509 312.91 901.479 314.632C906.45 316.355 914.615 317.886 918.163 320.567C921.714 323.245 921.121 327.202 923.015 327.202C924.909 327.202 923.252 321.588 925.142 320.82C927.036 320.055 931.299 323.119 931.77 320.948C932.244 318.78 925.142 316.865 920.175 314.952C915.205 313.037 906.924 310.741 905.505 306.911C904.081 303.084 910.709 305.764 915.916 308.826C921.121 311.888 920.883 314.059 928.93 314.824C936.977 315.59 940.291 320.948 939.579 324.65C938.871 328.35 945.732 331.414 950.94 331.414C956.144 331.414 953.779 328.478 958.75 328.224C963.717 327.968 967.505 325.797 965.14 324.394C962.771 322.991 954.016 324.65 954.487 322.098C954.962 319.545 963.246 317.758 965.14 317.886C965.14 317.886 971.764 318.46 970.7 322.098C969.636 325.735 968.924 329.563 977.798 331.094C986.675 332.625 986.319 328.224 997.324 330.902C1008.33 333.582 1010.1 333.39 1018.27 331.478C1026.43 329.563 1040.27 326.501 1042.05 330.328C1043.82 334.156 1048.44 334.921 1039.21 338.559C1029.98 342.197 1029.62 342.005 1016.85 344.875C1004.07 347.747 1007.26 348.321 987.383 347.363C967.505 346.406 956.856 339.708 947.982 344.109C939.109 348.513 943.72 354.255 935.202 351.193C926.684 348.129 919.582 347.939 917.807 345.067C916.035 342.197 898.996 347.939 896.509 342.005C894.025 336.071 905.738 332.625 895.445 329.945C885.152 327.266 879.826 330.902 870.952 331.286C862.078 331.667 859.591 328.605 852.493 332.433C852.493 332.433 846.815 335.497 839.716 335.689C832.615 335.879 817.351 338.175 812.025 340.856C806.702 343.536 801.731 348.513 801.731 350.044C801.731 351.575 804.571 352.916 793.57 355.594C782.565 358.274 787.887 357.125 782.565 360.571C777.238 364.017 766.589 370.908 766.945 374.736C767.301 378.563 769.414 386.028 766.938 388.327C764.462 390.623 762.686 392.92 763.75 395.792C764.814 398.662 768.721 402.682 776.883 404.978C785.048 407.277 783.984 414.166 791.438 414.742C798.892 415.315 798.576 419.719 807.964 420.292C817.351 420.866 819.126 416.465 830.839 418.953C842.556 421.441 851.074 418.569 857.108 416.081C863.142 413.593 872.016 418.482 873.083 420.345C874.147 422.207 874.855 426.035 880.181 425.077C885.504 424.12 892.25 422.509 893.67 425.228C895.089 427.949 889.055 435.796 893.67 438.858C898.284 441.922 905.738 444.219 908.578 450.727C911.42 457.234 918.163 463.169 912.484 465.657C906.806 468.145 898.996 475.992 902.191 479.822C905.386 483.649 915.122 485.756 914.691 491.688C914.26 497.622 916.035 505.087 919.938 508.341C923.841 511.595 929.523 513.894 930.587 518.869C931.651 523.845 926.328 528.057 936.622 528.057C946.915 528.057 969.28 527.483 980.285 522.698C991.286 517.913 1003 508.341 1003.71 504.706C1004.42 501.068 1017.2 501.452 1017.55 498.006C1017.91 494.56 1012.58 489.2 1019.33 484.799C1026.08 480.395 1044.53 480.014 1045.24 474.461C1045.95 468.911 1042.4 460.872 1040.63 457.234C1038.85 453.599 1035.31 447.091 1041.34 444.027C1047.37 440.965 1066.54 429.48 1080.39 423.738C1094.23 417.996 1101.33 405.746 1098.84 402.873C1096.36 400.003 1088.91 403.447 1080.39 404.596C1071.87 405.746 1060.15 407.085 1058.02 403.639C1055.89 400.193 1053.76 387.561 1048.08 388.327C1042.4 389.092 1030.34 384.881 1029.27 380.096C1028.2 375.309 1027.5 373.396 1022.17 369.759C1016.85 366.123 1004.78 359.04 1009.39 356.743C1014.01 354.447 1022.53 358.466 1024.66 362.486C1026.78 366.505 1034.59 366.889 1035.31 369.759C1036.01 372.631 1037.79 376.267 1043.82 377.99C1049.86 379.712 1055.89 386.986 1057.67 391.963C1059.44 396.939 1058.73 401.916 1063.35 401.724C1067.96 401.534 1071.16 396.749 1080.03 395.6C1088.91 394.451 1096 389.474 1109.85 387.561C1123.69 385.647 1138.6 376.459 1136.47 372.439C1134.34 368.42 1125.82 368.993 1121.56 365.931C1117.3 362.867 1111.27 364.974 1109.85 366.697C1108.43 368.42 1094.59 369.759 1094.23 365.548C1093.87 361.336 1076.83 353.681 1080.39 351.193C1083.94 348.704 1098.84 362.102 1107.72 359.997C1116.59 357.893 1118.37 360.571 1122.63 362.486C1126.89 364.4 1156 361.146 1163.09 363.443C1170.2 365.739 1183.33 376.65 1189.01 376.65C1194.69 376.65 1200.37 372.247 1203.56 374.544C1206.76 376.842 1200.37 381.627 1207.82 388.517C1215.28 395.408 1219.53 400.577 1221.67 404.596C1223.79 408.616 1226.28 412.062 1234.09 408.424C1241.9 404.788 1231.6 397.897 1240.12 392.538C1248.64 387.178 1271.36 378.181 1272.78 374.736C1274.2 371.29 1291.59 368.612 1293.37 371.482C1295.14 374.354 1296.56 378.563 1302.95 380.478C1309.34 382.393 1304.02 389.666 1310.41 390.623C1316.8 391.581 1318.57 386.986 1322.48 386.412C1326.38 385.838 1332.06 391.581 1329.58 397.323C1327.09 403.065 1328.51 409.381 1332.77 412.062C1337.03 414.742 1343.42 421.058 1344.84 424.12C1346.26 427.184 1359.39 429.48 1362.59 430.246C1365.78 431.011 1358.68 418.953 1355.14 417.42C1351.58 415.889 1337.38 413.784 1337.03 406.127C1336.68 398.47 1335.26 394.835 1340.22 396.749C1345.19 398.662 1359.75 401.916 1360.81 404.596C1361.88 407.277 1361.17 410.531 1366.85 408.808C1372.53 407.085 1387.44 400.193 1384.95 394.643C1382.47 389.092 1365.78 385.838 1364.72 381.052C1363.65 376.267 1373.95 371.865 1378.21 373.588C1382.47 375.309 1380.53 378.563 1385.23 377.99C1389.92 377.416 1385.31 373.97 1392.41 372.439C1399.51 370.908 1425.77 367.27 1431.81 353.298C1437.84 339.325 1416.19 331.286 1416.9 327.84C1417.61 324.394 1431.45 321.524 1429.32 319.609C1427.2 317.695 1420.09 321.906 1412.64 321.14C1405.19 320.375 1399.86 315.016 1406.96 311.76C1414.06 308.506 1413 312.144 1420.09 313.675C1427.2 315.206 1429.68 310.039 1432.87 311.379C1436.07 312.718 1444.59 314.824 1446.36 319.801C1448.14 324.778 1449.91 332.051 1457.72 329.945C1465.53 327.84 1469.44 320.183 1465.18 318.652C1460.91 317.121 1452.04 312.91 1455.24 306.594C1458.43 300.276 1463.76 296.64 1470.15 296.832C1476.53 297.022 1489.67 277.882 1486.47 267.545C1483.28 257.21 1469.79 245.723 1464.82 246.68C1459.85 247.638 1444.23 251.657 1446.01 245.533C1447.78 239.407 1452.4 228.496 1456.66 222.564C1460.91 216.63 1493.22 211.845 1493.93 214.907C1494.64 217.969 1509.55 217.977 1509.9 213.953C1510.26 209.93 1500.67 202.465 1508.13 199.211C1515.58 195.957 1519.13 203.614 1525.52 202.657C1531.91 201.699 1521.26 191.172 1529.43 189.257C1537.59 187.343 1538.3 198.827 1536.88 201.699C1535.46 204.57 1536.17 217.012 1531.2 219.692C1526.23 222.372 1526.94 233.473 1533.69 238.642C1540.43 243.81 1549.3 254.146 1556.05 252.998C1562.79 251.849 1556.76 239.215 1559.6 235.58C1562.44 231.942 1560.66 221.223 1553.56 217.777C1546.47 214.333 1543.98 208.781 1550.01 204.188C1556.05 199.593 1561.37 197.488 1567.41 201.126C1573.44 204.761 1574.15 199.019 1574.15 194.042C1574.15 189.066 1578.76 182.366 1586.22 182.366C1593.68 182.366 1594.74 180.835 1589.77 176.816C1584.8 172.796 1572.38 170.308 1564.57 169.35C1556.76 168.393 1559.95 166.48 1567.41 167.246C1574.86 168.011 1578.53 164.374 1577.58 161.821C1576.64 159.269 1564.09 158.12 1564.57 154.932C1565.04 151.74 1574.03 155.951 1577.58 154.932Z" fill="#B76E00"/>
<path d="M889.766 317.026C889.766 317.026 893.138 319.225 891.006 320.183C888.879 321.14 894.37 323.82 891.714 324.778C889.055 325.735 882.133 325.638 883.732 322.863C885.328 320.088 886.392 321.427 886.392 319.322C886.392 317.216 888.099 315.472 889.766 317.026Z" fill="#B76E00"/>
<path d="M917.455 327.553C916.294 327.102 913.372 325.83 910.885 326.404C908.401 326.978 906.27 328.605 908.757 329.658C911.241 330.71 910.885 332.146 914.792 331.478C918.695 330.807 920.172 328.611 917.455 327.553Z" fill="#B76E00"/>
<path d="M1082.99 468.847C1082.99 468.847 1084.64 472.165 1079.44 472.802C1074.23 473.442 1074.23 473.952 1072.58 475.355C1070.92 476.76 1062.4 477.014 1060.51 479.694C1058.61 482.374 1063.35 485.818 1060.51 488.116C1057.67 490.413 1052.7 492.072 1055.77 497.43C1058.85 502.791 1070.21 503.301 1075.18 501.388C1080.15 499.473 1079.68 495.262 1081.1 492.454C1082.52 489.647 1087.49 490.157 1088.43 486.457C1089.38 482.756 1085.36 479.056 1088.43 477.141C1091.51 475.227 1091.27 468.847 1089.85 466.678C1088.43 464.508 1081.8 465.147 1082.99 468.847Z" fill="#B76E00"/>
<path d="M830.484 256.06C830.484 256.06 826.225 255.487 824.805 257.399C823.385 259.314 818.415 259.698 818.415 262.76C818.415 265.822 827.292 266.779 827.644 268.694C828 270.607 834.746 273.671 830.484 275.392C826.225 277.115 820.888 279.605 825.154 281.136C829.42 282.667 831.551 282.857 829.776 284.58C828 286.303 825.872 288.217 828.356 288.791C830.839 289.367 834.034 287.068 837.941 286.495C841.844 285.921 850.366 285.729 852.849 283.814C855.332 281.901 862.078 277.69 856.4 276.733C850.718 275.775 852.849 274.064 850.718 272.43C848.59 270.799 846.103 272.713 842.556 271.372C839.005 270.033 835.098 267.545 835.81 263.334C836.521 259.122 832.791 256.109 830.484 256.06Z" fill="#B76E00"/>
<path d="M815.22 268.884C814.224 269.085 810.019 268.694 808.894 270.991C807.766 273.287 801.732 273.671 801.024 276.541C800.312 279.413 804.219 282.475 808.122 282.091C812.025 281.71 813.092 279.987 815.22 279.029C817.351 278.072 823.741 276.159 823.741 274.053C823.741 271.948 820.686 267.785 815.22 268.884Z" fill="#412D60"/>
<path d="M763.434 224.733C763.434 224.733 758.78 220.265 755.703 221.287C752.627 222.308 749.317 225.498 752.156 227.157C754.995 228.816 756.415 228.688 755.94 231.112C755.47 233.537 768.009 236.217 774.162 235.452C780.315 234.686 791.201 231.86 791.201 228.36C791.201 224.86 788.599 221.11 783.154 221.136C777.713 221.159 781.026 222.946 776.768 223.839C772.505 224.733 767.617 222.052 763.434 224.733Z" fill="#B76E00"/>
<path d="M930.587 139.298C930.587 139.298 921.358 138.724 917.455 139.298C913.548 139.873 911.065 134.896 905.386 136.619C899.704 138.342 906.094 141.978 897.22 142.743C888.347 143.509 877.342 140.255 877.342 145.232C877.342 150.209 876.986 153.271 884.796 154.42C892.606 155.569 893.67 154.42 891.894 157.866C890.122 161.311 894.025 165.139 899.704 165.713C905.386 166.288 907.87 160.162 907.158 157.674C906.45 155.185 901.835 153.081 907.87 153.081C913.904 153.081 913.548 158.247 918.874 159.78C924.197 161.311 928.812 155.377 924.553 152.697C920.294 150.019 917.099 151.166 912.484 149.635C907.869 148.104 902.191 145.807 906.806 145.232C911.42 144.658 912.128 146.763 920.646 146.571C929.168 146.381 937.685 141.021 930.587 139.298Z" fill="#B76E00"/>
<path d="M1060.51 196.531C1060.51 196.531 1065.12 195.573 1062.28 193.085C1059.44 190.597 1053.41 192.511 1051.99 187.726C1050.57 182.939 1050.57 175.858 1055.54 171.455C1060.51 167.054 1065.48 164.757 1068.32 161.693C1071.16 158.631 1078.97 159.78 1080.39 155.759C1081.8 151.74 1077.19 150.784 1071.51 152.889C1065.83 154.995 1067.25 158.247 1062.64 158.057C1058.02 157.866 1053.76 159.972 1047.37 163.992C1040.98 168.011 1036.73 171.647 1038.5 176.05C1040.27 180.451 1039.46 181.219 1038.09 182.939C1036.73 184.664 1033.43 189.257 1038.09 190.023C1042.76 190.788 1043.47 191.554 1045.95 194.808C1048.44 198.062 1058.41 197.438 1060.51 196.531Z" fill="#B76E00"/>
<path d="M996.968 132.216C997.335 129.245 1000.16 128.197 996.968 127.813C993.773 127.431 993.773 128.77 990.222 128.962C986.675 129.154 975.315 129.92 980.637 132.216C985.964 134.513 987.236 133.21 989.439 136.255C991.642 139.298 1007.26 138.15 1005.49 135.28C1003.71 132.408 996.613 135.088 996.968 132.216Z" fill="#B76E00"/>
<path d="M1021.11 132.9C1017.53 135.282 1020.39 131.833 1015.07 130.685C1009.75 129.536 1013.3 132.827 1010.46 132.904C1007.62 132.982 1000.8 126.474 1005.63 124.177C1010.46 121.881 1010.1 117.67 1014.36 116.139C1018.62 114.606 1018.97 119.391 1018.27 122.071C1017.55 124.751 1022.17 123.794 1022.88 125.9C1023.59 128.005 1021.46 130.284 1025.36 129.91C1029.27 129.536 1027.85 125.135 1029.62 123.412C1031.4 121.689 1030.03 115.947 1035.68 117.478C1041.34 119.009 1043.12 121.881 1039.92 123.412C1036.73 124.943 1033.53 122.646 1033.89 126.666C1034.24 130.685 1037.08 132.982 1031.04 134.321C1025.01 135.662 1023.23 131.478 1021.11 132.9Z" fill="#B76E00"/>
<path d="M1185.69 124.433C1185.69 122.387 1184.04 122.519 1180.01 121.753C1175.99 120.987 1175.28 119.073 1170.79 118.689C1166.29 118.307 1163.69 121.625 1166.53 123.284C1169.37 124.943 1164.39 129.92 1170.79 130.685C1177.18 131.451 1174.57 127.111 1178.83 126.602C1183.09 126.09 1185.69 127.111 1185.69 124.433Z" fill="#412D60"/>
<path d="M1158 117.286C1150.81 116.976 1153.75 113.586 1147.83 113.968C1141.91 114.352 1139.31 114.606 1138.13 112.183C1136.94 109.757 1134.1 109.119 1131.27 108.098C1128.43 107.078 1122.98 106.185 1124.17 109.119C1125.35 112.055 1124.64 110.778 1122.75 114.224C1120.85 117.67 1127.01 116.52 1131.5 117.286C1136 118.051 1133.4 119.582 1135.05 122.135C1136.71 124.687 1144.75 125.708 1147.36 123.412C1149.96 121.115 1154.22 126.278 1158.95 124.718C1163.69 123.156 1163.92 117.542 1158 117.286Z" fill="#B76E00"/>
<path d="M1339.99 125.453C1343.73 124.612 1349.93 122.772 1346.61 120.476C1343.3 118.179 1341.64 120.476 1335.73 119.582C1329.81 118.689 1324.13 113.968 1318.46 117.796C1312.77 121.625 1311.59 125.581 1316.56 125.453C1321.53 125.327 1322 125.199 1322.71 128.77C1323.42 132.344 1334.55 130.685 1332.41 127.749C1330.29 124.815 1335.36 126.495 1339.99 125.453Z" fill="#B76E00"/>
<path d="M1369.57 121.753C1374.14 121.662 1377.38 118.561 1373.36 117.542C1369.33 116.52 1370.99 116.902 1365.07 117.542C1359.16 118.179 1353.24 115.755 1353.48 118.435C1353.72 121.116 1357.03 121.243 1361.05 120.348C1365.07 119.455 1363.18 121.881 1369.57 121.753Z" fill="#B76E00"/>
<path d="M1361.76 136.3C1363.86 134.883 1364.6 132.982 1359.16 133.366C1353.72 133.747 1353.48 135.406 1349.69 134.131C1345.91 132.854 1343.06 137.449 1347.56 138.086C1352.06 138.724 1357.03 139.49 1361.76 136.3Z" fill="#B76E00"/>
<path d="M1480.08 244.576C1482.43 245.018 1487.54 247.83 1491.09 254.146C1494.64 260.463 1505.29 265.248 1504.22 267.161C1503.16 269.076 1495.7 267.161 1496.41 269.65C1497.12 272.14 1507.77 276.541 1507.77 278.648C1507.77 280.752 1503.16 284.006 1498.9 282.092C1494.64 280.179 1499.25 275.967 1496.41 273.861C1493.57 271.756 1491.09 264.872 1492.15 263.624C1493.22 262.376 1486.83 256.444 1483.64 254.337C1480.44 252.233 1472.99 243.235 1480.08 244.576Z" fill="#B76E00"/>
<path d="M1528.01 288.601C1527.24 290.369 1526.94 293.768 1522.68 293.768C1518.42 293.768 1521.62 297.787 1517.35 297.787C1513.1 297.787 1509.9 293.768 1507.77 295.683C1505.64 297.597 1506.35 300.851 1502.8 300.851C1499.25 300.851 1497.83 298.937 1497.83 297.406C1497.83 295.875 1502.8 295.299 1503.51 292.811C1504.22 290.322 1501.38 285.921 1503.51 284.964C1505.64 284.006 1506 288.983 1512.92 288.983C1519.84 288.983 1529.08 286.113 1528.01 288.601Z" fill="#B76E00"/>
<path d="M1507.77 299.32C1507.77 299.32 1508.92 302.764 1512.96 304.297C1517 305.828 1515.23 308.89 1517.71 310.613C1520.2 312.336 1525.17 313.293 1522.68 315.206C1520.2 317.121 1515.19 316.355 1515.56 318.844C1515.94 321.332 1514.6 324.778 1512.96 326.309C1511.32 327.84 1501.03 324.96 1499.25 328.983C1497.48 333.009 1492.51 331.094 1488.96 330.52C1485.41 329.945 1475.92 328.797 1477.12 333.582C1478.31 338.367 1474.05 347.363 1472.27 343.728C1470.5 340.09 1464.47 335.879 1468.72 331.668C1472.99 327.456 1481.5 326.309 1486.83 325.352C1492.15 324.394 1496.66 320.948 1495.29 317.313C1493.93 313.675 1500.67 315.972 1504.93 312.91C1509.19 309.848 1499.25 307.167 1500.67 304.487C1502.09 301.809 1507.77 302.956 1507.77 299.32Z" fill="#B76E00"/>
<path d="M1541.85 279.413C1541.85 279.413 1539.01 282.776 1537.24 282.673C1535.46 282.57 1530.67 284.293 1530.49 285.729C1530.31 287.165 1527.64 286.442 1528.09 284.842C1528.54 283.241 1532.45 282.506 1536.52 281.615C1540.6 280.721 1541.85 279.413 1541.85 279.413Z" fill="#B76E00"/>
<path d="M1555.34 255.39C1555.34 255.39 1550.9 254.146 1550.54 256.444C1550.19 258.741 1549.48 259.985 1550.54 262.281C1551.61 264.578 1549.98 267.066 1549.98 267.066C1549.98 267.066 1552.65 263.907 1552.66 261.994C1552.68 260.08 1551.61 255.295 1555.34 255.39Z" fill="#B76E00"/>
<path d="M1317.51 417.996C1317.51 417.996 1328.51 418.283 1331.35 420.387C1334.19 422.494 1332.41 423.162 1337.03 424.982C1341.64 426.8 1345.37 427.374 1351.94 430.246C1358.51 433.116 1358.68 436.659 1362.41 438.571C1366.14 440.486 1368.09 440.965 1369.51 443.356C1370.93 445.75 1369.16 449.004 1367.56 449.769C1365.96 450.535 1359.93 449.769 1357.97 448.335C1356.02 446.899 1353 445.942 1349.63 444.027C1346.26 442.112 1341.29 438.19 1339.34 435.414C1337.38 432.639 1336.32 430.341 1330.46 427.566C1324.61 424.79 1312.36 418.953 1317.51 417.996Z" fill="#B76E00"/>
<path d="M1419.39 414.837C1419.22 415.74 1420.45 417.133 1414.77 418.856C1409.09 420.579 1405.72 420.579 1402.52 423.641C1399.33 426.705 1400.75 427.757 1393.12 428.331C1385.48 428.905 1384.42 428.715 1383.53 429.383C1382.64 430.054 1383.53 434.265 1387.79 437.424C1392.05 440.581 1395.24 442.017 1398.26 444.122C1401.28 446.228 1412.28 446.323 1415.3 445.368C1418.32 444.411 1418.67 439.337 1422.58 437.711C1426.48 436.083 1425.77 432.734 1427.9 432.255C1430.03 431.777 1432.87 430.151 1430.39 429.288C1427.9 428.428 1424.71 424.217 1425.77 423.067C1426.84 421.918 1428.6 421.344 1431.36 420.674C1434.11 420.005 1434.47 418.474 1434.11 417.996C1433.76 417.517 1430.57 417.517 1429.32 416.846C1428.08 416.176 1427.9 414.263 1424.89 413.976C1421.87 413.687 1419.63 413.451 1419.39 414.837Z" fill="#B76E00"/>
<path d="M1439.62 430.724C1439.62 430.724 1445.65 429.556 1448.31 429.852C1450.98 430.151 1455.59 431.49 1458.07 430.724C1460.56 429.959 1462.34 428.428 1463.58 429.096C1464.82 429.767 1462.16 433.116 1458.61 433.5C1455.06 433.883 1448.85 432.255 1446.01 432.639C1443.17 433.021 1439.26 434.552 1439.62 436.083C1439.97 437.614 1442.99 438.284 1443.7 437.137C1444.41 435.988 1454.35 434.936 1455.42 436.18C1456.48 437.424 1452.22 438.379 1449.03 438.379C1445.83 438.379 1444.76 439.72 1445.12 440.678C1445.47 441.635 1446.36 442.209 1448.85 442.401C1451.33 442.591 1454.7 444.122 1454.7 445.558C1454.7 446.994 1449.56 446.436 1447.25 445.949C1444.94 445.463 1442.28 443.74 1441.22 443.261C1440.15 442.783 1441.22 446.707 1440.33 448.143C1439.44 449.577 1435.23 450.248 1434.23 449.004C1433.23 447.759 1434.29 445.845 1435.18 444.027C1436.07 442.209 1434.34 440.391 1434.23 437.806C1434.11 435.222 1435.22 431.403 1439.62 430.724Z" fill="#B76E00"/>
<path d="M1483.4 430.438C1483.53 430.244 1483.34 430.038 1483.29 429.86C1482.96 428.49 1482.01 427.943 1478.66 428.395C1474.88 428.905 1473.93 430.31 1475.59 431.585C1477.25 432.862 1473.46 434.393 1477.25 435.159C1481.03 435.924 1479.85 432.195 1480.56 431.699C1481.27 431.203 1482.45 431.841 1483.4 430.438Z" fill="#B76E00"/>
<path d="M1476.89 441.858C1474.95 440.736 1473.11 439.219 1470.03 439.294C1466.95 439.37 1461.74 439.88 1462.22 440.901C1462.69 441.922 1465.65 443.453 1468.37 442.432C1471.09 441.411 1474.41 443.069 1476.18 443.069C1477.95 443.069 1477.97 442.486 1476.89 441.858Z" fill="#B76E00"/>
<path d="M1523.74 438.668C1521 439.145 1519.31 439.482 1517 441.182C1514.69 442.88 1511.32 442.641 1509.72 441.182C1508.13 439.721 1507.06 435.492 1504.05 435.261C1501.03 435.031 1495.88 436.849 1494.46 437.04C1493.04 437.232 1495.88 439.246 1497.83 439.292C1499.79 439.337 1506 439.816 1505.29 440.678C1504.58 441.538 1499.96 441.252 1499.43 441.825C1498.9 442.401 1499.61 443.74 1504.75 444.027C1509.9 444.314 1510.08 445.575 1514.52 445.949C1518.95 446.323 1525.88 447.343 1527.83 449.657C1529.78 451.971 1526.23 454.651 1526.76 455.895C1527.3 457.139 1536.17 455.033 1538.12 456.661C1540.08 458.287 1542.56 459.82 1546.47 459.244C1550.37 458.67 1552.32 454.938 1557.82 455.033C1563.33 455.13 1569.54 456.141 1570.78 459.368C1572.02 462.595 1578.94 463.263 1584.45 463.263C1589.95 463.263 1591.01 460.106 1585.87 459.341C1580.72 458.575 1571.49 456.374 1570.6 453.599C1569.72 450.821 1558.35 444.411 1552.68 443.069C1547 441.73 1538.83 440.688 1536.17 439.294C1533.51 437.903 1528.71 437.806 1523.74 438.668Z" fill="#B76E00"/>
<path d="M1367.02 452.163C1370.7 451.184 1375.72 448.748 1379.27 450.072C1382.82 451.397 1386.9 452.641 1390.1 452.163C1393.29 451.684 1395.96 450.841 1399.15 452.267C1402.35 453.694 1407.83 454.459 1408.73 454.938C1409.62 455.417 1403.23 457.139 1401.63 456.661C1400.04 456.182 1390.99 456.182 1389.57 455.033C1388.15 453.885 1379.98 455.225 1377.32 455.322C1374.66 455.416 1369.31 454.938 1370.03 454.554C1370.75 454.172 1372.88 454.01 1372 453.23C1371.11 452.449 1363.58 453.081 1367.02 452.163Z" fill="#B76E00"/>
<path d="M1408.14 453.215C1408.14 453.215 1403.29 452.959 1403.05 452.641C1402.82 452.322 1404.71 451.684 1406.25 451.876C1407.79 452.066 1410.39 451.967 1409.92 452.527C1409.44 453.087 1409.09 453.271 1408.14 453.215Z" fill="#B76E00"/>
<path d="M1417.79 456.277C1417.79 456.277 1414.95 455.322 1412.82 456.277C1410.69 457.234 1414.59 457.234 1415.3 458.097C1416.01 458.957 1416.9 458.287 1417.79 457.713C1418.67 457.139 1419.92 457.426 1417.79 456.277Z" fill="#B76E00"/>
<path d="M1468.02 456.744C1460.68 458.659 1462.34 455.665 1458.43 458.508C1454.53 461.351 1449.91 462.211 1453.82 462.787C1457.72 463.36 1455.17 461.732 1460.17 460.68C1465.18 459.628 1470.32 460.163 1472.45 458.508C1474.58 456.853 1472.1 455.678 1468.02 456.744Z" fill="#B76E00"/>
<path d="M1438.38 460.201C1437.8 459.217 1438.02 458.153 1434.83 458.507C1431.63 458.862 1428.79 459.23 1431.99 459.62C1435.18 460.009 1433.58 460.296 1435.71 461.159C1437.84 462.019 1439.04 461.343 1438.38 460.201Z" fill="#B76E00"/>
<path d="M1438.2 360.954C1436.08 361.383 1439.49 361.336 1434.23 362.677C1428.97 364.016 1428.44 364.495 1430.21 366.697C1431.99 368.898 1427.73 371.577 1432.87 370.716C1438.02 369.856 1438.73 369.28 1438.2 366.984C1437.66 364.687 1441.04 360.381 1438.2 360.954Z" fill="#B76E00"/>
<path d="M1436.78 381.34C1435.27 383.044 1439.08 382.966 1435.71 385.552C1432.34 388.135 1429.68 389.666 1432.69 391.389C1435.71 393.112 1438.38 394.451 1438.55 396.749C1438.73 399.046 1441.04 399.525 1442.46 400.29C1443.88 401.056 1444.05 398.088 1446.54 396.461C1449.03 394.835 1451.68 396.557 1453.99 397.897C1456.3 399.236 1460.38 395.792 1456.84 393.877C1453.28 391.962 1446.54 394.259 1446.01 391.676C1445.47 389.092 1448.14 389.571 1448.14 385.741C1448.14 381.914 1440.33 377.321 1436.78 381.34Z" fill="#B76E00"/>
<path d="M1434.23 398.854C1430.64 400.213 1430.21 399.525 1430.39 402.49C1430.57 405.457 1427.37 406.606 1425.95 407.85C1424.53 409.094 1424.53 409.955 1427.55 408.903C1430.57 407.85 1437.31 406.218 1435.54 404.116C1433.76 402.013 1438.02 401.151 1437.66 399.62C1437.31 398.088 1435.5 398.373 1434.23 398.854Z" fill="#B76E00"/>
<path d="M1446.72 415.602C1446.01 413.211 1445.85 412.443 1448.86 411.009C1451.86 409.573 1453.64 408.234 1451.33 405.935C1449.03 403.639 1451.13 399.581 1452.39 400.414C1453.64 401.247 1452.75 402.013 1454.35 404.596C1455.95 407.18 1453.46 408.317 1456.48 409.375C1459.49 410.434 1462.75 408.999 1462.19 407.085C1461.63 405.17 1463.76 402.49 1466.06 404.309C1468.37 406.127 1467.01 409.286 1469.91 410.912C1472.81 412.54 1469.97 415.22 1467.13 416.368C1464.29 417.517 1462.34 419.719 1459.67 417.42C1457.01 415.124 1458.43 412.54 1455.06 412.348C1451.68 412.156 1448.85 413.879 1450.27 415.029C1451.68 416.176 1450.46 417.996 1448.86 417.996C1447.25 417.996 1446.72 415.602 1446.72 415.602Z" fill="#B76E00"/>
<path d="M1513.1 474.461C1516.55 472.682 1522.68 470.826 1519.49 467.953C1516.29 465.083 1510.97 469.295 1508.13 467.953C1505.29 466.614 1502.8 467.572 1496.06 468.527C1489.31 469.484 1483.28 471.017 1481.5 474.461C1479.73 477.907 1475.25 474.461 1473.23 472.165C1471.21 469.868 1458.43 475.037 1454.53 479.246C1450.62 483.457 1444.23 480.969 1443.52 483.649C1442.81 486.33 1440.53 489.583 1434.57 489.775C1428.61 489.967 1406.96 493.987 1401.28 497.049C1395.6 500.111 1395.6 509.107 1398.09 515.041C1400.57 520.975 1404.47 527.101 1399.15 529.971C1393.83 532.843 1392.05 535.332 1401.63 536.097C1411.22 536.863 1415.48 531.121 1426.48 533.033C1437.49 534.948 1442.1 531.121 1449.91 529.014C1457.72 526.909 1462.69 525.186 1475.83 526.909C1488.96 528.632 1482.92 537.437 1491.09 538.202C1499.25 538.968 1502.09 532.46 1506.35 533.609C1510.61 534.756 1499.96 539.351 1503.51 541.264C1507.06 543.179 1507.77 540.882 1509.19 543.561C1510.61 546.241 1512 552.175 1520.36 554.472C1528.71 556.77 1529.07 551.409 1533.33 553.132C1537.59 554.855 1537.24 558.109 1540.78 557.725C1544.33 557.344 1541.14 552.559 1550.37 553.132C1559.6 553.706 1556.76 552.367 1559.24 546.049C1561.73 539.733 1578.77 536.671 1583.38 529.971C1587.99 523.272 1590.13 508.917 1586.57 504.706C1583.03 500.494 1580.9 498.963 1575.93 494.176C1570.96 489.392 1567.76 493.221 1563.5 487.095C1559.24 480.969 1559.95 476.184 1555.34 472.93C1550.72 469.676 1551.08 464.318 1547.53 464.318C1543.98 464.318 1543.62 481.545 1538.3 483.649C1532.97 485.756 1532.27 481.353 1526.94 480.203C1521.62 479.056 1507.65 477.271 1513.1 474.461Z" fill="#B76E00"/>
<path d="M1539.96 566.468C1539.96 566.468 1533.33 567.743 1533.09 566.468C1532.86 565.191 1527.41 562.512 1526.23 564.297C1525.05 566.084 1528.6 567.233 1526.23 570.04C1523.86 572.848 1524.1 576.675 1527.65 575.4C1531.2 574.123 1538.77 573.869 1539.01 571.954C1539.25 570.04 1543.69 565.954 1539.96 566.468Z" fill="#B76E00"/>
<path d="M1661.59 575.652C1661.59 575.652 1658.28 570.295 1654.02 572.082C1649.76 573.869 1648.34 579.228 1642.66 581.014C1636.98 582.801 1631.3 583.057 1626.57 586.885C1621.84 590.712 1614.74 590.968 1618.05 595.051C1621.36 599.135 1625.62 598.113 1634.14 593.264C1642.66 588.416 1645.03 586.507 1654.97 584.654C1664.91 582.801 1664.12 578.363 1661.59 575.652Z" fill="#B76E00"/>
<path d="M1672.95 575.652C1671.75 573.968 1675.32 573.142 1672.95 569.677C1670.58 566.212 1665.38 566.041 1667.27 563.702C1669.16 561.363 1671.3 564.359 1673.55 557.756C1675.79 551.154 1668.46 546.816 1673.55 545.283C1678.63 543.752 1676.74 550.134 1679.11 552.94C1681.47 555.749 1686.2 552.875 1685.73 557.756C1685.26 562.638 1692.83 556.039 1694.73 560.359C1696.62 564.681 1684.31 564.722 1682.89 569.677C1681.47 574.634 1675.32 578.968 1672.95 575.652Z" fill="#B76E00"/>
<path d="M998.726 228.36H1118.97C1122.31 228.36 1125 229.816 1125 231.612V268.089H992.695V231.612C992.695 229.816 995.394 228.36 998.726 228.36Z" fill="#F79035"/>
<path d="M952.392 228.36H1064.26C1067.59 228.36 1070.29 229.816 1070.29 231.612V268.089H946.358V231.612C946.358 229.816 949.06 228.36 952.392 228.36Z" fill="#F9E122"/>
<path d="M1063.12 232.225V264.225H953.528V232.225H1063.12Z" fill="#FAB82A"/>
<path d="M1119.6 232.225V264.225H1077.25V232.225H1119.6Z" fill="#FAB82A"/>
<path d="M961.999 232.225H953.528V264.225H961.999V232.225Z" fill="#F79035"/>
<path d="M978.937 232.225H970.47V264.225H978.937V232.225Z" fill="#F79035"/>
<path d="M995.556 232.225H987.085V264.225H995.556V232.225Z" fill="#F79035"/>
<path d="M1012.5 232.225H1004.03V264.225H1012.5V232.225Z" fill="#F79035"/>
<path d="M1029.24 232.225H1020.77V264.225H1029.24V232.225Z" fill="#F79035"/>
<path d="M1046.18 232.225H1037.71V264.225H1046.18V232.225Z" fill="#F79035"/>
<path d="M1063.12 232.225H1054.65V264.225H1063.12V232.225Z" fill="#F79035"/>
<path d="M1085.72 232.225H1077.25V264.225H1085.72V232.225Z" fill="#F46B31"/>
<path d="M1102.66 232.225H1094.19V264.225H1102.66V232.225Z" fill="#F46B31"/>
<path d="M1119.6 232.225H1111.13V264.225H1119.6V232.225Z" fill="#F46B31"/>
<path d="M1128.53 228.36H1248.77C1252.11 228.36 1254.81 229.816 1254.81 231.612V268.089H1122.5V231.612C1122.5 229.816 1125.2 228.36 1128.53 228.36Z" fill="#CA233C"/>
<path d="M1082.2 228.36H1194.06C1197.39 228.36 1200.09 229.816 1200.09 231.612V268.089H1076.16V231.612C1076.16 229.816 1078.86 228.36 1082.2 228.36Z" fill="#F35A83"/>
<path d="M1192.92 232.225V264.225H1083.33V232.225H1192.92Z" fill="#F03760"/>
<path d="M1249.4 232.225V264.225H1207.05V232.225H1249.4Z" fill="#F03760"/>
<path d="M1091.8 232.225H1083.33V264.225H1091.8V232.225Z" fill="#CA233C"/>
<path d="M1108.74 232.225H1100.27V264.225H1108.74V232.225Z" fill="#CA233C"/>
<path d="M1125.36 232.225H1116.89V264.225H1125.36V232.225Z" fill="#CA233C"/>
<path d="M1142.3 232.225H1133.83V264.225H1142.3V232.225Z" fill="#CA233C"/>
<path d="M1159.04 232.225H1150.57V264.225H1159.04V232.225Z" fill="#CA233C"/>
<path d="M1175.99 232.225H1167.51V264.225H1175.99V232.225Z" fill="#CA233C"/>
<path d="M1192.92 232.225H1184.46V264.225H1192.92V232.225Z" fill="#CA233C"/>
<path d="M1215.52 232.225H1207.05V264.225H1215.52V232.225Z" fill="#90182C"/>
<path d="M1232.47 232.225H1223.99V264.225H1232.47V232.225Z" fill="#90182C"/>
<path d="M1249.4 232.225H1240.93V264.225H1249.4V232.225Z" fill="#90182C"/>
<path d="M1046.37 188.629H1166.62C1169.95 188.629 1172.65 190.087 1172.65 191.883V228.36H1040.34V191.883C1040.34 190.087 1043.04 188.629 1046.37 188.629Z" fill="#F79035"/>
<path d="M1000.04 188.629H1111.91C1115.24 188.629 1117.94 190.087 1117.94 191.883V228.36H994.007V191.883C994.007 190.087 996.71 188.629 1000.04 188.629Z" fill="#F9E122"/>
<path d="M1110.77 192.496V224.494H1001.18V192.496H1110.77Z" fill="#FAB82A"/>
<path d="M1167.25 192.496V224.494H1124.9V192.496H1167.25Z" fill="#FAB82A"/>
<path d="M1009.65 192.496H1001.18V224.494H1009.65V192.496Z" fill="#F79035"/>
<path d="M1026.59 192.496H1018.12V224.494H1026.59V192.496Z" fill="#F79035"/>
<path d="M1043.21 192.496H1034.73V224.494H1043.21V192.496Z" fill="#F79035"/>
<path d="M1060.15 192.496H1051.68V224.494H1060.15V192.496Z" fill="#F79035"/>
<path d="M1076.89 192.496H1068.42V224.494H1076.89V192.496Z" fill="#F79035"/>
<path d="M1093.83 192.496H1085.36V224.494H1093.83V192.496Z" fill="#F79035"/>
<path d="M1110.77 192.496H1102.3V224.494H1110.77V192.496Z" fill="#F79035"/>
<path d="M1133.37 192.496H1124.9V224.494H1133.37V192.496Z" fill="#F46B31"/>
<path d="M1150.31 192.496H1141.84V224.494H1150.31V192.496Z" fill="#F46B31"/>
<path d="M1167.25 192.496H1158.78V224.494H1167.25V192.496Z" fill="#F46B31"/>
<path d="M368.723 441.18H488.967C492.299 441.18 495.002 442.637 495.002 444.434V480.911H362.689V444.434C362.689 442.637 365.391 441.18 368.723 441.18Z" fill="#F79035"/>
<path d="M322.386 441.18H434.252C437.584 441.18 440.287 442.637 440.287 444.434V480.911H316.354V444.434C316.354 442.637 319.054 441.18 322.386 441.18Z" fill="#F9E122"/>
<path d="M433.117 445.046V477.045H323.523V445.046H433.117Z" fill="#FAB82A"/>
<path d="M489.596 445.046V477.045H447.245V445.046H489.596Z" fill="#FAB82A"/>
<path d="M331.993 445.046H323.523V477.045H331.993V445.046Z" fill="#F79035"/>
<path d="M348.934 445.046H340.464V477.045H348.934V445.046Z" fill="#F79035"/>
<path d="M365.553 445.046H357.081V477.045H365.553V445.046Z" fill="#F79035"/>
<path d="M382.491 445.046H374.024V477.045H382.491V445.046Z" fill="#F79035"/>
<path d="M399.236 445.046H390.765V477.045H399.236V445.046Z" fill="#F79035"/>
<path d="M416.174 445.046H407.707V477.045H416.174V445.046Z" fill="#F79035"/>
<path d="M433.117 445.046H424.645V477.045H433.117V445.046Z" fill="#F79035"/>
<path d="M455.716 445.046H447.245V477.045H455.716V445.046Z" fill="#F46B31"/>
<path d="M472.654 445.046H464.183V477.045H472.654V445.046Z" fill="#F46B31"/>
<path d="M489.596 445.046H481.125V477.045H489.596V445.046Z" fill="#F46B31"/>
<path d="M437.526 401.451H557.771C561.102 401.451 563.802 402.906 563.802 404.705V441.18H431.492V404.705C431.492 402.906 434.195 401.451 437.526 401.451Z" fill="#CA233C"/>
<path d="M391.189 401.451H503.056C506.387 401.451 509.09 402.906 509.09 404.705V441.18H385.155V404.705C385.155 402.906 387.857 401.451 391.189 401.451Z" fill="#F35A83"/>
<path d="M501.92 405.317V437.316H392.325V405.317H501.92Z" fill="#F03760"/>
<path d="M558.4 405.317V437.316H516.044V405.317H558.4Z" fill="#F03760"/>
<path d="M400.796 405.317H392.325V437.316H400.796V405.317Z" fill="#CA233C"/>
<path d="M417.738 405.317H409.267V437.316H417.738V405.317Z" fill="#CA233C"/>
<path d="M434.353 405.317H425.885V437.316H434.353V405.317Z" fill="#CA233C"/>
<path d="M451.295 405.317H442.824V437.316H451.295V405.317Z" fill="#CA233C"/>
<path d="M468.039 405.317H459.568V437.316H468.039V405.317Z" fill="#CA233C"/>
<path d="M484.978 405.317H476.507V437.316H484.978V405.317Z" fill="#CA233C"/>
<path d="M501.92 405.317H493.449V437.316H501.92V405.317Z" fill="#CA233C"/>
<path d="M524.516 405.317H516.044V437.316H524.516V405.317Z" fill="#90182C"/>
<path d="M541.458 405.317H532.987V437.316H541.458V405.317Z" fill="#90182C"/>
<path d="M558.4 405.317H549.929V437.316H558.4V405.317Z" fill="#90182C"/>
<path d="M499.613 441.18H619.857C623.189 441.18 625.892 442.637 625.892 444.434V480.911H493.578V444.434C493.578 442.637 496.281 441.18 499.613 441.18Z" fill="#CA233C"/>
<path d="M453.275 441.18H565.142C568.474 441.18 571.176 442.637 571.176 444.434V480.911H447.245V444.434C447.245 442.637 449.944 441.18 453.275 441.18Z" fill="#F35A83"/>
<path d="M564.006 445.046V477.045H454.411V445.046H564.006Z" fill="#F03760"/>
<path d="M620.486 445.046V477.045H578.134V445.046H620.486Z" fill="#F03760"/>
<path d="M462.882 445.046H454.411V477.045H462.882V445.046Z" fill="#CA233C"/>
<path d="M479.824 445.046H471.353V477.045H479.824V445.046Z" fill="#CA233C"/>
<path d="M496.443 445.046H487.972V477.045H496.443V445.046Z" fill="#CA233C"/>
<path d="M513.381 445.046H504.914V477.045H513.381V445.046Z" fill="#CA233C"/>
<path d="M530.126 445.046H521.655V477.045H530.126V445.046Z" fill="#CA233C"/>
<path d="M547.064 445.046H538.597V477.045H547.064V445.046Z" fill="#CA233C"/>
<path d="M564.006 445.046H555.535V477.045H564.006V445.046Z" fill="#CA233C"/>
<path d="M586.605 445.046H578.134V477.045H586.605V445.046Z" fill="#90182C"/>
<path d="M603.544 445.046H595.073V477.045H603.544V445.046Z" fill="#90182C"/>
<path d="M620.486 445.046H612.015V477.045H620.486V445.046Z" fill="#90182C"/>
<path d="M1288.34 302.08H1408.59C1411.92 302.08 1414.62 303.537 1414.62 305.334V341.811H1282.31V305.334C1282.31 303.537 1285.01 302.08 1288.34 302.08Z" fill="#189091"/>
<path d="M1242 302.08H1353.87C1357.2 302.08 1359.9 303.537 1359.9 305.334V341.811H1235.97V305.334C1235.97 303.537 1238.67 302.08 1242 302.08Z" fill="#78D1C3"/>
<path d="M1352.73 305.946V337.945H1243.14V305.946H1352.73Z" fill="#1FB399"/>
<path d="M1409.21 305.946V337.945H1366.86V305.946H1409.21Z" fill="#1FB399"/>
<path d="M1251.61 305.946H1243.14V337.945H1251.61V305.946Z" fill="#189091"/>
<path d="M1268.55 305.946H1260.08V337.945H1268.55V305.946Z" fill="#189091"/>
<path d="M1285.17 305.946H1276.7V337.945H1285.17V305.946Z" fill="#189091"/>
<path d="M1302.11 305.946H1293.64V337.945H1302.11V305.946Z" fill="#189091"/>
<path d="M1318.85 305.946H1310.38V337.945H1318.85V305.946Z" fill="#189091"/>
<path d="M1335.8 305.946H1327.33V337.945H1335.8V305.946Z" fill="#189091"/>
<path d="M1352.73 305.946H1344.26V337.945H1352.73V305.946Z" fill="#189091"/>
<path d="M1375.33 305.946H1366.86V337.945H1375.33V305.946Z" fill="#116569"/>
<path d="M1392.27 305.946H1383.8V337.945H1392.27V305.946Z" fill="#116569"/>
<path d="M1409.21 305.946H1400.74V337.945H1409.21V305.946Z" fill="#116569"/>
<path d="M835.396 369.635H955.641C958.973 369.635 961.675 371.09 961.675 372.887V409.364H829.366V372.887C829.366 371.09 832.065 369.635 835.396 369.635Z" fill="#CA233C"/>
<path d="M789.063 369.635H900.926C904.261 369.635 906.96 371.09 906.96 372.887V409.364H783.028V372.887C783.028 371.09 785.727 369.635 789.063 369.635Z" fill="#F35A83"/>
<path d="M899.79 373.499V405.5H790.198V373.499H899.79Z" fill="#F03760"/>
<path d="M956.27 373.499V405.5H913.918V373.499H956.27Z" fill="#F03760"/>
<path d="M798.666 373.499H790.198V405.5H798.666V373.499Z" fill="#CA233C"/>
<path d="M815.608 373.499H807.137V405.5H815.608V373.499Z" fill="#CA233C"/>
<path d="M832.227 373.499H823.756V405.5H832.227V373.499Z" fill="#CA233C"/>
<path d="M849.169 373.499H840.698V405.5H849.169V373.499Z" fill="#CA233C"/>
<path d="M865.91 373.499H857.438V405.5H865.91V373.499Z" fill="#CA233C"/>
<path d="M882.852 373.499H874.381V405.5H882.852V373.499Z" fill="#CA233C"/>
<path d="M899.79 373.499H891.323V405.5H899.79V373.499Z" fill="#CA233C"/>
<path d="M922.389 373.499H913.918V405.5H922.389V373.499Z" fill="#90182C"/>
<path d="M939.328 373.499H930.86V405.5H939.328V373.499Z" fill="#90182C"/>
<path d="M956.27 373.499H947.799V405.5H956.27V373.499Z" fill="#90182C"/>
<path d="M844.288 409.364H964.533C967.864 409.364 970.567 410.821 970.567 412.618V449.095H838.254V412.618C838.254 410.821 840.956 409.364 844.288 409.364Z" fill="#189091"/>
<path d="M797.951 409.364H909.818C913.149 409.364 915.852 410.821 915.852 412.618V449.095H791.92V412.618C791.92 410.821 794.619 409.364 797.951 409.364Z" fill="#78D1C3"/>
<path d="M908.682 413.23V445.228H799.09V413.23H908.682Z" fill="#1FB399"/>
<path d="M965.161 413.23V445.228H922.81V413.23H965.161Z" fill="#1FB399"/>
<path d="M807.557 413.23H799.09V445.228H807.557V413.23Z" fill="#189091"/>
<path d="M824.5 413.23H816.028V445.228H824.5V413.23Z" fill="#189091"/>
<path d="M841.118 413.23H832.647V445.228H841.118V413.23Z" fill="#189091"/>
<path d="M858.057 413.23H849.589V445.228H858.057V413.23Z" fill="#189091"/>
<path d="M874.801 413.23H866.33V445.228H874.801V413.23Z" fill="#189091"/>
<path d="M891.743 413.23H883.272V445.228H891.743V413.23Z" fill="#189091"/>
<path d="M908.682 413.23H900.211V445.228H908.682V413.23Z" fill="#189091"/>
<path d="M931.281 413.23H922.81V445.228H931.281V413.23Z" fill="#116569"/>
<path d="M948.219 413.23H939.748V445.228H948.219V413.23Z" fill="#116569"/>
<path d="M965.161 413.23H956.69V445.228H965.161V413.23Z" fill="#116569"/>
<path d="M967.821 218.585C967.821 218.585 935.569 200.132 877.339 184.699C819.112 169.265 755.222 168.744 755.222 168.744L764.052 160.542L704.165 174.337L751.074 191.073V179.331C751.074 179.331 865.349 182.35 967.821 218.585Z" fill="#FF6D03"/>
<path d="M1311.98 349.102C1311.98 349.102 1311.23 394.424 1328.24 425.752C1345.24 457.081 1375.98 486.035 1375.98 486.035H1343.83L1410.84 502.403L1415.56 474.587L1398.44 479.917C1398.44 479.917 1367.03 456.077 1343.83 422.457C1320.62 388.835 1311.98 349.102 1311.98 349.102Z" fill="#FF6D03"/>
<path d="M581.545 405.248C581.545 405.248 601.459 371.734 577.886 341.974C554.317 312.214 499.99 301.156 499.99 301.156L518.744 295.316H442.687C442.687 295.316 481.625 329.15 481.772 328.797C481.923 328.447 486.426 314.532 486.426 314.532C486.426 314.532 586.555 324.357 581.545 405.248Z" fill="#FF6D03"/>
<path d="M994.007 398.47C994.007 398.47 1063.71 387.592 1100.92 369.247C1138.12 350.904 1142.76 340.997 1142.76 340.997L1116.21 340.695L1176.93 320.268L1182.19 354.505L1162.67 345.406C1162.67 345.406 1130.71 392.306 994.007 398.47Z" fill="#FF6D03"/>
<path d="M258.455 215.589C258.455 215.589 253.411 254.624 272.549 279.774C291.688 304.923 307.343 310.679 307.343 310.679L317.005 297.34L331.674 335.111L270.25 325.997L292.811 319.243C292.811 319.243 222.147 286.921 258.455 215.589Z" fill="#FF6D03"/>
<path d="M1602.68 188.463C1602.68 188.463 1607.73 227.498 1588.59 252.647C1569.45 277.797 1553.79 283.553 1553.79 283.553L1544.13 270.215L1529.46 307.987L1590.89 298.871L1568.33 292.119C1568.33 292.119 1638.99 259.797 1602.68 188.463Z" fill="#FF6D03"/>
<path d="M242.174 169.699H362.419C365.751 169.699 368.453 171.157 368.453 172.953V209.43H236.141V172.953C236.141 171.157 238.842 169.699 242.174 169.699Z" fill="#F79035"/>
<path d="M195.838 169.699H307.705C311.037 169.699 313.738 171.157 313.738 172.953V209.43H189.805V172.953C189.805 171.157 192.506 169.699 195.838 169.699Z" fill="#F9E122"/>
<path d="M306.568 173.565V205.564H196.975V173.565H306.568Z" fill="#FAB82A"/>
<path d="M363.048 173.565V205.564H320.696V173.565H363.048Z" fill="#FAB82A"/>
<path d="M205.445 173.565H196.975V205.564H205.445V173.565Z" fill="#F79035"/>
<path d="M222.386 173.565H213.915V205.564H222.386V173.565Z" fill="#F79035"/>
<path d="M239.004 173.565H230.533V205.564H239.004V173.565Z" fill="#F79035"/>
<path d="M255.945 173.565H247.473V205.564H255.945V173.565Z" fill="#F79035"/>
<path d="M272.686 173.565H264.216V205.564H272.686V173.565Z" fill="#F79035"/>
<path d="M289.627 173.565H281.158V205.564H289.627V173.565Z" fill="#F79035"/>
<path d="M306.568 173.565H298.099V205.564H306.568V173.565Z" fill="#F79035"/>
<path d="M329.165 173.565H320.696V205.564H329.165V173.565Z" fill="#F46B31"/>
<path d="M346.107 173.565H337.637V205.564H346.107V173.565Z" fill="#F46B31"/>
<path d="M363.048 173.565H354.578V205.564H363.048V173.565Z" fill="#F46B31"/>
<path d="M1454.62 156.689H1574.87C1578.2 156.689 1580.9 158.145 1580.9 159.943V196.42H1448.59V159.943C1448.59 158.145 1451.29 156.689 1454.62 156.689Z" fill="#CA233C"/>
<path d="M1408.28 156.689H1520.15C1523.49 156.689 1526.18 158.145 1526.18 159.943V196.42H1402.25V159.943C1402.25 158.145 1404.95 156.689 1408.28 156.689Z" fill="#F35A83"/>
<path d="M1519.01 160.556V192.554H1409.42V160.556H1519.01Z" fill="#F03760"/>
<path d="M1575.49 160.556V192.554H1533.14V160.556H1575.49Z" fill="#F03760"/>
<path d="M1417.89 160.556H1409.42V192.554H1417.89V160.556Z" fill="#CA233C"/>
<path d="M1434.83 160.556H1426.36V192.554H1434.83V160.556Z" fill="#CA233C"/>
<path d="M1451.45 160.556H1442.98V192.554H1451.45V160.556Z" fill="#CA233C"/>
<path d="M1468.39 160.556H1459.92V192.554H1468.39V160.556Z" fill="#CA233C"/>
<path d="M1485.13 160.556H1476.66V192.554H1485.13V160.556Z" fill="#CA233C"/>
<path d="M1502.08 160.556H1493.61V192.554H1502.08V160.556Z" fill="#CA233C"/>
<path d="M1519.01 160.556H1510.54V192.554H1519.01V160.556Z" fill="#CA233C"/>
<path d="M1541.61 160.556H1533.14V192.554H1541.61V160.556Z" fill="#90182C"/>
<path d="M1558.55 160.556H1550.08V192.554H1558.55V160.556Z" fill="#90182C"/>
<path d="M1575.49 160.556H1567.02V192.554H1575.49V160.556Z" fill="#90182C"/>
<path d="M586.605 497.399C586.605 497.399 641.781 524.828 729.514 528.057C817.243 531.287 878.614 516.859 878.614 516.859L874.801 533.636L927.043 494.045L853.823 492.031L872.623 502.432C872.623 502.432 748.562 541.016 586.605 497.399Z" fill="#FF6D03"/>
<path d="M619.94 803.415L575.863 833.778C568.858 838.604 571.719 845.747 581.93 848.435C595.404 851.98 614.747 855.04 634.539 851.294C670.752 844.437 714.117 819.834 714.117 819.834L619.94 803.415Z" fill="#EA9792"/>
<path d="M1308.29 650.298L1796.98 586.483V771.487L1308.29 835.302V650.298Z" fill="#EF3449"/>
<path d="M1237.95 670.459L1308.29 662.443V825.958L1237.95 833.971V670.459Z" fill="white"/>
<path d="M1237.95 670.459L1145.58 681.013L974.093 689.308C959.095 690.033 944.323 691.752 930.106 694.426L832.528 712.783L893.964 741.436L651.251 830.375L710.929 859.929L824.42 824.596L734.34 879.098L859.329 906.502L1032.58 877.23L1162.98 828.731L1237.95 811.824V670.459Z" fill="#EA9792"/>
<path d="M935.141 758.483C935.141 758.483 991.552 774.154 1035.65 776.916C1079.75 779.677 1116.56 776.326 1116.56 776.326C1116.56 776.326 1035.46 795.057 971.681 779.481C907.909 763.905 935.141 758.483 935.141 758.483Z" fill="#A56E6C"/>
<path d="M488.673 650.298L0 587.635V772.638L488.673 835.302V650.298Z" fill="#8BC5ED"/>
<path d="M559.004 670.459L488.673 662.443V825.958L559.004 833.971V670.459Z" fill="white"/>
<path d="M559.003 670.459L651.376 681.013L825.854 682.66C841.56 682.808 857.18 683.93 872.407 686.002L970.782 699.389L893.964 741.436L1166.86 835.507C1178.32 839.458 1179.61 848.218 1169.45 853.096C1145.62 864.539 1110.94 866.561 1083.12 858.127L972.536 824.596L1041.68 866.431C1052 872.674 1047.97 882.527 1033.76 885.854L965.373 901.862C931.55 909.778 894.263 912.369 857.819 909.335L804.427 904.887C783.032 903.106 763.233 897.724 747.847 889.513L633.981 828.731L559.003 811.824V670.459Z" fill="#CD6466"/>
<path d="M972.22 900.259L988.213 896.515L883.678 846.551L972.22 900.259Z" fill="#93494A"/>
<path d="M872.131 910.226C881.339 910.622 890.561 910.66 899.736 910.352L827.792 862.532L872.131 910.226Z" fill="#93494A"/>
<path d="M930.105 694.426L824.654 717.143L754.79 760.196C749.162 763.665 752.199 769.091 760.436 770.328C778.615 773.057 810.066 775.248 846.603 766.975C904.358 753.894 1016.41 696.899 1016.41 696.899L930.105 694.426Z" fill="#EA9792"/>
<path d="M745.331 895.125C738.168 892.453 738.103 886.774 745.065 883.951C755.94 879.536 773.824 873.788 798.004 871.03C822.961 868.183 840.831 872.75 851.278 876.965C857.708 879.559 857.902 884.683 851.551 887.334C838.865 892.633 816.923 900.852 797.462 903.453C778.967 905.922 758.237 899.939 745.331 895.125Z" fill="#EA9792"/>
<path d="M687.356 869.269C680.355 865.802 681.451 859.71 689.448 856.941C701.682 852.7 721.319 847.137 746.269 844.291C772.771 841.268 791.532 846.346 802.17 850.796C808.298 853.357 808.481 858.289 802.533 860.972C788.333 867.372 761.687 878.362 740.45 881.199C721.154 883.776 700.158 875.606 687.356 869.269Z" fill="#EA9792"/>
<path d="M826.282 915.922C819.694 914.213 817.922 909.546 822.861 906.639C831.461 901.579 846.739 894.288 869.389 889.457C890.514 884.953 907.683 887.152 918.713 889.965C926.433 891.934 928.255 897.447 922.425 900.813C912.028 906.815 894.888 915.666 878.345 919.554C861.377 923.542 839.558 919.362 826.282 915.922Z" fill="#EA9792"/>
<path d="M266.599 367.299H190.131C185.151 367.299 181.115 369.476 181.115 372.16V421.315H275.615V372.16C275.615 369.476 271.579 367.299 266.599 367.299Z" fill="#CD6466"/>
<path d="M188.636 367.299H116.064C111.084 367.299 107.048 369.476 107.048 372.16V421.315H197.652V372.16C197.652 369.476 193.616 367.299 188.636 367.299Z" fill="#EA9792"/>
<path d="M168.404 375.714H136.297V367.3H168.404V375.714Z" fill="#FAB82A"/>
<path d="M251.593 375.714H219.484V367.3H251.593V375.714Z" fill="#FAB82A"/>
<path d="M163.967 403.848H116.41V415.653H163.967V403.848Z" fill="white"/>
<path d="M189.751 395.29H160.805V397.881H189.751V395.29Z" fill="#FAB82A"/>
<path d="M189.751 390.666H160.805V393.257H189.751V390.666Z" fill="#FAB82A"/>
<path d="M1664.47 502.403H1588C1583.02 502.403 1578.99 504.58 1578.99 507.264V556.421H1673.48V507.264C1673.48 504.58 1669.45 502.403 1664.47 502.403Z" fill="#CD6466"/>
<path d="M1586.51 502.403H1513.94C1508.96 502.403 1504.92 504.58 1504.92 507.264V556.421H1595.52V507.264C1595.52 504.58 1591.49 502.403 1586.51 502.403Z" fill="#EA9792"/>
<path d="M1566.28 510.818H1534.17V502.403H1566.28V510.818Z" fill="#FAB82A"/>
<path d="M1649.47 510.818H1617.36V502.403H1649.47V510.818Z" fill="#FAB82A"/>
<path d="M1561.84 538.954H1514.28V550.758H1561.84V538.954Z" fill="white"/>
<path d="M1587.62 530.394H1558.68V532.985H1587.62V530.394Z" fill="#FAB82A"/>
<path d="M1587.62 525.772H1558.68V528.361H1587.62V525.772Z" fill="#FAB82A"/>
<path d="M779.431 87.9718H702.965C697.983 87.9718 693.947 90.1481 693.947 92.8342V141.99H788.448V92.8342C788.448 90.1481 784.412 87.9718 779.431 87.9718Z" fill="#CD6466"/>
<path d="M701.47 87.9718H628.896C623.918 87.9718 619.882 90.1481 619.882 92.8342V141.99H710.483V92.8342C710.483 90.1481 706.447 87.9718 701.47 87.9718Z" fill="#EA9792"/>
<path d="M681.235 96.3884H649.13V87.9718H681.235V96.3884Z" fill="#FAB82A"/>
<path d="M764.426 96.3884H732.317V87.9718H764.426V96.3884Z" fill="#FAB82A"/>
<path d="M676.801 124.522H629.245V136.327H676.801V124.522Z" fill="white"/>
<path d="M702.584 115.964H673.638V118.553H702.584V115.964Z" fill="#FAB82A"/>
<path d="M702.584 111.34H673.638V113.929H702.584V111.34Z" fill="#FAB82A"/>
<path d="M1377.06 557.753C1370.96 537.272 1335.23 523.334 1297.25 526.621C1259.27 529.907 1233.42 549.173 1239.52 569.652C1245.61 590.133 1281.34 604.071 1319.32 600.784C1357.3 597.497 1383.15 578.231 1377.06 557.753Z" fill="#F9E122"/>
<path d="M1360.57 559.177C1355.94 543.607 1328.77 533.008 1299.9 535.508C1271.02 538.006 1251.37 552.656 1256 568.227C1260.63 583.797 1287.8 594.396 1316.68 591.896C1345.55 589.398 1365.21 574.749 1360.57 559.177Z" fill="#F79035"/>
<path d="M1319.45 567.694C1319.03 566.284 1316.63 565.704 1313.24 565.379L1314.89 570.943C1318.5 570.175 1319.84 568.985 1319.45 567.694ZM1303.69 559.09L1301.99 553.365C1298.17 554.191 1296.95 555.497 1297.34 556.828C1297.76 558.239 1300.24 558.811 1303.69 559.09ZM1316.48 576.266L1317.22 578.764C1317.55 579.879 1316.15 580.925 1314.08 581.103C1312.02 581.284 1310.07 580.526 1309.74 579.412L1309.04 577.034C1303.72 577.317 1298.4 577.078 1294.11 576.419C1291.44 576.01 1289.92 574.505 1290.64 573.063C1291.37 571.598 1294.17 570.731 1296.88 571.144C1300.18 571.644 1303.87 571.873 1307.46 571.753L1305.46 565.018C1296.83 564.646 1287.12 563.958 1285.4 558.191C1284.13 553.917 1288.8 549.751 1300.4 548L1299.66 545.541C1299.33 544.429 1300.74 543.38 1302.8 543.202C1304.87 543.024 1306.81 543.781 1307.14 544.896L1307.85 547.274C1311.59 547.113 1315.35 547.204 1318.78 547.588C1321.57 547.9 1323.35 549.384 1322.7 550.884L1322.7 550.896C1322.06 552.38 1319.32 553.237 1316.55 552.927C1314.11 552.654 1311.72 552.547 1309.43 552.596L1311.48 559.452C1320.09 559.782 1329.65 560.483 1331.35 566.167C1332.59 570.363 1327.99 574.483 1316.48 576.266Z" fill="#F9E122"/>
<path d="M209.836 292.795C209.836 272.055 178.654 255.24 140.189 255.24C101.723 255.24 70.5405 272.055 70.5405 292.795C70.5405 313.537 101.723 330.352 140.189 330.352C178.654 330.352 209.836 313.537 209.836 292.795Z" fill="#F9E122"/>
<path d="M193.145 292.795C193.145 277.026 169.436 264.241 140.189 264.241C110.942 264.241 87.2332 277.026 87.2332 292.795C87.2332 308.566 110.942 321.351 140.189 321.351C169.436 321.351 193.145 308.566 193.145 292.795Z" fill="#F79035"/>
<path d="M150.041 297.69C150.041 296.262 147.844 295.487 144.587 294.874V300.508C148.375 300.061 150.041 298.998 150.041 297.69ZM137.013 287.849V282.051C133.002 282.541 131.408 283.725 131.408 285.072C131.408 286.502 133.683 287.277 137.013 287.849ZM144.587 305.902V308.431C144.587 309.559 142.892 310.473 140.801 310.473C138.709 310.473 137.013 309.559 137.013 308.431V306.022C131.667 305.847 126.475 305.154 122.425 304.134C119.93 303.504 118.873 301.898 120.004 300.543L120.028 300.516C121.18 299.14 124.176 298.526 126.714 299.161C129.829 299.942 133.421 300.485 137.013 300.673V293.853C128.608 292.748 119.214 291.239 119.214 285.398C119.214 281.07 125.049 277.355 137.013 276.618V274.128C137.013 273 138.709 272.085 140.801 272.085C142.892 272.085 144.587 273 144.587 274.128V276.537C148.333 276.698 152.015 277.109 155.282 277.779C157.948 278.328 159.267 279.946 158.192 281.372L158.185 281.382C157.121 282.795 154.159 283.405 151.518 282.863C149.186 282.384 146.858 282.076 144.587 281.927V288.871C152.993 289.933 162.234 291.444 162.234 297.2C162.234 301.45 156.478 305.124 144.587 305.902Z" fill="#F9E122"/>
<path d="M1664.76 376.726C1668.96 356.107 1641.38 337.555 1603.14 335.286C1564.91 333.016 1530.5 347.89 1526.29 368.509C1522.09 389.125 1549.67 407.678 1587.9 409.947C1626.14 412.216 1660.55 397.342 1664.76 376.726Z" fill="#F9E122"/>
<path d="M1648.16 375.739C1651.36 360.065 1630.39 345.958 1601.32 344.233C1572.25 342.507 1546.08 353.817 1542.89 369.493C1539.69 385.17 1560.66 399.275 1589.73 401.001C1618.8 402.726 1644.96 391.416 1648.16 375.739Z" fill="#F79035"/>
<path d="M1604.4 373.22L1612.57 373.705C1614.29 373.807 1615.54 374.645 1615.35 375.575C1615.16 376.505 1613.61 377.176 1611.88 377.075L1600.93 376.424L1600.47 378.656L1611.42 379.307C1613.15 379.41 1614.39 380.247 1614.2 381.178C1614.01 382.108 1612.46 382.778 1610.74 382.676L1599.78 382.026L1599.04 385.67C1598.67 387.486 1595.64 388.798 1592.27 388.596C1588.9 388.397 1586.47 386.763 1586.84 384.947L1587.58 381.302L1576.63 380.652C1574.91 380.55 1573.66 379.712 1573.85 378.782C1574.04 377.852 1575.59 377.181 1577.32 377.284L1588.27 377.933L1588.73 375.701L1577.78 375.05C1576.05 374.947 1574.81 374.11 1574.99 373.18C1575.19 372.249 1576.74 371.579 1578.46 371.681L1586.71 372.17L1574.79 360.073C1572.74 358.001 1575.84 355.544 1580.16 355.799C1581.94 355.904 1583.51 356.478 1584.35 357.329L1596.52 369.629L1613.63 358.976C1614.72 358.296 1616.37 357.949 1618.03 358.046C1622.08 358.288 1623.98 360.877 1621.33 362.548L1604.4 373.22Z" fill="#F9E122"/>
<path d="M839.731 289.471C846.401 269.045 821.099 249.568 783.219 245.969C745.338 242.372 709.218 256.016 702.544 276.442C695.874 296.869 721.176 316.346 759.056 319.944C796.941 323.541 833.057 309.898 839.731 289.471Z" fill="#F9E122"/>
<path d="M823.292 287.909C828.363 272.378 809.128 257.57 780.322 254.833C751.52 252.099 724.058 262.471 718.983 278.004C713.912 293.535 733.151 308.344 761.953 311.08C790.755 313.814 818.217 303.442 823.292 287.909Z" fill="#F79035"/>
<path d="M765.68 290.022L786.417 291.991C789.095 292.247 790.885 293.623 790.41 295.066C789.94 296.51 787.388 297.473 784.71 297.22L749.205 293.847C746.528 293.594 744.738 292.218 745.209 290.774C745.683 289.33 748.235 288.365 750.912 288.619L753.522 288.867L755.782 281.948L751.94 281.584C749.942 281.394 748.609 280.367 748.961 279.289C749.313 278.212 751.218 277.493 753.216 277.683L757.058 278.047L757.399 277.002C759.736 269.843 770.047 266.303 785.411 267.762C789.102 268.111 792.286 268.657 795.011 269.38C797.764 270.113 798.781 271.95 797.203 273.371C795.823 274.611 792.93 275.08 790.511 274.454C788.43 273.915 786.123 273.551 783.747 273.326C775.84 272.576 770.87 274.134 769.594 278.037L769.213 279.202L783.499 280.559C785.497 280.748 786.831 281.776 786.479 282.853C786.126 283.931 784.222 284.65 782.223 284.46L767.941 283.103L765.68 290.022Z" fill="#F9E122"/>
<path d="M538.992 549.328C530.359 529.115 492.975 516.504 455.489 521.159C418.007 525.814 394.618 545.975 403.25 566.187C411.887 586.4 449.272 599.011 486.757 594.356C524.239 589.701 547.625 569.54 538.992 549.328Z" fill="#F9E122"/>
<path d="M522.726 551.347C516.163 535.979 487.738 526.39 459.238 529.931C430.737 533.469 412.954 548.799 419.517 564.167C426.083 579.536 454.508 589.123 483.008 585.584C511.509 582.043 529.292 566.716 522.726 551.347Z" fill="#F79035"/>
<path d="M471.209 565.411L491.727 562.863C494.376 562.534 497.018 563.425 497.629 564.853C498.24 566.284 496.587 567.708 493.938 568.037L458.803 572.4C456.154 572.729 453.512 571.838 452.902 570.41C452.294 568.981 453.944 567.557 456.593 567.227L459.18 566.906L456.255 560.061L452.452 560.532C450.476 560.778 448.506 560.111 448.05 559.045C447.593 557.979 448.829 556.915 450.806 556.671L454.605 556.198L454.163 555.165C451.14 548.08 458.066 542.652 473.272 540.764C476.924 540.311 480.248 540.142 483.278 540.235C486.344 540.33 488.611 541.809 488.187 543.448C487.814 544.88 485.488 545.921 482.807 545.853C480.503 545.797 478.117 545.946 475.763 546.239C467.939 547.21 464.492 549.69 466.142 553.553L466.634 554.706L480.769 552.95C482.746 552.704 484.716 553.369 485.172 554.435C485.628 555.501 484.396 556.565 482.419 556.811L468.284 558.565L471.209 565.411Z" fill="#F9E122"/>
<path d="M1257.44 130.305C1251.27 109.832 1215.49 95.9312 1177.52 99.2568C1139.56 102.582 1113.78 121.875 1119.94 142.348C1126.11 162.821 1161.89 176.722 1199.86 173.397C1237.82 170.071 1263.6 150.778 1257.44 130.305Z" fill="#F9E122"/>
<path d="M1240.96 131.749C1236.27 116.181 1209.07 105.611 1180.2 108.14C1151.33 110.67 1131.73 125.338 1136.42 140.904C1141.11 156.472 1168.31 167.042 1197.18 164.513C1226.05 161.984 1245.65 147.315 1240.96 131.749Z" fill="#F79035"/>
<path d="M1214.96 140.114L1215.26 140.224C1217.95 141.191 1218.4 143.249 1216.15 144.494C1212.12 146.72 1206.56 148.203 1199.82 148.794C1186.58 149.953 1174.91 146.839 1169.63 141.054L1164.33 141.519C1162.59 141.67 1160.96 141.034 1160.68 140.1C1160.39 139.164 1161.57 138.284 1163.31 138.131L1167.49 137.765C1167.31 137.408 1167.2 137.046 1167.09 136.683C1166.98 136.319 1166.87 135.959 1166.84 135.588L1162.65 135.955C1160.92 136.106 1159.28 135.472 1159 134.536C1158.72 133.6 1159.9 132.72 1161.63 132.567L1166.94 132.102C1168.54 125.716 1177.79 120.769 1191.03 119.61C1197.75 119.021 1203.87 119.474 1208.99 120.871C1211.87 121.66 1212.66 123.701 1210.67 125.079L1210.45 125.234C1208.86 126.336 1206.09 126.569 1203.77 125.945C1200.53 125.077 1197.04 124.792 1193.3 125.119C1186.65 125.703 1181.79 127.908 1179.87 130.97L1195.64 129.588C1197.38 129.437 1199.01 130.071 1199.29 131.007C1199.58 131.943 1198.4 132.823 1196.67 132.976L1179.02 134.521C1179.06 134.889 1179.17 135.251 1179.28 135.616C1179.39 135.978 1179.5 136.342 1179.68 136.697L1197.32 135.152C1199.06 134.999 1200.69 135.635 1200.97 136.571C1201.25 137.505 1200.07 138.387 1198.34 138.54L1182.57 139.92C1186.18 142.499 1192.09 143.761 1198.74 143.178C1202.48 142.852 1205.63 141.984 1208.18 140.594C1210.01 139.596 1212.8 139.335 1214.96 140.114Z" fill="#F9E122"/>
</svg>
