<svg width="1113" height="768" viewBox="0 0 1113 768" fill="none" xmlns="http://www.w3.org/2000/svg">
<path d="M202.763 132.199C202.763 132.199 198.951 135.031 195.141 133.615C191.33 132.199 193.089 127.142 187.813 124.917C182.536 122.692 179.604 125.322 176.673 122.693C173.741 120.063 171.982 120.67 168.172 119.657C164.36 118.647 166.12 111.567 161.722 110.961C157.325 110.354 141.495 111.971 138.271 115.005C135.046 118.04 132.995 120.063 128.89 118.444C124.786 116.827 122.734 119.12 121.562 122.422C120.389 125.726 120.975 129.772 124.493 130.783C128.011 131.795 127.425 134.828 125.959 135.234C124.493 135.638 115.992 136.649 117.457 134.019C118.923 131.389 116.579 131.188 111.888 131.998C107.197 132.806 101.628 139.28 105.438 141.1C109.25 142.92 115.406 140.492 117.457 143.324C119.51 146.156 115.113 148.583 111.009 147.571C106.905 146.56 100.162 147.774 96.644 150.201C93.1267 152.629 89.0226 160.922 92.2467 162.541C95.472 164.158 99.869 163.552 98.4032 166.384C96.9378 169.216 104.559 169.418 103.68 172.453C102.8 175.486 89.3155 180.543 82.5732 182.769C75.8309 184.993 63.5193 185.802 63.2262 188.028C62.9332 190.252 88.1436 185.599 98.11 181.959C108.077 178.319 116.579 175.082 117.165 172.25C117.751 169.418 131.233 162.338 132.993 162.742C134.753 163.148 132.701 168.204 135.633 168.204C138.564 168.204 155.86 171.846 159.377 176.093C162.895 180.342 157.911 194.905 162.308 196.523C166.706 198.141 165.24 207.243 169.344 209.266C173.448 211.289 181.07 220.391 178.138 221.606C175.207 222.82 164.655 236.575 164.947 244.665C165.24 252.756 176.013 262.111 178.212 266.814C180.41 271.517 184.368 275.766 184.368 277.888C184.368 280.013 181.509 282.289 184.368 283.046C187.226 283.805 189.205 288.054 192.722 290.329C196.24 292.605 198.658 289.874 197.119 288.963C195.58 288.054 192.283 283.957 191.403 281.226C190.524 278.497 185.688 274.551 187.886 272.58C190.084 270.608 192.503 278.041 194.921 280.165C197.339 282.289 207.013 290.633 207.893 294.122C208.772 297.611 208.552 300.948 215.807 304.438C223.063 307.926 230.317 309.444 234.275 309.141C238.233 308.837 245.708 308.837 247.246 312.63C248.787 316.422 260.878 313.388 263.516 317.94C266.154 322.491 269.891 322.188 274.29 323.856C278.686 325.526 279.127 327.953 283.085 327.498C287.04 327.042 290.119 324.16 292.539 330.228C294.956 336.296 286.82 342.517 281.765 344.337C276.707 346.158 284.843 347.523 283.744 350.254C282.644 352.985 280.006 355.26 281.544 357.384C283.085 359.508 291.439 372.555 300.232 376.348C309.027 380.14 316.063 383.932 316.063 386.209C316.063 388.484 316.502 416.853 314.304 421.707C312.105 426.563 312.984 428.08 314.523 432.327C316.063 436.576 316.722 441.279 315.184 446.891C313.643 452.504 313.056 459.332 316.099 467.068C319.142 474.805 333.212 479.963 339.367 479.813C345.524 479.661 349.7 477.384 347.721 475.716C345.742 474.046 337.168 475.109 336.509 468.13C335.85 461.152 341.126 458.421 341.126 455.842C341.126 453.263 333.871 452.353 336.07 450.077C338.267 447.802 338.708 447.498 341.346 444.767C343.984 442.036 338.488 439.609 340.687 437.789C342.884 435.969 347.176 437.941 348.218 434.756C349.262 431.568 348.6 430.355 354.758 430.507C360.912 430.659 362.891 425.956 362.453 424.136C362.012 422.315 363.771 422.618 369.048 419.735C374.324 416.853 384.219 407.296 384.439 404.565C384.657 401.834 382.019 397.586 387.297 395.614C392.573 393.641 402.686 393.641 405.544 390.153C408.402 386.663 407.963 377.257 411.042 372.555C414.118 367.852 424.233 361.481 420.934 356.321C417.638 351.163 401.588 349.343 396.31 349.343C391.035 349.343 384.439 349.647 378.282 344.64C372.127 339.634 367.07 330.986 358.495 330.986C349.92 330.986 345.742 322.795 334.971 321.429C324.197 320.064 320.68 321.429 315.184 319.457C309.686 317.485 305.069 318.244 301.552 320.216C298.035 322.188 295.615 324.463 293.636 324.918C291.659 325.374 288.14 322.491 285.723 323.098C283.303 323.704 274.29 324.767 274.51 319.912C274.728 315.058 277.587 310.355 273.19 309.292C268.794 308.231 261.537 310.051 259.34 307.017C257.141 303.984 265.715 302.01 266.154 298.522C266.595 295.032 257.361 296.397 255.382 299.128C253.403 301.859 250.984 304.134 244.608 303.832C238.233 303.527 234.716 300.342 234.716 294.122C234.716 287.902 234.055 285.929 239.112 280.924C244.17 275.916 252.524 277.738 256.041 278.799C259.558 279.861 262.857 275.614 268.794 275.462C274.728 275.31 278.907 276.979 279.786 278.799C280.665 280.619 280.445 288.508 285.723 288.206C290.998 287.902 283.523 275.31 287.702 271.972C291.878 268.636 305.73 264.842 305.948 261.504C306.168 258.168 309.247 253.919 313.864 251.036C318.48 248.155 323.097 249.823 324.638 247.244C326.176 244.665 321.559 244.513 326.616 241.934C331.672 239.355 333.651 244.362 338.488 242.541C343.325 240.72 356.078 239.204 355.637 236.625C355.196 234.045 347.283 236.473 346.183 232.529C345.083 228.584 346.622 225.399 353.438 225.095C360.254 224.792 373.445 224.336 373.006 218.723C372.566 213.109 361.133 210.834 361.353 204.159C361.574 197.483 356.078 191.416 354.317 194.752C352.558 198.09 347.283 199.912 343.763 196.877C340.246 193.843 340.246 183.375 331.892 182.464C323.538 181.555 326.835 189.14 323.097 191.112C319.36 193.084 314.523 195.663 317.163 197.788C319.8 199.912 320.68 205.676 315.184 206.89C309.686 208.103 307.488 209.317 307.927 214.172C308.368 219.026 303.09 221.606 301.772 217.51C300.452 213.413 303.751 207.951 300.452 206.89C297.155 205.829 290.56 205.677 288.799 201.732C287.04 197.788 280.665 200.062 277.148 194.752C273.631 189.444 278.907 183.527 287.92 178.976C296.935 174.425 305.069 167.445 311.885 165.625C318.701 163.805 324.123 169.216 326.763 161.934C329.401 154.652 320.9 150.606 316.795 154.855C312.691 159.102 313.57 150.403 304.777 151.01C295.982 151.617 298.62 158.899 289.825 156.878C281.032 154.855 269.306 147.774 263.151 149.596C256.994 151.416 245.991 153.843 242.405 149.596C238.819 145.347 244.388 142.717 232.955 137.864C221.523 133.008 213.316 126.13 202.763 132.199Z" fill="#B76E00"/>
<path d="M427.31 89.317C427.31 89.317 418.223 89.5181 413.533 93.7667C408.843 98.0138 394.184 97.6098 395.358 100.846C396.531 104.082 399.035 106.105 395.291 107.522C391.547 108.938 375.424 108.128 377.476 112.375C379.529 116.624 387.736 116.22 386.563 118.241C385.392 120.264 374.251 119.86 378.649 122.894C383.046 125.929 397.116 125.524 398.289 131.592C399.462 137.661 395.651 146.561 398.289 151.01C400.927 155.462 391.253 156.878 393.893 160.113C396.531 163.349 390.374 166.991 392.134 172.25C393.893 177.509 397.523 188.229 402.303 192.074C407.084 195.917 409.134 197.737 413.827 193.084C418.517 188.432 418.223 177.712 427.31 177.509C436.398 177.307 434.64 170.43 447.243 167.8C459.849 165.171 468.056 165.575 471.282 162.338C474.507 159.102 469.523 152.629 474.214 147.37C478.904 142.111 481.248 137.661 481.835 132.603C482.421 127.546 487.699 126.536 487.699 121.074C487.699 115.613 496.785 107.723 500.011 106.308C503.234 104.892 497.958 97.6098 493.268 100.037C488.578 102.465 480.369 105.499 479.783 102.869C479.198 100.239 493.56 98.0138 489.163 93.564C484.767 89.1142 476.266 83.4509 466.298 84.0577C456.332 84.6644 444.312 86.2818 443.141 90.7331C441.968 95.1829 444.539 97.8125 439.15 97.003C433.761 96.1936 438.157 88.5075 427.31 89.317Z" fill="#B76E00"/>
<path d="M412.947 82.8442C412.947 82.8442 399.169 77.5849 390.667 77.7861C382.166 77.9889 383.339 81.428 375.718 81.428C368.096 81.428 355.196 81.6308 357.542 86.8885C359.886 92.1493 367.508 90.9343 367.802 93.7667C368.096 96.5991 360.18 93.968 359.007 99.026C357.836 104.083 352.558 102.262 349.335 106.509C346.11 110.758 342.299 113.792 338.194 113.994C334.091 114.195 327.934 116.421 325.882 119.86C323.832 123.299 322.95 127.345 332.331 128.761C341.713 130.176 350.8 129.569 350.8 126.13C350.8 122.693 335.85 123.703 337.902 120.264C339.955 116.827 344.057 119.86 353.146 120.264C362.233 120.67 358.715 115.814 363.699 112.578C368.681 109.342 380.408 108.835 381.287 103.626C382.166 98.4192 385.683 102.465 395.945 96.5991C406.205 90.7331 421.74 88.913 412.947 82.8442Z" fill="#B76E00"/>
<path d="M265.057 121.478C265.057 121.478 267.254 115.713 263.957 115.713C260.658 115.713 260.878 113.438 256.041 112.984C251.204 112.527 251.204 115.41 247.246 117.231C243.288 119.051 235.155 122.236 236.475 125.726C237.792 129.216 239.553 133.219 243.95 129.473C248.346 125.726 248.566 123.602 253.403 123.906C258.241 124.209 252.304 127.15 252.524 129.473C252.745 131.795 241.091 133.918 247.467 134.829C253.842 135.738 258.02 136.801 255.382 138.621C252.745 140.443 247.467 147.269 254.721 146.662C261.978 146.055 265.275 142.111 269.233 144.69C273.19 147.269 278.907 150.152 281.985 147.723C285.064 145.296 283.964 144.579 282.865 139.931C281.765 135.283 289.681 131.036 289.24 126.94C288.799 122.845 278.027 124.057 278.027 127.546C278.027 131.036 278.907 133.16 274.51 128.761C270.112 124.361 270.553 121.175 265.057 121.478Z" fill="#B76E00"/>
<path d="M294.736 116.776C294.736 116.776 280.445 118.596 276.928 115.713C273.411 112.832 267.694 105.193 275.608 103.626C283.523 102.06 282.864 106.308 287.04 109.038C291.219 111.769 290.339 104.943 294.736 105.701C299.134 106.459 301.81 116.243 294.736 116.776Z" fill="#B76E00"/>
<path d="M354.537 90.0758C354.203 87.1973 351.02 84.3097 345.524 86.8886C340.026 89.4675 336.509 92.5026 338.488 96.5991C340.467 100.694 334.517 103.275 337.931 105.397C341.346 107.522 349.48 104.943 348.821 99.7848C348.162 94.6254 354.978 93.8682 354.537 90.0758Z" fill="#B76E00"/>
<path d="M317.163 114.5C317.163 114.5 319.58 111.618 317.163 109.646C314.743 107.674 312.544 109.317 310.126 110.316C307.707 111.314 303.531 108.256 303.09 110.316C302.651 112.375 298.694 115.713 304.19 116.017C309.686 116.32 303.751 117.837 307.488 119.809C311.226 121.782 313.374 125.574 318.236 122.541C323.097 119.507 318.48 118.748 317.163 114.5Z" fill="#B76E00"/>
<path d="M322.877 103.29C322.877 103.29 327.055 100.846 326.396 97.0538C325.737 93.2614 323.538 89.4674 319.36 91.8959C315.184 94.3227 312.326 92.3598 313.205 97.2089C314.084 102.06 315.184 102.918 317.601 103.626C320.021 104.336 321.19 104.649 322.877 103.29Z" fill="#B76E00"/>
<path d="M323.538 128.003C323.538 128.003 320.239 125.119 314.523 125.726C308.806 126.333 305.51 129.975 305.289 134.374C305.069 138.773 302.794 138.166 299.094 142.565C295.395 146.964 288.799 149.241 296.056 149.848C303.31 150.454 308.185 149.393 308.167 144.387C308.147 139.38 308.049 136.194 313.045 134.676C318.042 133.16 328.595 131.036 323.538 128.003Z" fill="#B76E00"/>
<path d="M301.302 134.222C301.91 133.511 306.83 128.761 305.289 126.485C303.751 124.209 297.155 128.609 294.956 130.354C292.757 132.098 290.415 135.133 292.795 138.47C295.176 141.808 299.308 136.552 301.302 134.222Z" fill="#B76E00"/>
<path d="M324.876 140.897C324.876 140.897 325.517 137.712 329.254 135.738C332.992 133.767 334.312 131.643 331.672 131.795C329.034 131.947 317.601 134.374 316.063 138.925C314.523 143.476 315.184 150.155 321.559 150.001C327.934 149.848 324.856 153.185 330.572 153.64C336.288 154.096 340.246 150.909 340.907 155.612C341.566 160.315 349.041 161.529 347.062 165.625C345.083 169.722 341.126 169.266 335.63 171.087C330.134 172.908 334.312 171.694 338.049 176.397C341.787 181.099 338.713 181.251 347.394 183.527C356.078 185.802 358.054 185.954 357.836 183.527C357.616 181.099 365.75 184.437 363.112 178.824C360.474 173.21 355.196 171.39 359.154 169.874C363.112 168.356 363.112 176.093 366.849 174.88C370.587 173.666 379.382 170.176 373.886 166.839C368.387 163.501 361.353 162.136 363.553 159.406C365.75 156.675 363.553 151.365 358.054 147.571C352.558 143.78 354.758 139.876 349.262 139.931C343.763 139.986 345.524 132.69 340.246 132.697C334.971 132.704 326.434 143.476 324.876 140.897Z" fill="#B76E00"/>
<path d="M377.296 227.219C377.296 227.219 373.224 228.128 371.027 227.219C368.828 226.308 359.374 228.737 360.474 231.466C361.574 234.197 365.091 235.108 367.508 236.321C369.928 237.535 376.75 237.535 377.296 234.804C377.841 232.073 383.566 227.219 377.296 227.219Z" fill="#B76E00"/>
<path d="M312.985 168.963C312.985 168.963 312.568 168.906 311.932 168.873C310.024 168.773 306.14 168.888 305.585 171.39C304.851 174.728 298.694 177.307 304.41 179.431C310.126 181.555 310.707 175.487 315.364 176.093C320.021 176.7 323.538 177.95 323.758 174.367C323.977 170.783 315.883 168.85 312.568 168.906" fill="#B76E00"/>
<path d="M673.554 260.742C669.16 258.615 668.421 257.206 668.421 252.756C668.421 248.307 662.411 245.272 659.773 243.147C657.135 241.025 658.747 239.608 662.998 237.484C667.248 235.36 670.473 233.438 672.085 234.248C673.697 235.057 673.552 237.484 673.552 237.484C673.988 239.664 670.179 238.395 668.274 241.226C666.369 244.058 675.31 246.891 675.749 250.531C676.19 254.173 680.148 255.183 681.174 257.813C682.2 260.443 677.948 262.87 673.554 260.742ZM639.839 251.34C636.028 252.452 630.018 250.228 626.648 248.913C623.278 247.599 620.638 247.396 617.708 248.812C614.774 250.228 613.31 251.239 610.231 251.239C607.155 251.239 609.205 253.465 607.446 253.262C605.688 253.059 606.861 251.34 605.541 250.33C604.223 249.317 605.688 244.766 606.42 242.642C607.155 240.519 608.326 239.103 610.819 237.687C613.31 236.271 617.853 238.596 617.853 239.608C617.853 240.619 620.052 242.541 623.278 241.327C626.501 240.114 629.139 241.327 629.139 241.327C633.976 240.822 637.054 244.665 639.839 245.576C642.624 246.485 643.65 250.228 639.839 251.34ZM625.769 236.573C628.7 236.271 632.217 235.159 630.897 237.484C630.897 237.484 632.364 238.496 628.406 238.596C624.449 238.697 622.837 236.877 625.769 236.573ZM977.1 122.794C979.3 121.985 980.62 122.287 982.231 122.894C983.843 123.501 993.223 124.007 991.318 120.871C989.412 117.736 985.601 117.028 985.455 113.388C985.31 109.746 981.497 107.319 977.247 108.836C972.998 110.354 977.833 113.59 975.048 113.489C972.263 113.388 972.704 110.454 967.135 109.24C961.565 108.027 948.08 107.116 939.873 107.219C931.663 107.319 924.041 108.23 926.679 110.354C929.319 112.477 933.716 115.916 930.346 116.22C926.973 116.523 927.852 111.667 920.965 111.87C914.076 112.073 914.514 117.231 907.772 117.837C901.029 118.444 901.323 114.5 896.486 112.578C891.649 110.657 884.321 114.702 880.51 116.119C876.699 117.535 868.639 114.601 867.759 112.073C866.88 109.544 859.256 109.746 857.497 111.971C855.739 114.195 854.86 111.567 850.023 111.162C845.185 110.758 839.324 115.309 841.668 116.624C844.015 117.939 846.505 119.355 843.427 120.467C840.348 121.581 831.409 120.264 830.676 123.501C829.944 126.737 827.157 128.153 824.081 125.726C821.002 123.299 817.191 117.028 810.008 115.713C802.827 114.4 800.189 116.928 800.189 119.254C800.189 121.581 793.74 122.995 789.782 121.074C785.825 119.152 777.324 119.455 771.607 122.591C765.891 125.726 763.253 128.861 762.374 125.726C761.494 122.591 768.822 118.444 768.822 113.893C768.822 109.342 759.001 105.095 754.899 105.095C750.794 105.095 750.062 110.859 747.277 108.836C744.492 106.813 741.999 102.768 738.188 102.97C734.377 103.173 731.886 107.42 733.792 109.443C735.697 111.466 732.18 111.466 731.448 114.096C730.713 116.725 727.635 114.5 721.333 117.736C715.031 120.972 711.073 124.917 711.659 126.737C712.246 128.557 718.108 130.277 716.349 131.188C714.59 132.098 706.089 133.11 706.236 135.839C706.383 138.57 713.273 137.964 716.057 142.009C718.842 146.055 717.963 147.471 716.057 146.965C714.152 146.461 713.564 144.335 709.609 142.111C705.651 139.885 703.158 142.313 703.305 143.83C703.452 145.347 699.273 148.103 698.065 146.435C696.856 144.765 693.777 147.117 695.756 148.634C697.735 150.152 696.415 155.967 701.105 156.27C705.796 156.574 710.488 155.158 711.953 158.495C713.42 161.833 711.512 158.597 708.142 158.394C704.772 158.191 703.013 158.495 704.478 160.922C705.942 163.349 704.331 168.204 701.987 169.115C699.641 170.024 700.079 169.519 700.52 166.486C700.958 163.45 698.908 159.406 695.683 156.27C692.46 153.135 689.381 144.436 689.381 141.808C689.381 139.179 683.518 137.661 681.027 143.123C678.534 148.583 680.292 155.967 684.691 157.383C689.087 158.798 691.14 161.934 687.914 162.036C684.691 162.136 684.397 159.709 677.508 158.09C670.62 156.472 664.316 155.36 664.757 157.282C665.196 159.203 670.62 161.529 667.836 162.541C665.051 163.552 657.721 162.44 655.815 163.45C653.91 164.463 651.125 162.44 647.755 164.158C644.382 165.879 642.185 170.935 638.374 171.542C634.564 172.149 637.934 168.103 634.564 166.486C631.191 164.867 628.113 167.699 629.873 170.024C631.632 172.351 631.191 174.474 627.527 174.576C623.863 174.677 625.183 178.319 621.811 181.352C618.441 184.386 612.869 182.97 611.404 180.139C609.939 177.307 603.929 175.486 606.129 174.172C608.326 172.857 616.094 177.408 620.638 174.273C625.183 171.138 617.121 167.699 611.698 165.069C606.273 162.44 599.019 162.742 596.601 162.592C594.182 162.44 599.678 158.647 595.281 157.13C590.885 155.612 584.948 159.861 579.891 159.861C574.836 159.861 567.579 162.894 562.962 167.295C558.345 171.694 557.025 174.728 554.169 179.431C551.311 184.134 547.574 187.168 542.075 188.533C536.579 189.899 533.062 192.63 534.051 194.071C535.041 195.511 537.129 195.132 536.689 197.788C536.25 200.442 538.338 204.386 543.284 204.386C548.233 204.386 548.562 200.062 551.859 201.505C555.158 202.946 553.508 205.979 553.838 207.572C554.169 209.165 557.466 212.655 561.424 212.503C565.382 212.352 569.119 206.435 569.119 203.4C569.119 200.367 574.395 200.215 573.077 197.788C571.757 195.361 564.502 193.995 568.019 190.505C571.537 187.016 578.132 183.223 577.694 180.19C577.253 177.155 586.048 176.397 586.048 179.431C586.048 182.465 577.912 186.409 577.912 190.051C577.912 193.691 577.473 197.788 582.969 197.788C588.465 197.788 589.565 193.611 593.523 195.851C597.481 198.09 597.26 198.394 595.94 200.367C594.622 202.339 587.586 202.339 586.486 205.22C585.389 208.103 577.033 210.076 579.232 212.048C581.431 214.02 586.707 215.992 583.41 216.599C580.111 217.206 570.657 214.475 567.361 215.386C564.062 216.296 562.523 219.026 559.665 217.358C556.807 215.69 553.949 218.723 550.65 215.992C547.353 213.261 546.254 213.109 545.595 215.84C544.934 218.571 539.658 216.903 537.459 219.937C535.259 222.97 533.942 223.122 531.304 225.399C528.664 227.674 522.729 230.859 519.43 231.618C516.134 232.377 511.735 231.922 512.176 234.045C512.614 236.169 519.871 235.563 521.85 238.748C523.827 241.934 522.729 244.665 519.504 244.969C516.278 245.272 506.898 243.756 503.087 245.272C499.276 246.789 501.037 250.025 499.423 252.048C497.811 254.071 493.707 253.869 493.268 255.993C492.827 258.117 497.518 257.206 498.25 259.128C498.985 261.049 503.381 262.567 506.751 263.174C510.123 263.78 521.703 263.57 523.755 260.742C525.806 257.914 525.22 253.869 528.59 252.452C531.963 251.036 534.307 249.216 533.868 247.092C533.427 244.969 537.973 246.081 542.663 245.373C547.353 244.665 546.913 242.339 548.818 242.541C550.723 242.743 555.267 248.003 558.345 249.368C561.424 250.734 566.481 251.947 568.678 254.071C570.878 256.194 570.51 259.331 571.683 259.331C572.857 259.331 571.83 254.881 573.001 254.272C574.174 253.666 576.814 256.094 577.106 254.374C577.4 252.655 573.001 251.138 569.925 249.621C566.846 248.104 561.718 246.284 560.838 243.249C559.957 240.215 564.062 242.339 567.287 244.766C570.51 247.193 570.363 248.913 575.347 249.52C580.331 250.127 582.384 254.374 581.943 257.308C581.505 260.24 585.754 262.668 588.979 262.668C592.203 262.668 590.738 260.341 593.817 260.14C596.893 259.937 599.239 258.217 597.774 257.105C596.307 255.993 590.885 257.308 591.177 255.285C591.47 253.262 596.601 251.846 597.774 251.947C597.774 251.947 601.877 252.402 601.218 255.285C600.559 258.168 600.118 261.201 605.614 262.415C611.113 263.628 610.892 260.14 617.708 262.263C624.522 264.387 625.622 264.235 630.679 262.719C635.734 261.201 644.309 258.775 645.409 261.808C646.508 264.842 649.366 265.448 643.65 268.332C637.934 271.215 637.713 271.063 629.8 273.337C621.884 275.614 623.863 276.068 611.551 275.31C599.239 274.551 592.643 269.242 587.147 272.731C581.651 276.22 584.507 280.772 579.232 278.345C573.956 275.916 569.558 275.766 568.458 273.489C567.361 271.215 556.807 275.766 555.267 271.063C553.729 266.359 560.983 263.628 554.608 261.504C548.233 259.381 544.934 262.263 539.438 262.567C533.942 262.869 532.401 260.443 528.005 263.476C528.005 263.476 524.488 265.905 520.091 266.057C515.693 266.207 506.239 268.027 502.94 270.152C499.643 272.276 496.565 276.22 496.565 277.434C496.565 278.647 498.323 279.71 491.51 281.833C484.694 283.957 487.99 283.046 484.694 285.777C481.395 288.508 474.799 293.97 475.019 297.004C475.24 300.038 476.549 305.954 475.015 307.776C473.481 309.596 472.382 311.416 473.041 313.693C473.699 315.967 476.119 319.153 481.174 320.973C486.232 322.795 485.573 328.255 490.19 328.712C494.806 329.166 494.61 332.656 500.425 333.111C506.239 333.565 507.339 330.077 514.593 332.049C521.85 334.022 527.126 331.745 530.863 329.773C534.601 327.801 540.097 331.676 540.758 333.152C541.417 334.628 541.855 337.662 545.154 336.903C548.451 336.144 552.629 334.868 553.508 337.023C554.387 339.179 550.65 345.399 553.508 347.826C556.366 350.254 560.983 352.074 562.742 357.232C564.502 362.39 568.678 367.093 565.161 369.065C561.644 371.038 556.807 377.257 558.786 380.292C560.765 383.326 566.795 384.995 566.528 389.697C566.261 394.4 567.361 400.317 569.778 402.896C572.195 405.475 575.715 407.297 576.374 411.239C577.033 415.184 573.736 418.522 580.111 418.522C586.486 418.522 600.339 418.067 607.155 414.275C613.969 410.482 621.225 402.896 621.664 400.014C622.105 397.131 630.018 397.435 630.238 394.704C630.459 391.973 627.16 387.725 631.338 384.237C635.516 380.747 646.949 380.444 647.388 376.043C647.828 371.644 645.629 365.273 644.529 362.39C643.43 359.508 641.233 354.351 644.97 351.922C648.708 349.495 660.579 340.393 669.153 335.842C677.728 331.291 682.126 321.582 680.586 319.305C679.048 317.03 674.431 319.76 669.153 320.671C663.878 321.582 656.621 322.643 655.303 319.912C653.983 317.181 652.665 307.169 649.146 307.776C645.629 308.383 638.154 305.045 637.495 301.253C636.834 297.459 636.396 295.943 633.097 293.06C629.8 290.178 622.325 284.564 625.183 282.744C628.041 280.924 633.317 284.109 634.637 287.295C635.955 290.481 640.792 290.785 641.233 293.06C641.671 295.336 642.771 298.217 646.508 299.583C650.246 300.948 653.983 306.713 655.083 310.658C656.182 314.602 655.742 318.546 658.6 318.394C661.458 318.244 663.437 314.451 668.933 313.541C674.431 312.63 678.828 308.685 687.402 307.169C695.977 305.652 705.21 298.37 703.892 295.184C702.572 291.998 697.294 292.453 694.657 290.026C692.019 287.598 688.281 289.267 687.402 290.633C686.523 291.998 677.948 293.06 677.728 289.722C677.508 286.384 666.954 280.317 669.153 278.345C671.353 276.372 680.586 286.991 686.082 285.323C691.578 283.655 692.678 285.777 695.318 287.295C697.956 288.813 715.984 286.234 720.38 288.054C724.779 289.874 732.913 298.522 736.43 298.522C739.947 298.522 743.466 295.032 745.445 296.852C747.424 298.674 743.466 302.466 748.083 307.927C752.7 313.389 755.337 317.485 756.657 320.671C757.975 323.856 759.516 326.587 764.353 323.704C769.19 320.823 762.812 315.361 768.09 311.114C773.366 306.865 787.436 299.735 788.316 297.004C789.197 294.273 799.969 292.15 801.068 294.425C802.168 296.701 803.047 300.038 807.005 301.555C810.963 303.073 807.664 308.837 811.622 309.596C815.58 310.355 816.679 306.713 819.097 306.258C821.514 305.804 825.033 310.355 823.493 314.906C821.955 319.457 822.834 324.463 825.472 326.587C828.11 328.712 832.068 333.717 832.947 336.144C833.826 338.573 841.962 340.393 843.941 341C845.92 341.606 841.521 332.049 839.324 330.834C837.125 329.621 828.33 327.953 828.11 321.884C827.892 315.815 827.012 312.934 830.089 314.451C833.167 315.967 842.183 318.546 842.841 320.671C843.5 322.795 843.062 325.374 846.579 324.008C850.096 322.643 859.332 317.181 857.791 312.782C856.253 308.383 845.92 305.804 845.259 302.01C844.6 298.217 850.975 294.729 853.615 296.095C856.253 297.459 855.055 300.038 857.963 299.583C860.87 299.128 858.012 296.397 862.408 295.184C866.807 293.97 883.074 291.087 886.812 280.013C890.551 268.938 877.14 262.567 877.578 259.836C878.019 257.105 886.593 254.83 885.273 253.313C883.956 251.795 879.557 255.133 874.94 254.526C870.324 253.919 867.025 249.672 871.423 247.092C875.82 244.513 875.161 247.396 879.557 248.609C883.956 249.823 885.492 245.728 887.47 246.789C889.452 247.85 894.727 249.52 895.827 253.465C896.926 257.409 898.026 263.174 902.863 261.504C907.698 259.836 910.118 253.767 907.48 252.554C904.84 251.34 899.344 248.003 901.323 242.997C903.302 237.989 906.601 235.108 910.559 235.26C914.514 235.41 922.65 220.241 920.671 212.048C918.692 203.856 910.338 194.753 907.26 195.511C904.181 196.27 894.507 199.456 895.606 194.602C896.706 189.747 899.564 181.099 902.202 176.397C904.84 171.694 924.847 167.902 925.288 170.329C925.727 172.755 934.962 172.762 935.18 169.573C935.401 166.384 929.464 160.467 934.083 157.889C938.7 155.31 940.897 161.378 944.854 160.62C948.812 159.861 942.217 151.517 947.274 150C952.329 148.482 952.77 157.584 951.891 159.861C951.012 162.136 951.45 171.997 948.374 174.121C945.295 176.245 945.734 185.043 949.912 189.14C954.088 193.236 959.586 201.428 963.762 200.519C967.94 199.608 964.203 189.595 965.961 186.713C967.72 183.83 966.62 175.334 962.224 172.603C957.828 169.874 956.287 165.473 960.025 161.833C963.762 158.191 967.061 156.523 970.799 159.406C974.536 162.288 974.977 157.736 974.977 153.792C974.977 149.848 977.833 144.538 982.452 144.538C987.068 144.538 987.727 143.324 984.649 140.139C981.572 136.953 973.877 134.981 969.04 134.222C964.203 133.463 966.182 131.947 970.799 132.554C975.415 133.16 977.688 130.277 977.1 128.255C976.515 126.232 968.746 125.321 969.04 122.794C969.334 120.264 974.901 123.602 977.1 122.794Z" fill="#B76E00"/>
<path d="M551.091 251.265C551.091 251.265 553.179 253.008 551.859 253.767C550.541 254.526 553.942 256.65 552.297 257.409C550.65 258.168 546.363 258.091 547.353 255.891C548.342 253.692 549.001 254.753 549.001 253.085C549.001 251.416 550.058 250.033 551.091 251.265Z" fill="#B76E00"/>
<path d="M568.24 259.609C567.521 259.251 565.711 258.243 564.171 258.698C562.633 259.152 561.313 260.443 562.853 261.277C564.391 262.111 564.171 263.249 566.59 262.719C569.008 262.188 569.923 260.447 568.24 259.609Z" fill="#B76E00"/>
<path d="M670.765 371.594C670.765 371.594 671.791 374.223 668.568 374.729C665.342 375.236 665.342 375.64 664.316 376.752C663.29 377.865 658.014 378.066 656.841 380.191C655.668 382.315 658.6 385.044 656.841 386.866C655.083 388.686 652.004 390.001 653.91 394.248C655.815 398.497 662.852 398.901 665.93 397.385C669.006 395.867 668.715 392.529 669.594 390.304C670.473 388.08 673.552 388.484 674.137 385.551C674.723 382.618 672.232 379.685 674.137 378.168C676.043 376.65 675.896 371.594 675.017 369.875C674.137 368.155 670.033 368.661 670.765 371.594Z" fill="#B76E00"/>
<path d="M514.373 202.945C514.373 202.945 511.735 202.491 510.856 204.007C509.977 205.524 506.898 205.829 506.898 208.255C506.898 210.682 512.396 211.441 512.614 212.959C512.835 214.475 517.013 216.903 514.373 218.267C511.735 219.633 508.429 221.606 511.072 222.82C513.714 224.033 515.034 224.184 513.934 225.549C512.835 226.915 511.517 228.432 513.055 228.887C514.593 229.343 516.572 227.521 518.992 227.067C521.409 226.612 526.687 226.46 528.225 224.943C529.763 223.427 533.942 220.089 530.425 219.33C526.905 218.571 528.225 217.215 526.905 215.92C525.587 214.627 524.047 216.144 521.85 215.081C519.651 214.02 517.231 212.048 517.672 208.71C518.113 205.372 515.802 202.984 514.373 202.945Z" fill="#B76E00"/>
<path d="M504.919 213.109C504.303 213.269 501.698 212.959 501.001 214.779C500.302 216.599 496.565 216.903 496.126 219.178C495.686 221.454 498.105 223.881 500.523 223.577C502.94 223.274 503.601 221.909 504.919 221.15C506.239 220.391 510.197 218.875 510.197 217.206C510.197 215.538 508.305 212.238 504.919 213.109Z" fill="#412D60"/>
<path d="M472.845 178.116C472.845 178.116 469.962 174.576 468.057 175.385C466.151 176.195 464.101 178.723 465.859 180.038C467.618 181.353 468.497 181.251 468.203 183.173C467.912 185.094 475.678 187.219 479.489 186.612C483.3 186.005 490.043 183.766 490.043 180.992C490.043 178.218 488.431 175.245 485.059 175.265C481.689 175.284 483.741 176.7 481.103 177.408C478.463 178.116 475.436 175.992 472.845 178.116Z" fill="#B76E00"/>
<path d="M576.374 110.403C576.374 110.403 570.657 109.948 568.24 110.403C565.82 110.859 564.282 106.915 560.765 108.28C557.246 109.646 561.203 112.527 555.707 113.134C550.211 113.741 543.395 111.162 543.395 115.106C543.395 119.051 543.175 121.478 548.012 122.388C552.849 123.299 553.508 122.388 552.409 125.119C551.311 127.85 553.729 130.884 557.246 131.339C560.765 131.795 562.303 126.94 561.862 124.967C561.424 122.995 558.566 121.327 562.303 121.327C566.041 121.327 565.82 125.422 569.119 126.637C572.416 127.85 575.274 123.147 572.636 121.023C569.998 118.9 568.019 119.809 565.161 118.596C562.303 117.383 558.786 115.562 561.644 115.106C564.502 114.652 564.941 116.32 570.217 116.168C575.494 116.017 580.77 111.768 576.374 110.403Z" fill="#B76E00"/>
<path d="M656.841 155.764C656.841 155.764 659.699 155.005 657.941 153.033C656.182 151.061 652.445 152.579 651.566 148.786C650.686 144.992 650.686 139.38 653.763 135.89C656.841 132.402 659.92 130.581 661.678 128.153C663.437 125.726 668.274 126.637 669.153 123.45C670.033 120.264 667.174 119.507 663.657 121.175C660.14 122.845 661.02 125.422 658.161 125.271C655.303 125.119 652.665 126.789 648.708 129.975C644.75 133.16 642.112 136.042 643.212 139.532C644.309 143.02 643.808 143.628 642.96 144.992C642.112 146.359 640.071 150 642.96 150.606C645.849 151.213 646.288 151.82 647.828 154.399C649.366 156.978 655.541 156.483 656.841 155.764Z" fill="#B76E00"/>
<path d="M617.488 104.791C617.715 102.436 619.467 101.605 617.488 101.301C615.509 100.998 615.509 102.06 613.31 102.212C611.113 102.364 604.076 102.97 607.373 104.791C610.672 106.611 611.46 105.579 612.825 107.992C614.189 110.403 623.863 109.494 622.764 107.219C621.664 104.943 617.268 107.067 617.488 104.791Z" fill="#B76E00"/>
<path d="M632.438 105.333C630.225 107.22 631.997 104.486 628.7 103.577C625.401 102.666 627.601 105.274 625.842 105.336C624.084 105.397 619.859 100.239 622.85 98.4193C625.842 96.5991 625.622 93.2614 628.26 92.0479C630.897 90.833 631.118 94.6253 630.679 96.7496C630.238 98.8739 633.097 98.1151 633.537 99.7848C633.976 101.453 632.658 103.259 635.076 102.963C637.495 102.666 636.614 99.178 637.713 97.8125C638.813 96.447 637.963 91.8959 641.466 93.1093C644.97 94.3228 646.07 96.5991 644.091 97.8125C642.112 99.0259 640.133 97.2058 640.353 100.391C640.572 103.577 642.33 105.397 638.593 106.459C634.855 107.522 633.755 104.205 632.438 105.333Z" fill="#B76E00"/>
<path d="M734.377 98.6219C734.377 96.9999 733.351 97.1044 730.86 96.4977C728.369 95.891 727.929 94.3734 725.144 94.0693C722.359 93.7667 720.748 96.3963 722.506 97.7111C724.265 99.026 721.186 102.97 725.144 103.577C729.102 104.184 727.49 100.745 730.128 100.341C732.766 99.9352 734.377 100.745 734.377 98.6219Z" fill="#412D60"/>
<path d="M717.228 92.9572C712.77 92.7114 714.591 90.0249 710.927 90.3275C707.263 90.6316 705.651 90.8329 704.916 88.9129C704.184 86.9898 702.425 86.4844 700.667 85.675C698.908 84.867 695.536 84.1589 696.271 86.4844C697.003 88.8115 696.562 87.7993 695.391 90.5303C694.218 93.2613 698.029 92.3504 700.814 92.9572C703.599 93.5639 701.987 94.7773 703.013 96.8002C704.037 98.8232 709.021 99.6326 710.633 97.8124C712.247 95.9923 714.884 100.084 717.816 98.8477C720.748 97.6097 720.895 93.1599 717.228 92.9572Z" fill="#B76E00"/>
<path d="M829.944 99.4298C832.259 98.7632 836.099 97.3055 834.047 95.4854C831.994 93.6652 830.968 95.4854 827.304 94.7773C823.64 94.0692 820.123 90.3275 816.606 93.3611C813.087 96.3962 812.354 99.5312 815.433 99.4298C818.511 99.33 818.803 99.2286 819.244 102.059C819.682 104.892 826.572 103.577 825.252 101.25C823.934 98.9245 827.075 100.256 829.944 99.4298Z" fill="#B76E00"/>
<path d="M848.264 96.4978C851.093 96.4256 853.101 93.9679 850.61 93.16C848.117 92.3505 849.143 92.6531 845.479 93.16C841.815 93.6653 838.151 91.7438 838.298 93.8681C838.445 95.9924 840.495 96.0938 842.988 95.3842C845.479 94.6761 844.306 96.5991 848.264 96.4978Z" fill="#B76E00"/>
<path d="M843.427 108.027C844.729 106.904 845.185 105.397 841.815 105.701C838.445 106.004 838.298 107.319 835.952 106.308C833.608 105.296 831.843 108.938 834.63 109.443C837.419 109.948 840.495 110.555 843.427 108.027Z" fill="#B76E00"/>
<path d="M916.713 193.843C918.165 194.193 921.33 196.422 923.529 201.428C925.727 206.435 932.322 210.228 931.663 211.744C931.004 213.261 926.388 211.744 926.826 213.716C927.267 215.69 933.863 219.178 933.863 220.848C933.863 222.516 931.004 225.095 928.367 223.577C925.727 222.061 928.585 218.723 926.826 217.054C925.068 215.386 923.529 209.93 924.188 208.941C924.847 207.951 920.892 203.25 918.913 201.58C916.934 199.912 912.317 192.78 916.713 193.843Z" fill="#B76E00"/>
<path d="M946.395 228.736C945.921 230.137 945.734 232.831 943.096 232.831C940.458 232.831 942.437 236.017 939.797 236.017C937.159 236.017 935.18 232.831 933.862 234.349C932.542 235.867 932.983 238.446 930.784 238.446C928.585 238.446 927.705 236.928 927.705 235.715C927.705 234.501 930.784 234.045 931.225 232.073C931.663 230.1 929.905 226.612 931.225 225.853C932.542 225.095 932.763 229.039 937.05 229.039C941.337 229.039 947.06 226.764 946.395 228.736Z" fill="#B76E00"/>
<path d="M933.863 237.232C933.863 237.232 934.575 239.962 937.077 241.177C939.579 242.39 938.479 244.817 940.017 246.182C941.558 247.548 944.636 248.307 943.096 249.823C941.558 251.34 938.459 250.734 938.689 252.706C938.92 254.678 938.092 257.409 937.077 258.622C936.062 259.836 929.684 257.553 928.585 260.742C927.487 263.932 924.409 262.415 922.209 261.96C920.01 261.504 914.136 260.595 914.875 264.387C915.614 268.179 912.976 275.31 911.876 272.428C910.777 269.545 907.039 266.207 909.677 262.869C912.317 259.532 917.593 258.622 920.892 257.864C924.188 257.105 926.982 254.374 926.134 251.492C925.288 248.609 929.464 250.429 932.104 248.003C934.742 245.576 928.585 243.451 929.464 241.327C930.345 239.204 933.863 240.114 933.863 237.232Z" fill="#B76E00"/>
<path d="M954.97 221.454C954.97 221.454 953.209 224.119 952.111 224.038C951.012 223.957 948.042 225.322 947.933 226.46C947.824 227.598 946.17 227.025 946.448 225.757C946.724 224.488 949.149 223.906 951.671 223.199C954.193 222.491 954.97 221.454 954.97 221.454Z" fill="#B76E00"/>
<path d="M963.324 202.414C963.324 202.414 960.575 201.428 960.354 203.25C960.136 205.07 959.695 206.056 960.354 207.876C961.015 209.696 960.007 211.669 960.007 211.669C960.007 211.669 961.656 209.165 961.665 207.649C961.674 206.131 961.015 202.339 963.324 202.414Z" fill="#B76E00"/>
<path d="M816.018 331.291C816.018 331.291 822.834 331.518 824.593 333.186C826.351 334.856 825.252 335.386 828.11 336.828C830.968 338.269 833.276 338.723 837.345 341C841.412 343.275 841.521 346.082 843.83 347.598C846.138 349.116 847.349 349.495 848.228 351.391C849.108 353.288 848.008 355.867 847.02 356.473C846.029 357.08 842.292 356.473 841.083 355.337C839.874 354.199 838.004 353.44 835.916 351.922C833.826 350.405 830.75 347.296 829.539 345.096C828.33 342.897 827.671 341.075 824.043 338.875C820.417 336.676 812.83 332.049 816.018 331.291Z" fill="#B76E00"/>
<path d="M879.118 328.787C879.016 329.503 879.777 330.607 876.26 331.973C872.741 333.338 870.653 333.338 868.674 335.765C866.695 338.193 867.574 339.027 862.849 339.482C858.121 339.937 857.462 339.786 856.912 340.316C856.362 340.848 856.912 344.185 859.55 346.689C862.187 349.191 864.166 350.329 866.036 351.997C867.904 353.667 874.72 353.742 876.59 352.985C878.457 352.226 878.678 348.205 881.097 346.916C883.515 345.626 883.074 342.972 884.394 342.592C885.714 342.213 887.473 340.924 885.932 340.241C884.394 339.559 882.415 336.221 883.074 335.31C883.735 334.399 884.824 333.945 886.533 333.413C888.241 332.883 888.461 331.67 888.241 331.291C888.022 330.911 886.044 330.911 885.273 330.38C884.505 329.848 884.394 328.332 882.526 328.105C880.657 327.876 879.272 327.689 879.118 328.787Z" fill="#B76E00"/>
<path d="M891.649 341.379C891.649 341.379 895.386 340.453 897.036 340.688C898.685 340.924 901.543 341.986 903.081 341.379C904.622 340.772 905.722 339.559 906.489 340.089C907.26 340.62 905.61 343.274 903.411 343.579C901.214 343.883 897.365 342.592 895.607 342.897C893.848 343.199 891.431 344.413 891.649 345.626C891.869 346.839 893.739 347.371 894.177 346.462C894.618 345.551 900.773 344.717 901.434 345.703C902.093 346.689 899.455 347.446 897.476 347.446C895.498 347.446 894.836 348.509 895.057 349.268C895.277 350.027 895.827 350.481 897.365 350.633C898.906 350.784 900.994 351.997 900.994 353.136C900.994 354.274 897.806 353.831 896.377 353.446C894.948 353.06 893.298 351.695 892.639 351.315C891.98 350.936 892.639 354.046 892.09 355.185C891.54 356.321 888.933 356.853 888.312 355.867C887.693 354.88 888.352 353.363 888.902 351.922C889.452 350.481 888.383 349.041 888.312 346.992C888.241 344.944 888.929 341.917 891.649 341.379Z" fill="#B76E00"/>
<path d="M918.766 341.152C918.846 340.998 918.728 340.835 918.701 340.694C918.492 339.608 917.909 339.175 915.834 339.533C913.488 339.937 912.903 341.05 913.929 342.061C914.955 343.073 912.609 344.287 914.955 344.893C917.299 345.5 916.566 342.545 917.007 342.152C917.446 341.758 918.178 342.264 918.766 341.152Z" fill="#B76E00"/>
<path d="M914.735 350.203C913.533 349.314 912.391 348.111 910.483 348.171C908.58 348.231 905.354 348.635 905.648 349.445C905.94 350.254 907.772 351.468 909.459 350.658C911.144 349.849 913.196 351.163 914.294 351.163C915.394 351.163 915.407 350.701 914.735 350.203Z" fill="#B76E00"/>
<path d="M943.755 347.675C942.052 348.053 941.008 348.32 939.579 349.667C938.15 351.013 936.062 350.824 935.071 349.667C934.083 348.509 933.422 345.158 931.554 344.975C929.684 344.792 926.497 346.233 925.617 346.385C924.738 346.537 926.497 348.133 927.705 348.17C928.916 348.205 932.763 348.584 932.322 349.268C931.884 349.95 929.025 349.723 928.696 350.177C928.367 350.633 928.805 351.695 931.993 351.922C935.18 352.149 935.292 353.149 938.039 353.446C940.788 353.742 945.075 354.55 946.284 356.384C947.492 358.218 945.295 360.343 945.625 361.329C945.954 362.315 951.45 360.645 952.661 361.935C953.87 363.224 955.408 364.439 957.828 363.983C960.245 363.528 961.454 360.57 964.862 360.645C968.27 360.722 972.119 361.524 972.887 364.081C973.657 366.639 977.944 367.168 981.352 367.168C984.76 367.168 985.419 364.666 982.231 364.06C979.044 363.453 973.327 361.708 972.777 359.508C972.228 357.307 965.191 352.226 961.674 351.163C958.157 350.102 953.1 349.276 951.45 348.171C949.801 347.068 946.833 346.992 943.755 347.675Z" fill="#B76E00"/>
<path d="M846.688 358.37C848.965 357.595 852.075 355.664 854.274 356.713C856.473 357.764 859 358.75 860.979 358.37C862.958 357.991 864.607 357.323 866.586 358.453C868.565 359.584 871.96 360.19 872.516 360.57C873.071 360.949 869.115 362.315 868.124 361.935C867.136 361.556 861.529 361.556 860.649 360.645C859.77 359.736 854.713 360.797 853.065 360.874C851.416 360.949 848.101 360.57 848.549 360.266C848.996 359.963 850.316 359.834 849.767 359.217C849.217 358.598 844.553 359.098 846.688 358.37Z" fill="#B76E00"/>
<path d="M872.156 359.204C872.156 359.204 869.15 359.002 869.004 358.75C868.857 358.496 870.03 357.991 870.982 358.143C871.935 358.293 873.547 358.215 873.255 358.659C872.961 359.103 872.743 359.249 872.156 359.204Z" fill="#B76E00"/>
<path d="M878.128 361.631C878.128 361.631 876.369 360.874 875.049 361.631C873.732 362.39 876.149 362.39 876.59 363.074C877.028 363.756 877.578 363.224 878.128 362.769C878.678 362.315 879.448 362.542 878.128 361.631Z" fill="#B76E00"/>
<path d="M909.239 362.001C904.693 363.519 905.722 361.146 903.302 363.399C900.884 365.652 898.026 366.334 900.444 366.791C902.863 367.245 901.285 365.955 904.382 365.121C907.48 364.287 910.668 364.711 911.986 363.399C913.306 362.087 911.767 361.157 909.239 362.001Z" fill="#B76E00"/>
<path d="M890.881 364.742C890.527 363.961 890.661 363.118 888.682 363.399C886.703 363.68 884.944 363.972 886.923 364.281C888.902 364.59 887.911 364.817 889.231 365.5C890.551 366.182 891.29 365.646 890.881 364.742Z" fill="#B76E00"/>
<path d="M890.769 286.082C889.461 286.421 891.571 286.384 888.312 287.447C885.053 288.508 884.724 288.888 885.823 290.633C886.923 292.378 884.285 294.5 887.473 293.818C890.66 293.136 891.101 292.68 890.769 290.86C890.44 289.04 892.528 285.627 890.769 286.082Z" fill="#B76E00"/>
<path d="M889.89 302.239C888.96 303.589 891.319 303.527 889.231 305.576C887.143 307.624 885.494 308.837 887.361 310.203C889.231 311.568 890.881 312.63 890.99 314.451C891.101 316.272 892.528 316.651 893.409 317.258C894.289 317.864 894.398 315.513 895.936 314.223C897.476 312.934 899.124 314.299 900.553 315.361C901.984 316.422 904.511 313.693 902.313 312.175C900.114 310.658 895.936 312.478 895.607 310.43C895.277 308.383 896.927 308.762 896.927 305.727C896.927 302.693 892.089 299.053 889.89 302.239Z" fill="#B76E00"/>
<path d="M888.312 316.12C886.088 317.196 885.823 316.651 885.932 319.001C886.044 321.353 884.065 322.264 883.185 323.25C882.306 324.236 882.306 324.918 884.174 324.084C886.044 323.25 890.22 321.956 889.122 320.29C888.023 318.623 890.66 317.94 890.44 316.726C890.22 315.513 889.1 315.739 888.312 316.12Z" fill="#B76E00"/>
<path d="M896.047 329.394C895.606 327.498 895.509 326.89 897.372 325.753C899.235 324.615 900.334 323.554 898.905 321.732C897.476 319.912 898.783 316.696 899.558 317.356C900.334 318.017 899.785 318.623 900.773 320.671C901.764 322.718 900.223 323.62 902.093 324.459C903.961 325.297 905.975 324.161 905.628 322.643C905.281 321.125 906.601 319.001 908.03 320.443C909.459 321.884 908.613 324.388 910.409 325.677C912.206 326.967 910.447 329.091 908.689 330C906.93 330.911 905.721 332.656 904.072 330.834C902.422 329.014 903.302 326.967 901.214 326.815C899.124 326.663 897.365 328.028 898.244 328.939C899.124 329.848 898.367 331.291 897.372 331.291C896.377 331.291 896.047 329.394 896.047 329.394Z" fill="#B76E00"/>
<path d="M937.159 376.043C939.299 374.633 943.096 373.162 941.117 370.886C939.138 368.611 935.842 371.949 934.083 370.886C932.322 369.824 930.784 370.583 926.608 371.34C922.43 372.099 918.693 373.314 917.593 376.043C916.493 378.774 913.722 376.043 912.469 374.223C911.218 372.403 903.302 376.5 900.884 379.836C898.465 383.174 894.507 381.201 894.068 383.326C893.628 385.45 892.214 388.029 888.524 388.181C884.835 388.333 871.423 391.519 867.904 393.946C864.387 396.372 864.387 403.503 865.927 408.206C867.466 412.909 869.883 417.764 866.586 420.039C863.287 422.315 862.188 424.288 868.124 424.894C874.061 425.501 876.699 420.95 883.515 422.466C890.331 423.984 893.189 420.95 898.026 419.28C902.863 417.612 905.94 416.247 914.076 417.612C922.21 418.978 918.472 425.956 923.53 426.563C928.585 427.169 930.346 422.011 932.983 422.922C935.621 423.831 929.026 427.473 931.225 428.989C933.422 430.507 933.863 428.687 934.742 430.81C935.621 432.934 936.48 437.637 941.656 439.457C946.834 441.279 947.054 437.03 949.692 438.396C952.33 439.761 952.111 442.34 954.308 442.036C956.508 441.734 954.529 437.941 960.245 438.396C965.962 438.85 964.203 437.789 965.741 432.782C967.282 427.776 977.833 425.349 980.691 420.039C983.549 414.729 984.869 403.352 982.67 400.014C980.473 396.677 979.153 395.463 976.074 391.669C972.998 387.877 971.019 390.912 968.379 386.057C965.741 381.201 966.182 377.409 963.324 374.83C960.466 372.251 960.686 368.004 958.487 368.004C956.287 368.004 956.067 381.658 952.77 383.326C949.471 384.995 949.033 381.506 945.734 380.595C942.437 379.685 933.785 378.271 937.159 376.043Z" fill="#B76E00"/>
<path d="M953.796 448.965C953.796 448.965 949.692 449.976 949.545 448.965C949.398 447.953 946.028 445.83 945.295 447.245C944.563 448.661 946.76 449.572 945.295 451.796C943.828 454.022 943.975 457.055 946.175 456.045C948.374 455.032 953.064 454.831 953.209 453.314C953.356 451.796 956.109 448.558 953.796 448.965Z" fill="#B76E00"/>
<path d="M1029.13 456.244C1029.13 456.244 1027.08 451.999 1024.44 453.415C1021.81 454.831 1020.93 459.078 1017.41 460.494C1013.89 461.91 1010.37 462.113 1007.44 465.147C1004.51 468.18 1000.11 468.383 1002.17 471.62C1004.22 474.856 1006.86 474.046 1012.13 470.203C1017.41 466.36 1018.87 464.847 1025.03 463.379C1031.19 461.91 1030.7 458.393 1029.13 456.244Z" fill="#B76E00"/>
<path d="M1036.17 456.244C1035.42 454.909 1037.63 454.255 1036.17 451.509C1034.7 448.762 1031.48 448.627 1032.65 446.773C1033.82 444.919 1035.15 447.294 1036.54 442.061C1037.93 436.828 1033.39 433.39 1036.54 432.175C1039.69 430.962 1038.52 436.02 1039.98 438.244C1041.45 440.469 1044.38 438.192 1044.09 442.061C1043.79 445.93 1048.48 440.7 1049.65 444.124C1050.83 447.549 1043.2 447.581 1042.32 451.509C1041.45 455.438 1037.63 458.872 1036.17 456.244Z" fill="#B76E00"/>
<path d="M618.577 180.992H693.054C695.118 180.992 696.789 182.145 696.789 183.569V212.48H614.841V183.569C614.841 182.145 616.513 180.992 618.577 180.992Z" fill="#F79035"/>
<path d="M589.879 180.992H659.165C661.229 180.992 662.901 182.145 662.901 183.569V212.48H586.141V183.569C586.141 182.145 587.815 180.992 589.879 180.992Z" fill="#F9E122"/>
<path d="M658.462 184.054V209.417H590.582V184.054H658.462Z" fill="#FAB82A"/>
<path d="M693.441 184.054V209.417H667.21V184.054H693.441Z" fill="#FAB82A"/>
<path d="M595.829 184.054H590.582V209.417H595.829V184.054Z" fill="#F79035"/>
<path d="M606.32 184.054H601.076V209.417H606.32V184.054Z" fill="#F79035"/>
<path d="M616.613 184.054H611.366V209.417H616.613V184.054Z" fill="#F79035"/>
<path d="M627.106 184.054H621.86V209.417H627.106V184.054Z" fill="#F79035"/>
<path d="M637.475 184.054H632.229V209.417H637.475V184.054Z" fill="#F79035"/>
<path d="M647.969 184.054H642.722V209.417H647.969V184.054Z" fill="#F79035"/>
<path d="M658.462 184.054H653.215V209.417H658.462V184.054Z" fill="#F79035"/>
<path d="M672.457 184.054H667.21V209.417H672.457V184.054Z" fill="#F46B31"/>
<path d="M682.95 184.054H677.703V209.417H682.95V184.054Z" fill="#F46B31"/>
<path d="M693.441 184.054H688.197V209.417H693.441V184.054Z" fill="#F46B31"/>
<path d="M698.973 180.992H773.448C775.512 180.992 777.185 182.145 777.185 183.569V212.48H695.238V183.569C695.238 182.145 696.909 180.992 698.973 180.992Z" fill="#CA233C"/>
<path d="M670.275 180.992H739.562C741.625 180.992 743.297 182.145 743.297 183.569V212.48H666.538V183.569C666.538 182.145 668.212 180.992 670.275 180.992Z" fill="#F35A83"/>
<path d="M738.856 184.054V209.417H670.979V184.054H738.856Z" fill="#F03760"/>
<path d="M773.838 184.054V209.417H747.606V184.054H773.838Z" fill="#F03760"/>
<path d="M676.225 184.054H670.979V209.417H676.225V184.054Z" fill="#CA233C"/>
<path d="M686.716 184.054H681.47V209.417H686.716V184.054Z" fill="#CA233C"/>
<path d="M697.01 184.054H691.763V209.417H697.01V184.054Z" fill="#CA233C"/>
<path d="M707.503 184.054H702.256V209.417H707.503V184.054Z" fill="#CA233C"/>
<path d="M717.872 184.054H712.625V209.417H717.872V184.054Z" fill="#CA233C"/>
<path d="M728.365 184.054H723.118V209.417H728.365V184.054Z" fill="#CA233C"/>
<path d="M738.856 184.054H733.612V209.417H738.856V184.054Z" fill="#CA233C"/>
<path d="M752.853 184.054H747.606V209.417H752.853V184.054Z" fill="#90182C"/>
<path d="M763.347 184.054H758.1V209.417H763.347V184.054Z" fill="#90182C"/>
<path d="M773.838 184.054H768.591V209.417H773.838V184.054Z" fill="#90182C"/>
<path d="M648.089 149.502H722.566C724.63 149.502 726.301 150.657 726.301 152.081V180.991H644.354V152.081C644.354 150.657 646.025 149.502 648.089 149.502Z" fill="#F79035"/>
<path d="M619.391 149.502H688.678C690.741 149.502 692.413 150.657 692.413 152.081V180.991H615.654V152.081C615.654 150.657 617.328 149.502 619.391 149.502Z" fill="#F9E122"/>
<path d="M687.974 152.566V177.927H620.094V152.566H687.974Z" fill="#FAB82A"/>
<path d="M722.954 152.566V177.927H696.722V152.566H722.954Z" fill="#FAB82A"/>
<path d="M625.341 152.566H620.094V177.927H625.341V152.566Z" fill="#F79035"/>
<path d="M635.835 152.566H630.588V177.927H635.835V152.566Z" fill="#F79035"/>
<path d="M646.125 152.566H640.879V177.927H646.125V152.566Z" fill="#F79035"/>
<path d="M656.619 152.566H651.372V177.927H656.619V152.566Z" fill="#F79035"/>
<path d="M666.987 152.566H661.741V177.927H666.987V152.566Z" fill="#F79035"/>
<path d="M677.481 152.566H672.234V177.927H677.481V152.566Z" fill="#F79035"/>
<path d="M687.974 152.566H682.728V177.927H687.974V152.566Z" fill="#F79035"/>
<path d="M701.969 152.566H696.722V177.927H701.969V152.566Z" fill="#F46B31"/>
<path d="M712.462 152.566H707.216V177.927H712.462V152.566Z" fill="#F46B31"/>
<path d="M722.954 152.566H717.709V177.927H722.954V152.566Z" fill="#F46B31"/>
<path d="M228.374 349.666H302.85C304.913 349.666 306.587 350.821 306.587 352.245V381.155H224.637V352.245C224.637 350.821 226.311 349.666 228.374 349.666Z" fill="#F79035"/>
<path d="M199.675 349.666H268.961C271.024 349.666 272.698 350.821 272.698 352.245V381.155H195.938V352.245C195.938 350.821 197.611 349.666 199.675 349.666Z" fill="#F9E122"/>
<path d="M268.257 352.73V378.091H200.379V352.73H268.257Z" fill="#FAB82A"/>
<path d="M303.239 352.73V378.091H277.008V352.73H303.239Z" fill="#FAB82A"/>
<path d="M205.625 352.73H200.379V378.091H205.625V352.73Z" fill="#F79035"/>
<path d="M216.118 352.73H210.872V378.091H216.118V352.73Z" fill="#F79035"/>
<path d="M226.411 352.73H221.164V378.091H226.411V352.73Z" fill="#F79035"/>
<path d="M236.902 352.73H231.658V378.091H236.902V352.73Z" fill="#F79035"/>
<path d="M247.273 352.73H242.026V378.091H247.273V352.73Z" fill="#F79035"/>
<path d="M257.764 352.73H252.52V378.091H257.764V352.73Z" fill="#F79035"/>
<path d="M268.257 352.73H263.011V378.091H268.257V352.73Z" fill="#F79035"/>
<path d="M282.255 352.73H277.008V378.091H282.255V352.73Z" fill="#F46B31"/>
<path d="M292.746 352.73H287.499V378.091H292.746V352.73Z" fill="#F46B31"/>
<path d="M303.239 352.73H297.992V378.091H303.239V352.73Z" fill="#F46B31"/>
<path d="M270.989 318.178H345.464C347.528 318.178 349.199 319.331 349.199 320.757V349.666H267.251V320.757C267.251 319.331 268.925 318.178 270.989 318.178Z" fill="#CA233C"/>
<path d="M242.289 318.178H311.575C313.639 318.178 315.313 319.331 315.313 320.757V349.666H238.552V320.757C238.552 319.331 240.225 318.178 242.289 318.178Z" fill="#F35A83"/>
<path d="M310.872 321.242V346.603H242.992V321.242H310.872Z" fill="#F03760"/>
<path d="M345.854 321.242V346.603H319.62V321.242H345.854Z" fill="#F03760"/>
<path d="M248.239 321.242H242.992V346.603H248.239V321.242Z" fill="#CA233C"/>
<path d="M258.732 321.242H253.486V346.603H258.732V321.242Z" fill="#CA233C"/>
<path d="M269.023 321.242H263.779V346.603H269.023V321.242Z" fill="#CA233C"/>
<path d="M279.517 321.242H274.27V346.603H279.517V321.242Z" fill="#CA233C"/>
<path d="M289.888 321.242H284.641V346.603H289.888V321.242Z" fill="#CA233C"/>
<path d="M300.379 321.242H295.132V346.603H300.379V321.242Z" fill="#CA233C"/>
<path d="M310.872 321.242H305.625V346.603H310.872V321.242Z" fill="#CA233C"/>
<path d="M324.867 321.242H319.62V346.603H324.867V321.242Z" fill="#90182C"/>
<path d="M335.36 321.242H330.114V346.603H335.36V321.242Z" fill="#90182C"/>
<path d="M345.854 321.242H340.607V346.603H345.854V321.242Z" fill="#90182C"/>
<path d="M309.443 349.666H383.918C385.982 349.666 387.656 350.821 387.656 352.245V381.155H305.705V352.245C305.705 350.821 307.379 349.666 309.443 349.666Z" fill="#CA233C"/>
<path d="M280.743 349.666H350.03C352.093 349.666 353.767 350.821 353.767 352.245V381.155H277.008V352.245C277.008 350.821 278.68 349.666 280.743 349.666Z" fill="#F35A83"/>
<path d="M349.326 352.73V378.091H281.447V352.73H349.326Z" fill="#F03760"/>
<path d="M384.308 352.73V378.091H358.077V352.73H384.308Z" fill="#F03760"/>
<path d="M286.693 352.73H281.447V378.091H286.693V352.73Z" fill="#CA233C"/>
<path d="M297.187 352.73H291.94V378.091H297.187V352.73Z" fill="#CA233C"/>
<path d="M307.48 352.73H302.233V378.091H307.48V352.73Z" fill="#CA233C"/>
<path d="M317.971 352.73H312.726V378.091H317.971V352.73Z" fill="#CA233C"/>
<path d="M328.342 352.73H323.095V378.091H328.342V352.73Z" fill="#CA233C"/>
<path d="M338.833 352.73H333.588V378.091H338.833V352.73Z" fill="#CA233C"/>
<path d="M349.326 352.73H344.079V378.091H349.326V352.73Z" fill="#CA233C"/>
<path d="M363.323 352.73H358.077V378.091H363.323V352.73Z" fill="#90182C"/>
<path d="M373.814 352.73H368.568V378.091H373.814V352.73Z" fill="#90182C"/>
<path d="M384.308 352.73H379.061V378.091H384.308V352.73Z" fill="#90182C"/>
<path d="M797.954 239.419H872.43C874.493 239.419 876.167 240.574 876.167 241.998V270.909H794.217V241.998C794.217 240.574 795.891 239.419 797.954 239.419Z" fill="#189091"/>
<path d="M769.254 239.419H838.541C840.604 239.419 842.278 240.574 842.278 241.998V270.909H765.519V241.998C765.519 240.574 767.191 239.419 769.254 239.419Z" fill="#78D1C3"/>
<path d="M837.837 242.484V267.845H769.96V242.484H837.837Z" fill="#1FB399"/>
<path d="M872.819 242.484V267.845H846.588V242.484H872.819Z" fill="#1FB399"/>
<path d="M775.204 242.484H769.96V267.845H775.204V242.484Z" fill="#189091"/>
<path d="M785.698 242.484H780.451V267.845H785.698V242.484Z" fill="#189091"/>
<path d="M795.991 242.484H790.744V267.845H795.991V242.484Z" fill="#189091"/>
<path d="M806.482 242.484H801.238V267.845H806.482V242.484Z" fill="#189091"/>
<path d="M816.853 242.484H811.606V267.845H816.853V242.484Z" fill="#189091"/>
<path d="M827.346 242.484H822.1V267.845H827.346V242.484Z" fill="#189091"/>
<path d="M837.838 242.484H832.591V267.845H837.838V242.484Z" fill="#189091"/>
<path d="M851.834 242.484H846.588V267.845H851.834V242.484Z" fill="#116569"/>
<path d="M862.325 242.484H857.079V267.845H862.325V242.484Z" fill="#116569"/>
<path d="M872.819 242.484H867.572V267.845H872.819V242.484Z" fill="#116569"/>
<path d="M517.416 292.961H591.891C593.955 292.961 595.629 294.115 595.629 295.539V324.449H513.681V295.539C513.681 294.115 515.352 292.961 517.416 292.961Z" fill="#CA233C"/>
<path d="M488.718 292.961H558.003C560.068 292.961 561.74 294.115 561.74 295.539V324.449H484.981V295.539C484.981 294.115 486.653 292.961 488.718 292.961Z" fill="#F35A83"/>
<path d="M557.299 296.024V321.387H489.422V296.024H557.299Z" fill="#F03760"/>
<path d="M592.281 296.024V321.387H566.05V296.024H592.281Z" fill="#F03760"/>
<path d="M494.666 296.024H489.422V321.387H494.666V296.024Z" fill="#CA233C"/>
<path d="M505.16 296.024H499.913V321.387H505.16V296.024Z" fill="#CA233C"/>
<path d="M515.453 296.024H510.206V321.387H515.453V296.024Z" fill="#CA233C"/>
<path d="M525.946 296.024H520.699V321.387H525.946V296.024Z" fill="#CA233C"/>
<path d="M536.315 296.024H531.068V321.387H536.315V296.024Z" fill="#CA233C"/>
<path d="M546.808 296.024H541.561V321.387H546.808V296.024Z" fill="#CA233C"/>
<path d="M557.299 296.024H552.055V321.387H557.299V296.024Z" fill="#CA233C"/>
<path d="M571.296 296.024H566.05V321.387H571.296V296.024Z" fill="#90182C"/>
<path d="M581.787 296.024H576.543V321.387H581.787V296.024Z" fill="#90182C"/>
<path d="M592.281 296.024H587.034V321.387H592.281V296.024Z" fill="#90182C"/>
<path d="M522.923 324.449H597.398C599.462 324.449 601.136 325.604 601.136 327.028V355.939H519.186V327.028C519.186 325.604 520.859 324.449 522.923 324.449Z" fill="#189091"/>
<path d="M494.223 324.449H563.51C565.573 324.449 567.247 325.604 567.247 327.028V355.939H490.488V327.028C490.488 325.604 492.16 324.449 494.223 324.449Z" fill="#78D1C3"/>
<path d="M562.806 327.514V352.874H494.929V327.514H562.806Z" fill="#1FB399"/>
<path d="M597.788 327.514V352.874H571.557V327.514H597.788Z" fill="#1FB399"/>
<path d="M500.173 327.514H494.929V352.874H500.173V327.514Z" fill="#189091"/>
<path d="M510.667 327.514H505.42V352.874H510.667V327.514Z" fill="#189091"/>
<path d="M520.96 327.514H515.713V352.874H520.96V327.514Z" fill="#189091"/>
<path d="M531.451 327.514H526.206V352.874H531.451V327.514Z" fill="#189091"/>
<path d="M541.822 327.514H536.575V352.874H541.822V327.514Z" fill="#189091"/>
<path d="M552.315 327.514H547.068V352.874H552.315V327.514Z" fill="#189091"/>
<path d="M562.806 327.514H557.56V352.874H562.806V327.514Z" fill="#189091"/>
<path d="M576.803 327.514H571.557V352.874H576.803V327.514Z" fill="#116569"/>
<path d="M587.294 327.514H582.048V352.874H587.294V327.514Z" fill="#116569"/>
<path d="M597.788 327.514H592.541V352.874H597.788V327.514Z" fill="#116569"/>
<path d="M599.435 173.244C599.435 173.244 579.459 158.618 543.393 146.387C507.33 134.154 467.758 133.741 467.758 133.741L473.228 127.241L436.136 138.174L465.189 151.439V142.132C465.189 142.132 535.967 144.525 599.435 173.244Z" fill="#FF6D03"/>
<path d="M812.592 276.687C812.592 276.687 812.134 312.608 822.665 337.438C833.196 362.269 852.233 385.216 852.233 385.216H832.319L873.825 398.19L876.75 376.143L866.146 380.367C866.146 380.367 846.69 361.473 832.319 334.826C817.948 308.178 812.592 276.687 812.592 276.687Z" fill="#FF6D03"/>
<path d="M360.189 321.187C360.189 321.187 372.523 294.625 357.923 271.038C343.325 247.451 309.677 238.687 309.677 238.687L321.292 234.059H274.185C274.185 234.059 298.302 260.874 298.393 260.595C298.487 260.317 301.276 249.288 301.276 249.288C301.276 249.288 363.292 257.076 360.189 321.187Z" fill="#FF6D03"/>
<path d="M615.654 315.815C615.654 315.815 658.827 307.194 681.871 292.654C704.912 278.116 707.783 270.264 707.783 270.264L691.34 270.024L728.948 253.835L732.209 280.97L720.118 273.758C720.118 273.758 700.322 310.929 615.654 315.815Z" fill="#FF6D03"/>
<path d="M160.078 170.869C160.078 170.869 156.954 201.807 168.807 221.74C180.662 241.673 190.358 246.235 190.358 246.235L196.342 235.662L205.427 265.599L167.384 258.375L181.357 253.022C181.357 253.022 137.59 227.405 160.078 170.869Z" fill="#FF6D03"/>
<path d="M992.647 149.37C992.647 149.37 995.772 180.308 983.916 200.241C972.063 220.173 962.366 224.735 962.366 224.735L956.383 214.164L947.297 244.101L985.341 236.876L971.368 231.524C971.368 231.524 1015.13 205.907 992.647 149.37Z" fill="#FF6D03"/>
<path d="M149.994 134.498H224.47C226.533 134.498 228.207 135.653 228.207 137.077V165.988H146.258V137.077C146.258 135.653 147.931 134.498 149.994 134.498Z" fill="#F79035"/>
<path d="M121.295 134.498H190.582C192.646 134.498 194.318 135.653 194.318 137.077V165.988H117.559V137.077C117.559 135.653 119.232 134.498 121.295 134.498Z" fill="#F9E122"/>
<path d="M189.878 137.563V162.924H122V137.563H189.878Z" fill="#FAB82A"/>
<path d="M224.859 137.563V162.924H198.628V137.563H224.859Z" fill="#FAB82A"/>
<path d="M127.246 137.563H122V162.924H127.246V137.563Z" fill="#F79035"/>
<path d="M137.738 137.563H132.491V162.924H137.738V137.563Z" fill="#F79035"/>
<path d="M148.031 137.563H142.784V162.924H148.031V137.563Z" fill="#F79035"/>
<path d="M158.524 137.563H153.277V162.924H158.524V137.563Z" fill="#F79035"/>
<path d="M168.893 137.563H163.647V162.924H168.893V137.563Z" fill="#F79035"/>
<path d="M179.385 137.563H174.139V162.924H179.385V137.563Z" fill="#F79035"/>
<path d="M189.878 137.563H184.632V162.924H189.878V137.563Z" fill="#F79035"/>
<path d="M203.874 137.563H198.628V162.924H203.874V137.563Z" fill="#F46B31"/>
<path d="M214.367 137.563H209.12V162.924H214.367V137.563Z" fill="#F46B31"/>
<path d="M224.859 137.563H219.613V162.924H224.859V137.563Z" fill="#F46B31"/>
<path d="M900.942 124.187H975.418C977.481 124.187 979.155 125.341 979.155 126.766V155.677H897.205V126.766C897.205 125.341 898.879 124.187 900.942 124.187Z" fill="#CA233C"/>
<path d="M872.242 124.187H941.531C943.595 124.187 945.266 125.341 945.266 126.766V155.677H868.507V126.766C868.507 125.341 870.179 124.187 872.242 124.187Z" fill="#F35A83"/>
<path d="M940.826 127.251V152.612H872.948V127.251H940.826Z" fill="#F03760"/>
<path d="M975.807 127.251V152.612H949.576V127.251H975.807Z" fill="#F03760"/>
<path d="M878.193 127.251H872.948V152.612H878.193V127.251Z" fill="#CA233C"/>
<path d="M888.686 127.251H883.439V152.612H888.686V127.251Z" fill="#CA233C"/>
<path d="M898.979 127.251H893.732V152.612H898.979V127.251Z" fill="#CA233C"/>
<path d="M909.472 127.251H904.226V152.612H909.472V127.251Z" fill="#CA233C"/>
<path d="M919.841 127.251H914.594V152.612H919.841V127.251Z" fill="#CA233C"/>
<path d="M930.334 127.251H925.088V152.612H930.334V127.251Z" fill="#CA233C"/>
<path d="M940.825 127.251H935.579V152.612H940.825V127.251Z" fill="#CA233C"/>
<path d="M954.823 127.251H949.576V152.612H954.823V127.251Z" fill="#90182C"/>
<path d="M965.314 127.251H960.069V152.612H965.314V127.251Z" fill="#90182C"/>
<path d="M975.807 127.251H970.56V152.612H975.807V127.251Z" fill="#90182C"/>
<path d="M363.323 394.224C363.323 394.224 397.497 415.963 451.836 418.522C506.172 421.082 544.183 409.647 544.183 409.647L541.822 422.944L574.179 391.565L528.829 389.969L540.473 398.213C540.473 398.213 463.633 428.793 363.323 394.224Z" fill="#FF6D03"/>
<path d="M383.969 636.763L356.67 660.827C352.331 664.652 354.103 670.313 360.427 672.444C368.773 675.253 380.753 677.678 393.011 674.71C415.441 669.275 442.3 649.775 442.3 649.775L383.969 636.763Z" fill="#EA9792"/>
<path d="M810.308 515.406L1112.99 464.829V611.457L810.308 662.035V515.406Z" fill="#EF3449"/>
<path d="M766.746 531.385L810.308 525.032V654.629L766.746 660.98V531.385Z" fill="white"/>
<path d="M766.746 531.385L709.533 539.75L603.319 546.324C594.03 546.899 584.881 548.261 576.075 550.381L515.639 564.93L553.691 587.64L403.362 658.13L440.325 681.554L510.618 653.549L454.825 696.746L532.239 718.466L639.548 695.266L720.307 656.827L766.746 643.427V531.385Z" fill="#EA9792"/>
<path d="M579.194 601.15C579.194 601.15 614.133 613.571 641.449 615.76C668.762 617.948 691.558 615.292 691.558 615.292C691.558 615.292 641.326 630.138 601.826 617.793C562.328 605.448 579.194 601.15 579.194 601.15Z" fill="#A56E6C"/>
<path d="M302.667 515.406L0 465.741V612.369L302.667 662.035V515.406Z" fill="#8BC5ED"/>
<path d="M346.228 531.385L302.667 525.032V654.629L346.228 660.98V531.385Z" fill="white"/>
<path d="M346.228 531.385L403.44 539.75L511.506 541.056C521.233 541.173 530.908 542.062 540.339 543.704L601.269 554.315L553.691 587.64L722.711 662.197C729.81 665.329 730.609 672.272 724.318 676.138C709.557 685.208 688.079 686.81 670.85 680.125L602.356 653.549L645.184 686.707C651.572 691.655 649.079 699.464 640.273 702.101L597.919 714.788C576.97 721.063 553.875 723.116 531.304 720.711L498.234 717.186C484.983 715.774 472.72 711.509 463.19 705.001L392.666 656.827L346.228 643.427V531.385Z" fill="#CD6466"/>
<path d="M602.16 713.518L612.065 710.55L547.32 670.951L602.16 713.518Z" fill="#93494A"/>
<path d="M540.168 721.418C545.871 721.731 551.583 721.762 557.266 721.517L512.706 683.617L540.168 721.418Z" fill="#93494A"/>
<path d="M576.075 550.381L510.762 568.386L467.491 602.508C464.005 605.258 465.886 609.559 470.988 610.538C482.247 612.701 501.727 614.438 524.357 607.881C560.128 597.513 629.531 552.341 629.531 552.341L576.075 550.381Z" fill="#EA9792"/>
<path d="M461.632 709.449C457.196 707.331 457.156 702.83 461.468 700.592C468.203 697.094 479.28 692.538 494.257 690.352C509.714 688.096 520.782 691.715 527.253 695.056C531.235 697.112 531.355 701.173 527.422 703.274C519.564 707.474 505.974 713.988 493.92 716.05C482.465 718.006 469.626 713.264 461.632 709.449Z" fill="#EA9792"/>
<path d="M425.725 688.956C421.388 686.208 422.067 681.38 427.02 679.186C434.598 675.824 446.76 671.415 462.213 669.16C478.628 666.764 490.248 670.788 496.837 674.315C500.632 676.345 500.745 680.254 497.061 682.38C488.266 687.452 471.763 696.163 458.609 698.411C446.658 700.454 433.654 693.979 425.725 688.956Z" fill="#EA9792"/>
<path d="M511.771 725.932C507.691 724.577 506.593 720.878 509.652 718.574C514.978 714.564 524.441 708.785 538.469 704.956C551.554 701.387 562.187 703.13 569.019 705.359C573.8 706.919 574.929 711.289 571.318 713.957C564.879 718.714 554.263 725.729 544.017 728.81C533.508 731.972 519.994 728.659 511.771 725.932Z" fill="#EA9792"/>
<path d="M165.122 291.11H117.761C114.676 291.11 112.177 292.835 112.177 294.963V333.922H170.706V294.963C170.706 292.835 168.207 291.11 165.122 291.11Z" fill="#CD6466"/>
<path d="M116.835 291.11H71.886C68.8017 291.11 66.3019 292.835 66.3019 294.963V333.922H122.419V294.963C122.419 292.835 119.919 291.11 116.835 291.11Z" fill="#EA9792"/>
<path d="M104.304 297.78H84.4175V291.11H104.304V297.78Z" fill="#FAB82A"/>
<path d="M155.828 297.78H135.941V291.11H155.828V297.78Z" fill="#FAB82A"/>
<path d="M101.555 320.078H72.1006V329.434H101.555V320.078Z" fill="white"/>
<path d="M117.525 313.295H99.597V315.348H117.525V313.295Z" fill="#FAB82A"/>
<path d="M117.525 309.63H99.597V311.684H117.525V309.63Z" fill="#FAB82A"/>
<path d="M1030.92 398.19H983.554C980.471 398.19 977.971 399.914 977.971 402.042V441.003H1036.5V402.042C1036.5 399.914 1034 398.19 1030.92 398.19Z" fill="#CD6466"/>
<path d="M982.63 398.19H937.68C934.595 398.19 932.095 399.914 932.095 402.042V441.003H988.213V402.042C988.213 399.914 985.713 398.19 982.63 398.19Z" fill="#EA9792"/>
<path d="M970.097 404.859H950.21V398.189H970.097V404.859Z" fill="#FAB82A"/>
<path d="M1021.62 404.859H1001.74V398.189H1021.62V404.859Z" fill="#FAB82A"/>
<path d="M967.348 427.159H937.894V436.514H967.348V427.159Z" fill="white"/>
<path d="M983.318 420.374H965.392V422.428H983.318V420.374Z" fill="#FAB82A"/>
<path d="M983.318 416.711H965.392V418.763H983.318V416.711Z" fill="#FAB82A"/>
<path d="M482.753 69.7237H435.392C432.307 69.7237 429.807 71.4486 429.807 73.5775V112.537H488.338V73.5775C488.338 71.4486 485.838 69.7237 482.753 69.7237Z" fill="#CD6466"/>
<path d="M434.466 69.7237H389.517C386.434 69.7237 383.934 71.4486 383.934 73.5775V112.537H440.049V73.5775C440.049 71.4486 437.549 69.7237 434.466 69.7237Z" fill="#EA9792"/>
<path d="M421.934 76.3945H402.049V69.7237H421.934V76.3945Z" fill="#FAB82A"/>
<path d="M473.459 76.3945H453.572V69.7237H473.459V76.3945Z" fill="#FAB82A"/>
<path d="M419.187 98.6925H389.733V108.048H419.187V98.6925Z" fill="white"/>
<path d="M435.156 91.9097H417.228V93.9617H435.156V91.9097Z" fill="#FAB82A"/>
<path d="M435.156 88.2447H417.228V90.2969H435.156V88.2447Z" fill="#FAB82A"/>
<path d="M852.901 442.058C849.125 425.825 826.997 414.778 803.472 417.383C779.95 419.988 763.941 435.258 767.714 451.489C771.489 467.721 793.62 478.768 817.142 476.163C840.664 473.558 856.674 458.289 852.901 442.058Z" fill="#F9E122"/>
<path d="M842.692 443.187C839.823 430.846 822.997 422.446 805.111 424.427C787.225 426.407 775.053 438.018 777.922 450.36C780.794 462.7 797.618 471.1 815.504 469.119C833.39 467.139 845.562 455.528 842.692 443.187Z" fill="#F79035"/>
<path d="M817.223 449.937C816.962 448.819 815.477 448.36 813.374 448.102L814.4 452.512C816.635 451.903 817.461 450.96 817.223 449.937ZM807.464 443.118L806.409 438.58C804.045 439.235 803.286 440.27 803.53 441.325C803.791 442.443 805.322 442.896 807.464 443.118ZM815.382 456.731L815.842 458.711C816.047 459.594 815.177 460.424 813.897 460.565C812.619 460.708 811.415 460.107 811.21 459.224L810.772 457.339C807.477 457.564 804.183 457.375 801.525 456.852C799.873 456.528 798.929 455.335 799.377 454.192C799.833 453.031 801.565 452.344 803.241 452.671C805.284 453.068 807.575 453.249 809.799 453.154L808.557 447.816C803.214 447.521 797.197 446.976 796.133 442.405C795.345 439.018 798.237 435.716 805.42 434.329L804.966 432.379C804.761 431.498 805.632 430.667 806.912 430.525C808.189 430.384 809.394 430.985 809.598 431.868L810.037 433.753C812.356 433.625 814.685 433.697 816.804 434.001C818.534 434.249 819.636 435.425 819.237 436.614L819.235 436.623C818.841 437.8 817.14 438.479 815.426 438.233C813.915 438.016 812.434 437.932 811.019 437.97L812.283 443.405C817.617 443.666 823.542 444.222 824.591 448.727C825.363 452.052 822.511 455.318 815.382 456.731Z" fill="#F9E122"/>
<path d="M129.965 232.06C129.965 215.622 110.652 202.296 86.8281 202.296C63.0036 202.296 43.6904 215.622 43.6904 232.06C43.6904 248.5 63.0036 261.827 86.8281 261.827C110.652 261.827 129.965 248.5 129.965 232.06Z" fill="#F9E122"/>
<path d="M119.628 232.06C119.628 219.562 104.943 209.429 86.8281 209.429C68.714 209.429 54.0293 219.562 54.0293 232.06C54.0293 244.56 68.714 254.693 86.8281 254.693C104.943 254.693 119.628 244.56 119.628 232.06Z" fill="#F79035"/>
<path d="M92.9303 235.94C92.9303 234.808 91.5694 234.194 89.5521 233.708V238.174C91.8981 237.819 92.9303 236.977 92.9303 235.94ZM84.8611 228.14V223.545C82.3766 223.933 81.3899 224.872 81.3899 225.939C81.3899 227.073 82.7985 227.687 84.8611 228.14ZM89.5521 242.448V244.453C89.5521 245.347 88.5026 246.072 87.2071 246.072C85.9113 246.072 84.8611 245.347 84.8611 244.453V242.544C81.5499 242.405 78.3342 241.855 75.8257 241.047C74.2805 240.548 73.6258 239.275 74.3265 238.201L74.3414 238.18C75.0544 237.089 76.91 236.602 78.482 237.106C80.4115 237.725 82.6366 238.155 84.8611 238.304V232.899C79.6551 232.023 73.837 230.827 73.837 226.197C73.837 222.768 77.4509 219.823 84.8611 219.239V217.266C84.8611 216.372 85.9113 215.647 87.2071 215.647C88.5026 215.647 89.5521 216.372 89.5521 217.266V219.175C91.8721 219.302 94.1528 219.628 96.1763 220.159C97.8275 220.594 98.6447 221.877 97.9787 223.007L97.9744 223.015C97.3153 224.135 95.4807 224.618 93.845 224.188C92.4008 223.809 90.959 223.565 89.5521 223.446V228.95C94.7588 229.792 100.482 230.99 100.482 235.552C100.482 238.92 96.9171 241.832 89.5521 242.448Z" fill="#F9E122"/>
<path d="M1031.09 298.581C1033.7 282.24 1016.61 267.536 992.932 265.737C969.249 263.939 947.94 275.727 945.333 292.069C942.729 308.409 959.813 323.113 983.494 324.912C1007.18 326.71 1028.49 314.921 1031.09 298.581Z" fill="#F9E122"/>
<path d="M1020.81 297.8C1022.8 285.376 1009.81 274.196 991.801 272.829C973.795 271.46 957.592 280.424 955.611 292.849C953.63 305.274 966.618 316.453 984.624 317.821C1002.63 319.188 1018.83 310.224 1020.81 297.8Z" fill="#F79035"/>
<path d="M993.709 295.803L998.768 296.187C999.837 296.268 1000.61 296.932 1000.49 297.669C1000.37 298.406 999.412 298.938 998.343 298.858L991.558 298.342L991.275 300.111L998.06 300.627C999.129 300.709 999.899 301.372 999.781 302.11C999.665 302.847 998.704 303.378 997.635 303.297L990.85 302.782L990.39 305.67C990.16 307.109 988.284 308.149 986.198 307.99C984.11 307.831 982.605 306.536 982.835 305.097L983.295 302.208L976.513 301.693C975.444 301.612 974.672 300.949 974.79 300.211C974.908 299.474 975.869 298.942 976.938 299.024L983.723 299.538L984.005 297.769L977.221 297.253C976.152 297.171 975.382 296.508 975.498 295.771C975.616 295.033 976.577 294.502 977.646 294.583L982.752 294.97L975.369 285.383C974.104 283.741 976.021 281.793 978.699 281.996C979.8 282.079 980.771 282.533 981.292 283.208L988.831 292.957L999.427 284.513C1000.1 283.974 1001.12 283.699 1002.15 283.776C1004.66 283.968 1005.84 286.02 1004.2 287.344L993.709 295.803Z" fill="#F9E122"/>
<path d="M520.1 229.426C524.232 213.237 508.561 197.8 485.099 194.948C461.637 192.097 439.265 202.91 435.132 219.1C431 235.289 446.671 250.726 470.133 253.578C493.598 256.429 515.967 245.616 520.1 229.426Z" fill="#F9E122"/>
<path d="M509.919 228.188C513.06 215.879 501.146 204.142 483.305 201.973C465.465 199.806 448.457 208.027 445.313 220.338C442.173 232.647 454.088 244.384 471.928 246.553C489.767 248.72 506.776 240.499 509.919 228.188Z" fill="#F79035"/>
<path d="M474.236 229.862L487.08 231.423C488.738 231.626 489.847 232.716 489.553 233.861C489.261 235.005 487.681 235.768 486.023 235.567L464.032 232.895C462.374 232.693 461.265 231.603 461.557 230.458C461.85 229.314 463.431 228.549 465.089 228.75L466.705 228.947L468.105 223.464L465.726 223.175C464.488 223.024 463.662 222.21 463.88 221.356C464.099 220.502 465.278 219.932 466.516 220.083L468.896 220.372L469.107 219.544C470.554 213.87 476.94 211.063 486.457 212.22C488.743 212.496 490.715 212.93 492.402 213.503C494.107 214.083 494.737 215.539 493.76 216.665C492.905 217.648 491.113 218.02 489.615 217.524C488.326 217.097 486.897 216.808 485.426 216.63C480.529 216.035 477.45 217.27 476.66 220.364L476.424 221.287L485.272 222.362C486.51 222.513 487.336 223.327 487.118 224.181C486.9 225.035 485.72 225.605 484.482 225.454L475.636 224.379L474.236 229.862Z" fill="#F9E122"/>
<path d="M333.833 435.381C328.486 419.36 305.331 409.365 282.114 413.055C258.899 416.744 244.412 432.723 249.759 448.742C255.108 464.763 278.263 474.758 301.48 471.068C324.695 467.379 339.18 451.4 333.833 435.381Z" fill="#F9E122"/>
<path d="M323.758 436.981C319.694 424.801 302.088 417.201 284.436 420.007C266.784 422.812 255.77 434.961 259.834 447.142C263.901 459.322 281.507 466.921 299.159 464.116C316.811 461.31 327.825 449.162 323.758 436.981Z" fill="#F79035"/>
<path d="M291.851 448.128L304.559 446.108C306.2 445.847 307.836 446.554 308.214 447.686C308.593 448.819 307.569 449.948 305.928 450.209L284.167 453.667C282.526 453.928 280.89 453.221 280.512 452.089C280.135 450.957 281.157 449.828 282.798 449.567L284.4 449.312L282.588 443.887L280.233 444.26C279.009 444.455 277.789 443.927 277.506 443.082C277.224 442.237 277.989 441.394 279.214 441.201L281.567 440.826L281.293 440.007C279.421 434.391 283.71 430.089 293.129 428.593C295.39 428.234 297.449 428.1 299.326 428.174C301.224 428.249 302.629 429.421 302.366 430.72C302.135 431.856 300.695 432.68 299.034 432.627C297.607 432.582 296.129 432.7 294.671 432.932C289.825 433.702 287.69 435.668 288.712 438.729L289.017 439.643L297.772 438.251C298.996 438.056 300.216 438.583 300.499 439.428C300.781 440.273 300.018 441.116 298.794 441.311L290.039 442.701L291.851 448.128Z" fill="#F9E122"/>
<path d="M778.813 103.276C774.993 87.0498 752.833 76.032 729.318 78.6678C705.802 81.3036 689.835 96.5944 693.655 112.821C697.475 129.047 719.635 140.065 743.15 137.429C766.666 134.793 782.633 119.502 778.813 103.276Z" fill="#F9E122"/>
<path d="M768.609 104.42C765.704 92.0816 748.855 83.7043 730.976 85.7088C713.095 87.7133 700.954 99.3393 703.859 111.676C706.764 124.015 723.612 132.392 741.492 130.388C759.373 128.383 771.514 116.757 768.609 104.42Z" fill="#F79035"/>
<path d="M752.504 111.05L752.693 111.137C754.354 111.904 754.636 113.535 753.241 114.521C750.743 116.286 747.304 117.461 743.128 117.93C734.929 118.848 727.697 116.38 724.432 111.795L721.144 112.163C720.069 112.283 719.058 111.779 718.882 111.039C718.709 110.297 719.439 109.6 720.512 109.478L723.105 109.188C722.989 108.906 722.922 108.618 722.856 108.331C722.787 108.042 722.72 107.757 722.7 107.463L720.107 107.754C719.031 107.873 718.019 107.371 717.845 106.629C717.671 105.887 718.399 105.19 719.474 105.069L722.762 104.7C723.755 99.6389 729.485 95.7175 737.683 94.799C741.846 94.332 745.637 94.6914 748.806 95.7989C750.592 96.424 751.077 98.0414 749.85 99.1335L749.71 99.2564C748.728 100.13 747.008 100.315 745.572 99.8201C743.569 99.132 741.405 98.9062 739.09 99.1658C734.97 99.6281 731.958 101.376 730.771 103.803L740.541 102.708C741.614 102.588 742.627 103.09 742.801 103.832C742.976 104.574 742.246 105.271 741.173 105.393L730.246 106.617C730.268 106.909 730.335 107.196 730.404 107.485C730.471 107.772 730.54 108.061 730.651 108.342L741.579 107.118C742.654 106.996 743.664 107.5 743.84 108.242C744.014 108.982 743.284 109.681 742.211 109.803L732.443 110.896C734.68 112.941 738.337 113.941 742.458 113.478C744.775 113.22 746.723 112.532 748.305 111.431C749.439 110.64 751.164 110.432 752.504 111.05Z" fill="#F9E122"/>
</svg>
