<svg width="421" height="280" viewBox="0 0 421 280" fill="none" xmlns="http://www.w3.org/2000/svg">
<g style="mix-blend-mode:multiply">
<path d="M13.5181 277.521C12.3181 277.745 12.486 279.527 13.7064 279.521L199.462 278.442C215.478 278.362 231.436 276.489 247.042 272.858L420.21 232.565C421.203 232.333 421.053 230.864 420.033 230.843L278.824 227.949L13.5181 277.521Z" fill="#2B1D42"/>
<path d="M409.576 197.24L409.726 199.699L404.505 199.504L404.615 191.557L194.614 187.859C194.614 187.859 206.008 216.219 207.5 216.296C208.992 216.372 404.337 211.716 404.337 211.716L404.383 208.34H410.252L410.505 212.487H415.416L416.346 196.771L409.576 197.24Z" fill="#191329"/>
<path d="M413.953 198.764V210.235H416.828L417.334 198.769L413.953 198.764Z" fill="#F36228"/>
<path d="M384.973 194.418C378.897 194.418 373.971 203.779 373.971 215.327C373.971 226.875 378.897 236.236 384.973 236.236H396.98V194.418H384.973Z" fill="#191329"/>
<path d="M407.983 215.327C407.983 226.875 403.057 236.236 396.98 236.236C390.904 236.236 385.979 226.875 385.979 215.327C385.979 203.779 390.904 194.418 396.98 194.418C403.057 194.418 407.983 203.779 407.983 215.327Z" fill="#191329"/>
<path d="M404.615 215.327C404.615 222.299 401.642 227.949 397.974 227.949C394.305 227.949 391.332 222.299 391.332 215.327C391.332 208.356 394.305 202.705 397.974 202.705C401.642 202.705 404.615 208.356 404.615 215.327Z" fill="#2B1D42"/>
<path d="M401.101 215.327C401.101 218.61 399.701 221.271 397.974 221.271C396.247 221.271 394.846 218.61 394.846 215.327C394.846 212.044 396.247 209.383 397.974 209.383C399.701 209.383 401.101 212.044 401.101 215.327Z" fill="#422B5F"/>
<path d="M351.549 194.289C344.284 194.289 338.395 205.483 338.395 219.29C338.395 233.098 344.284 244.29 351.549 244.29H365.907V194.289H351.549Z" fill="#191329"/>
<path d="M379.061 219.29C379.061 233.098 373.172 244.29 365.907 244.29C358.641 244.29 352.752 233.098 352.752 219.29C352.752 205.483 358.641 194.289 365.907 194.289C373.172 194.289 379.061 205.483 379.061 219.29Z" fill="#191329"/>
<path d="M375.036 219.29C375.036 227.626 371.48 234.383 367.094 234.383C362.708 234.383 359.153 227.626 359.153 219.29C359.153 210.955 362.708 204.197 367.094 204.197C371.48 204.197 375.036 210.955 375.036 219.29Z" fill="#2B1D42"/>
<path d="M370.834 219.29C370.834 223.216 369.16 226.397 367.094 226.397C365.028 226.397 363.355 223.216 363.355 219.29C363.355 215.365 365.028 212.184 367.094 212.184C369.16 212.184 370.834 215.365 370.834 219.29Z" fill="#422B5F"/>
<path d="M328.178 199.919V222.225L356.059 217.976V199.813L328.178 199.919Z" fill="#422B5F"/>
<path d="M328.178 199.919H309.496L311.893 222.225H328.178V199.919Z" fill="#2B1D42"/>
<path d="M290.016 191.557C280.912 191.557 273.531 205.583 273.531 222.885C273.531 240.187 280.912 254.213 290.016 254.213H308.007V191.557H290.016Z" fill="#191329"/>
<path d="M324.491 222.885C324.491 240.187 317.111 254.213 308.007 254.213C298.902 254.213 291.522 240.187 291.522 222.885C291.522 205.583 298.902 191.557 308.007 191.557C317.111 191.557 324.491 205.583 324.491 222.885Z" fill="#191329"/>
<path d="M319.447 222.885C319.447 233.33 314.991 241.797 309.496 241.797C303.999 241.797 299.543 233.33 299.543 222.885C299.543 212.44 303.999 203.973 309.496 203.973C314.991 203.973 319.447 212.44 319.447 222.885Z" fill="#2B1D42"/>
<path d="M314.181 222.885C314.181 227.804 312.083 231.791 309.496 231.791C306.907 231.791 304.809 227.804 304.809 222.885C304.809 217.966 306.907 213.979 309.496 213.979C312.083 213.979 314.181 217.966 314.181 222.885Z" fill="#422B5F"/>
<path d="M278.149 193.228H209.923L236.551 248.535L271.276 244.775C276.719 244.185 280.748 239.4 280.439 233.894L278.149 193.228Z" fill="#F36228"/>
<path d="M225.825 193.228H188.366C192.797 201.76 200.628 221.137 197.675 247.414L236.551 248.535C237.904 243.164 238.663 237.15 238.663 230.798C238.663 214.042 233.388 199.642 225.825 193.228Z" fill="#191329"/>
<path d="M244.338 228.002L244.695 236.696L251.2 236.236L251.664 228.002H244.338Z" fill="#DD4C1E"/>
<path d="M243.334 209.31L244.338 218.84H251.2L251.664 208.708L243.334 209.31Z" fill="#DD4C1E"/>
<path d="M236.653 199.982L237.858 204.596L275.749 203.973V199.73L236.653 199.982Z" fill="#DD4C1E"/>
<path d="M264.89 228.904C264.89 232.228 263.252 234.922 261.231 234.922C259.21 234.922 257.572 232.228 257.572 228.904C257.572 225.58 259.21 222.885 261.231 222.885C263.252 222.885 264.89 225.58 264.89 228.904Z" fill="#F9AE2F"/>
<path d="M237.476 9.29832e-06L238.093 196.501L95.6055 197.616L87.5466 7.18004L237.476 9.29832e-06Z" fill="#422B5F"/>
<path d="M97.1576 18.4148L104.082 191.388L228.001 188.344V12.3961L97.1576 18.4148Z" fill="#563779"/>
<path d="M94.6405 15.9875L94.9851 18.9024C95.1408 20.2191 96.2423 21.1964 97.5272 21.1592L110.935 20.7718C112.21 20.7346 113.252 19.71 113.349 18.3976L113.534 15.8701C113.644 14.3794 112.5 13.1071 111.05 13.1071H97.1129C95.6176 13.1071 94.4593 14.456 94.6405 15.9875ZM212.467 10.876L227.94 10.0075C228.644 9.96811 229.224 10.6204 229.182 11.4066L228.929 16.1372C228.893 16.8353 228.374 17.3801 227.746 17.3801H212.971C212.374 17.3801 211.871 16.8861 211.796 16.2267L211.352 12.3653C211.264 11.6006 211.778 10.9147 212.467 10.876Z" fill="#F79332"/>
<path d="M237.476 -2.66472e-05L420.411 82.1223L418.636 193.605L238.093 196.501L237.476 -2.66472e-05Z" fill="#2B1D42"/>
<path d="M250.951 21.132L250.303 184.712L411.998 185.253L409.127 87.9406L250.951 21.132Z" fill="#191329"/>
<path d="M363.106 68.5026L360.308 67.3204V185.08L363.106 185.09V68.5026ZM342.736 59.8991L339.937 58.717V185.012L342.736 185.022V59.8991ZM352.921 64.2008L350.122 63.0187V185.046L352.921 185.056V64.2008ZM373.291 72.805L370.493 71.6229V185.115L373.291 185.124V72.805ZM403.847 85.7102L401.049 84.5288V185.217L403.847 185.226V85.7102ZM383.477 77.1067L380.678 75.9246V185.148L383.477 185.158V77.1067ZM393.662 81.4085L390.863 80.2263V185.183L393.662 185.191V81.4085ZM258.453 184.74L261.253 184.749V25.4831L258.453 24.301V184.74ZM281.623 34.0873L278.824 32.9052V184.807L281.623 184.817V34.0873ZM271.438 29.7856L268.639 28.6027V184.774L271.438 184.783V29.7856ZM332.55 55.5967L329.752 54.4145V184.979L332.55 184.987V55.5967ZM291.809 38.389L289.009 37.2069V184.842L291.809 184.852V38.389ZM322.364 51.2949L319.566 50.1128V184.944L322.364 184.954V51.2949ZM312.179 46.9932L309.38 45.8104V184.911L312.179 184.92V46.9932ZM301.994 184.886L299.194 184.876V41.5086L301.994 42.6908V184.886Z" fill="#2B1D42"/>
<path d="M247.091 183.078V185.661C247.091 186.241 247.558 186.712 248.135 186.712H257.3C257.856 186.712 258.313 186.275 258.342 185.716L258.452 183.62C258.482 183.04 258.04 182.545 257.464 182.515L248.189 182.027C247.592 181.996 247.091 182.475 247.091 183.078ZM405.852 184.709L405.942 185.673C405.977 186.048 406.289 186.333 406.662 186.333H412.947C413.346 186.333 413.669 186.007 413.669 185.605V184.641C413.669 184.238 413.346 183.911 412.947 183.911H406.572C406.146 183.911 405.812 184.281 405.852 184.709ZM402.058 84.7801V86.1591C402.058 86.4584 402.243 86.7248 402.522 86.8279L409.061 89.2272C409.491 89.3847 409.953 89.0954 410.004 88.6372L410.16 87.2195C410.197 86.8901 410.002 86.5794 409.692 86.4706L402.996 84.1092C402.537 83.9474 402.058 84.2904 402.058 84.7801ZM252.176 19.4251L263.3 23.3738C263.772 23.5413 264.082 23.9487 264.082 24.4027V26.8672C264.082 27.6454 263.206 28.1803 262.391 27.9003L251.268 24.0705C250.789 23.9051 250.474 23.4948 250.474 23.0373V20.4539C250.474 19.6706 251.36 19.1351 252.176 19.4251Z" fill="#F36228"/>
<path d="M21.3153 116.145C22.4644 125.586 22.2896 135.839 21.235 146.628C21.0125 148.907 19.1968 150.704 16.9283 150.837C13.2794 151.049 9.36408 150.881 5.96731 150.447C3.89969 150.183 2.29686 148.509 2.03036 146.426C0.672558 135.809 -0.166883 125.724 0.0279819 115.822C0.0779417 113.286 2.14193 111.274 4.66039 111.271C8.85162 111.266 13.4204 111.553 17.3832 112.106C19.4519 112.395 21.0616 114.055 21.3153 116.145Z" fill="#191329"/>
<path d="M19.7895 101.025C19.7468 100.03 20.0944 99.0801 20.7695 98.3505C21.4439 97.6216 22.36 97.2049 23.3492 97.1784L26.3241 97.0968C26.6169 96.4452 27.2643 95.9905 28.0204 95.9905H33.0193C34.049 95.9905 34.884 96.8311 34.884 97.8686V99.2025C34.884 100.24 34.049 101.081 33.0193 101.081H28.0204C27.3702 101.081 26.7995 100.745 26.4655 100.237L23.4338 100.32C23.2355 100.326 23.1097 100.431 23.0514 100.493C22.9939 100.556 22.8979 100.691 22.9065 100.89L16.772 146.774L24.7784 150.326V150.276C24.7784 148.697 26.0483 147.418 27.6161 147.418H32.0464C33.6134 147.418 34.884 148.697 34.884 150.276V154.74C34.884 156.319 33.6134 157.599 32.0464 157.599H27.6161C26.0483 157.599 24.7784 156.319 24.7784 154.74V153.76L13.7386 148.863L19.7895 101.025Z" fill="#191329"/>
<path d="M79.3583 199.73H79.3576H58.3943C47.7855 199.73 39.185 216.074 39.185 236.236C39.185 256.397 47.7855 272.741 58.3943 272.741H79.3583C89.9671 272.741 98.5669 256.397 98.5669 236.236C98.5669 216.074 89.9671 199.73 79.3583 199.73Z" fill="#191329"/>
<path d="M179.513 263.319H22.9562V249.478H179.513V263.319Z" fill="#2B1D42"/>
<path d="M185.725 199.73C175.116 199.73 166.517 216.074 166.517 236.236C166.517 256.397 175.116 272.741 185.725 272.741H206.689V199.73H185.725Z" fill="#191329"/>
<path d="M225.898 236.236C225.898 256.397 217.298 272.741 206.689 272.741C196.081 272.741 187.481 256.397 187.481 236.236C187.481 216.074 196.081 199.73 206.689 199.73C217.298 199.73 225.898 216.074 225.898 236.236Z" fill="#191329"/>
<path d="M220.02 236.236C220.02 248.406 214.828 258.273 208.424 258.273C202.019 258.273 196.827 248.406 196.827 236.236C196.827 224.064 202.019 214.198 208.424 214.198C214.828 214.198 220.02 224.064 220.02 236.236Z" fill="#2B1D42"/>
<path d="M213.884 236.236C213.884 241.967 211.44 246.614 208.424 246.614C205.408 246.614 202.963 241.967 202.963 236.236C202.963 230.505 205.408 225.858 208.424 225.858C211.44 225.858 213.884 230.505 213.884 236.236Z" fill="#422B5F"/>
<path d="M100.258 28.6028C75.6095 29.3739 52.8369 52.3554 40.7428 77.981C18.054 126.056 22.2946 200.194 25.602 227.021C26.2182 232.018 29.4283 235.678 33.1927 235.678H150.357L213.913 26.4175L100.258 28.6028Z" fill="#F79332"/>
<path d="M167.213 27.3154L166.412 27.3312C163.949 32.2623 160.185 38.8359 155.012 45.2978C145.98 56.5812 130.754 69.7298 108.855 69.7291C107.975 69.7284 107.081 69.7076 106.18 69.6639C95.8436 69.1656 89.6366 66.3031 87.7321 61.1557C84.3202 51.9344 95.2317 37.2621 102.835 28.5534L101.82 28.5727C94.1288 37.4239 83.5555 51.9172 87.0662 61.4056C89.0795 66.8465 95.4982 69.8659 106.146 70.3792C107.062 70.4229 107.965 70.4451 108.86 70.4451C131.04 70.4451 146.446 57.1447 155.579 45.7309C160.899 39.0814 164.738 32.3167 167.213 27.3154Z" fill="#F36228"/>
<path d="M39.3989 80.9424H197.352L197.787 79.5104H40.0407C39.8239 79.9851 39.61 80.4627 39.3989 80.9424Z" fill="#F36228"/>
<path d="M196.827 185.937C196.827 185.937 212.07 185.253 222.126 186.272C223.504 153.496 224.872 108.801 221.204 53.3671C220.812 47.4443 217.525 26.0624 213.115 26.4398C194.84 28.0042 170.321 55.6912 162.073 77.981C140.63 135.93 150.357 235.678 150.357 235.678L181.184 235.21C178.384 189.148 196.827 185.937 196.827 185.937Z" fill="#F36228"/>
<path d="M161.019 80.9424H222.67C222.65 80.4648 222.632 79.9894 222.612 79.5104H161.526C161.356 79.9865 161.184 80.4605 161.019 80.9424Z" fill="#DD4C1E"/>
<path d="M41.4542 201.88L48.4002 225.058H115.454L124.196 201.88H41.4542Z" fill="#191329"/>
<path d="M25.3491 167.087L22.2257 169.129C18.2893 171.703 15.9043 176.172 15.9043 180.976V195.974C15.9043 200.443 17.9709 204.645 21.4688 207.288L24.8345 209.832C26.4556 211.056 28.4134 211.716 30.4232 211.716H144.477L146.675 209.925C151.252 206.199 153.921 200.52 153.921 194.51V169.253L143.715 164.001L25.3491 167.087Z" fill="#F79332"/>
<path d="M60.4623 165.858L62.4472 170.328C62.8409 171.214 63.715 171.786 64.6787 171.786H94.9005C95.8429 171.786 96.7006 171.24 97.1071 170.384L98.957 166.482C99.7252 164.863 98.5718 162.987 96.7916 162.957L62.735 162.39C60.9456 162.359 59.7318 164.213 60.4623 165.858Z" fill="#FEF2D4"/>
<path d="M105.433 171.128L102.729 174.67C101.96 175.678 100.778 176.279 99.5163 176.304L64.2637 177.008C63.1053 177.031 61.9903 176.566 61.1865 175.725L57.086 171.433C56.2907 170.601 55.1892 170.136 54.0422 170.15L39.831 170.32C37.3216 170.35 35.427 172.597 35.7638 175.103C36.628 181.527 38.4779 187.49 41.7526 192.787C45.0153 198.063 50.8207 201.196 56.9915 201.196H104.912C110.225 201.196 115.301 198.865 118.709 194.758C123.659 188.791 126.687 181.902 128.084 174.233C128.556 171.65 126.546 169.28 123.94 169.311L108.678 169.494C107.405 169.509 106.209 170.112 105.433 171.128Z" fill="#422B5F"/>
<path d="M126.264 174.008C125.81 176.466 125.179 178.825 124.375 181.081C123.474 183.608 121.047 185.253 118.383 185.253H44.5889C41.8088 185.253 39.3719 183.362 38.6847 180.648C38.2298 178.85 37.866 176.964 37.5945 174.98C37.5142 174.392 37.5938 173.77 37.9101 173.27C38.3507 172.571 39.0599 172.174 39.8537 172.164L54.0635 171.994C54.7138 171.994 55.3363 172.26 55.7876 172.732L59.8675 177.004C61.0209 178.211 62.6263 178.899 64.2999 178.852L99.5533 178.149C101.38 178.113 103.067 177.254 104.18 175.794L106.884 172.253H106.885C107.321 171.68 107.983 171.347 108.7 171.338L123.961 171.155C124.845 171.172 125.64 171.608 126.073 172.436C126.322 172.913 126.362 173.478 126.264 174.008ZM117.305 193.575C114.258 197.246 109.741 199.352 104.912 199.352H56.9915C51.4262 199.352 46.1822 196.463 43.3069 191.812C43.2841 191.776 43.2614 191.738 43.2386 191.702C42.2103 190.024 43.4419 187.859 45.3991 187.859H116.586C118.661 187.859 119.85 190.249 118.605 191.922C118.186 192.483 117.753 193.034 117.305 193.575ZM129.301 170.692C128.207 168.64 126.141 167.441 123.918 167.467L108.688 167.649C106.835 167.672 105.093 168.549 103.963 170.029L101.278 173.547C100.845 174.113 100.191 174.447 99.4808 174.461L64.2275 175.164C63.5722 175.162 62.9539 174.915 62.5055 174.446L58.405 170.154C57.2636 168.96 55.6746 168.312 54.0202 168.305L39.9426 168.474C39.0748 168.484 38.2036 168.632 37.4168 169.001C34.9046 170.18 33.6041 172.784 33.9502 175.35C34.9103 182.492 36.9542 188.514 40.1991 193.762C43.7382 199.485 50.1726 203.04 56.9915 203.04H104.912C110.829 203.04 116.37 200.453 120.114 195.941C125.083 189.95 128.362 182.803 129.86 174.699C130.112 173.341 129.951 171.909 129.301 170.692Z" fill="#191329"/>
<path d="M171.945 238C171.945 238 163.72 189.348 193.897 184.406C205.378 182.526 222.126 186.272 222.126 186.272L215.223 198.507C215.223 198.507 198.568 190.83 189.867 206.067C184.948 214.681 185.589 238.609 185.589 238.609L171.945 238Z" fill="#F36228"/>
<path d="M186.815 175.825L187.953 182.441C188.198 183.865 189.485 184.863 190.914 184.739L193.211 184.538C194.468 184.429 195.492 183.475 195.698 182.22L196.733 175.928C197.007 174.262 195.758 172.736 194.083 172.689L189.613 172.567C187.869 172.518 186.517 174.092 186.815 175.825Z" fill="#2B1D42"/>
<path d="M202.459 144.811L203.108 164.886C203.178 167.051 204.343 168.752 205.756 168.752H213.154C214.559 168.752 215.72 167.071 215.801 164.918L216.545 145.089C216.631 142.783 215.452 140.83 213.946 140.789L205.155 140.543C203.62 140.5 202.382 142.46 202.459 144.811Z" stroke="#F79332" stroke-width="1.33333" stroke-miterlimit="10"/>
<path d="M163.72 196.103V198.577C163.72 199.353 164.344 199.982 165.114 199.982H175.155C175.918 199.982 176.539 199.363 176.548 198.595L176.58 196.12C176.59 195.338 175.963 194.698 175.186 194.698H165.114C164.344 194.698 163.72 195.327 163.72 196.103Z" fill="#F79332"/>
<path d="M165.461 196.69V197.849C165.461 198.212 165.753 198.507 166.113 198.507H170.815C171.173 198.507 171.464 198.217 171.468 197.858L171.483 196.699C171.488 196.332 171.194 196.033 170.83 196.033H166.113C165.753 196.033 165.461 196.327 165.461 196.69Z" fill="#FCD76F"/>
<path d="M182.718 219.862L148.169 220.004C148.165 220.106 148.156 222.415 148.156 222.517V259.059H180.061C183.273 259.059 185.877 255.891 185.877 251.982L188.858 226.928C188.858 222.865 186.052 219.636 182.718 219.862Z" fill="#F36228"/>
<path d="M164.902 97.651C159.828 111.835 156.797 145.887 157.785 165.554C157.894 167.706 159.181 169.378 160.744 169.378H167.625C168.456 169.378 169.248 168.898 169.809 168.052L194.783 124.203C195.284 123.449 195.561 122.462 195.561 121.439V98.8374C195.561 96.5497 194.203 94.706 192.545 94.7469L167.512 95.3626C166.4 95.3905 165.394 96.2734 164.902 97.651Z" fill="#B8E5F8"/>
<path d="M192.599 96.3177C192.593 96.3177 192.589 96.3177 192.584 96.3177L167.551 96.9335C167.107 96.9442 166.633 97.4469 166.37 98.1829C166.369 98.1829 166.369 98.1836 166.369 98.1836C161.314 112.315 158.392 146.551 159.343 165.474C159.413 166.849 160.137 167.807 160.744 167.807H167.625C167.91 167.807 168.229 167.588 168.486 167.218L193.429 123.421C193.447 123.39 193.466 123.36 193.486 123.33C193.813 122.836 194.001 122.147 194.001 121.438V98.8373C194.001 97.9445 193.704 97.0975 193.226 96.6278C193.017 96.4216 192.806 96.3177 192.599 96.3177ZM167.625 170.951H160.744C158.321 170.951 156.38 168.664 156.228 165.634C155.242 146.02 158.175 111.819 163.435 97.1175C164.153 95.1091 165.701 93.8346 167.474 93.7917L192.507 93.1759C193.565 93.1487 194.59 93.5769 195.405 94.3774C196.495 95.4507 197.121 97.076 197.121 98.8373V121.438C197.121 122.751 196.763 124.023 196.111 125.029L171.162 168.835C171.144 168.866 171.125 168.897 171.106 168.927C170.251 170.213 168.983 170.951 167.625 170.951Z" fill="#2B1D42"/>
<path d="M157.646 152.968C157.556 157.528 157.597 161.803 157.785 165.554C157.894 167.706 159.181 169.378 160.744 169.378H167.625C168.456 169.378 169.248 168.898 169.809 168.052L178.4 152.968H157.646Z" fill="#2B1D42"/>
<path d="M171.117 116.145C169.969 125.586 170.144 135.839 171.198 146.628C171.421 148.907 173.236 150.704 175.505 150.837C179.154 151.049 183.069 150.881 186.466 150.447C188.534 150.183 190.136 148.509 190.403 146.426C191.761 135.809 192.6 125.724 192.405 115.822C192.355 113.286 190.291 111.274 187.773 111.271C183.581 111.266 179.013 111.553 175.05 112.106C172.981 112.395 171.372 114.055 171.117 116.145Z" fill="#191329"/>
<path d="M180.144 101.025C180.186 100.03 179.839 99.0801 179.164 98.3505C178.49 97.6216 177.574 97.2049 176.585 97.1784L173.61 97.0968C173.316 96.4452 172.67 95.9905 171.913 95.9905H166.915C165.884 95.9905 165.05 96.8311 165.05 97.8686V99.2025C165.05 100.24 165.884 101.081 166.915 101.081H171.913C172.563 101.081 173.134 100.745 173.468 100.237L176.499 100.32C176.698 100.326 176.824 100.431 176.882 100.493C176.94 100.556 177.035 100.691 177.027 100.89L175.064 146.774L167.057 150.326V150.276C167.057 148.697 165.787 147.418 164.22 147.418H159.789C158.222 147.418 156.952 148.697 156.952 150.276V154.74C156.952 156.319 158.222 157.599 159.789 157.599H164.22C165.787 157.599 167.057 156.319 167.057 154.74V153.76L178.097 148.863L180.144 101.025Z" fill="#191329"/>
<path d="M44.0374 222.56L27.2359 185.335L31.7664 135.69L30.2128 135.546L25.6454 185.607L42.6175 223.21L44.0374 222.56ZM116.983 223.21L115.564 222.56L132.402 185.255L138.547 135.087L140.095 135.279L133.92 185.686L116.983 223.21Z" fill="#F36228"/>
<path d="M132.293 184.215L124.103 200.346C123.119 202.284 124.515 204.583 126.675 204.583C131.67 204.583 136.315 201.995 138.969 197.732L145.196 187.732C146.578 185.511 144.993 182.624 142.39 182.627L134.753 182.632C133.71 182.673 132.769 183.279 132.293 184.215Z" fill="#422B5F"/>
<path d="M31.8985 184.215L40.0897 200.346C41.0732 202.284 39.6768 204.583 37.5171 204.583C32.5218 204.583 27.8776 201.995 25.2232 197.732L18.9964 187.732C17.6134 185.511 19.1996 182.624 21.8021 182.627L29.4382 182.632C30.4822 182.673 31.4231 183.279 31.8985 184.215Z" fill="#422B5F"/>
<path d="M148.28 259.059H20.8306C17.715 259.059 15.1893 256.515 15.1893 253.376V226.471C15.1893 223.333 17.715 220.788 20.8306 220.788H148.28C151.396 220.788 153.921 223.333 153.921 226.471V253.376C153.921 256.515 151.396 259.059 148.28 259.059Z" fill="#F79332"/>
<path d="M47.6469 261.594H112.618L109.265 256.167C107.457 253.24 105.907 252.823 102.581 252.88L57.7767 252.284C54.0834 252.346 50.7483 254.615 49.1876 258.126L47.6469 261.594Z" fill="#191329"/>
<path d="M114.108 240.555C112.668 242.986 110.033 244.492 107.224 244.492C107.214 244.492 107.202 244.492 107.192 244.492L54.0066 244.281C50.9167 244.268 48.0761 242.437 46.7706 239.615L38.0586 220.788H125.82L114.108 240.555ZM182.297 219.216H24.757L24.87 220.788H36.3373L45.3571 240.28C46.917 243.65 50.3098 245.837 54.0002 245.852L107.185 246.064C107.198 246.064 107.211 246.064 107.224 246.064C110.579 246.064 113.727 244.265 115.447 241.361L127.637 220.788H182.297V219.216Z" fill="#F36228"/>
<path d="M47.6469 228.146H112.618L109.265 233.573C107.457 236.5 104.338 238.243 101.013 238.187L57.7767 237.456C54.0834 237.393 50.7483 235.125 49.1876 231.614L47.6469 228.146Z" fill="#191329"/>
<path d="M58.4419 220.93L59.1547 228.347C59.3132 229.999 60.672 231.272 62.3193 231.311L92.109 232.013C93.7947 232.053 95.2317 230.79 95.4214 229.103L96.3339 220.984C96.5528 219.038 95.0419 217.334 93.0983 217.334H61.6832C59.7609 217.334 58.2571 219.003 58.4419 220.93Z" fill="#D5F1FC"/>
<path d="M59.255 220.851L59.9678 228.267C60.0864 229.504 61.1062 230.459 62.3392 230.488L92.1283 231.19C93.3947 231.235 94.4664 230.283 94.6092 229.01L95.5224 220.891C95.6006 220.196 95.3803 219.499 94.9183 218.978C94.4557 218.456 93.7927 218.157 93.0983 218.157H61.6833C60.9868 218.157 60.3451 218.444 59.8768 218.963C59.4092 219.482 59.1882 220.154 59.255 220.851ZM92.1901 232.836C92.1567 232.836 92.1233 232.836 92.0906 232.835L62.3002 232.134C60.2414 232.084 58.54 230.49 58.3417 228.425L57.6289 221.011C57.5188 219.861 57.8969 218.712 58.6672 217.857C59.4376 217.002 60.537 216.511 61.6833 216.511H93.0983C94.2567 216.511 95.3654 217.01 96.1364 217.882C96.9082 218.752 97.2756 219.917 97.1456 221.076L96.2331 229.194C95.9978 231.287 94.2688 232.836 92.1901 232.836Z" fill="#191329"/>
<path d="M25.0981 145.627L30.4622 149.616C31.3691 150.291 32.467 150.655 33.5949 150.655H132.672C133.796 150.655 134.891 150.293 135.797 149.622L142.932 144.333C144.217 143.381 145.008 141.897 145.073 140.291C145.64 126.37 148.521 110.5 150.279 101.888C150.952 98.5925 148.451 95.5101 145.112 95.5101H36.2101C34.0504 95.5101 32.0925 96.8297 31.3072 98.8567C26.2814 111.831 23.863 126.583 22.9661 140.999C22.8539 142.807 23.6519 144.55 25.0981 145.627Z" fill="#B8E5F8"/>
<path d="M23.7287 132.062C23.4053 135.043 23.1516 138.028 22.9661 140.999C22.8539 142.807 23.6519 144.55 25.0981 145.627L30.4622 149.616C31.3691 150.291 32.467 150.655 33.5949 150.655H132.672C133.796 150.655 134.891 150.293 135.797 149.622L142.932 144.333C144.217 143.381 145.008 141.897 145.073 140.291C145.183 137.599 145.381 134.834 145.639 132.062H23.7287Z" fill="#8AC5ED"/>
<path d="M91.979 95.5101H77.679L55.843 150.655H70.1423L91.979 95.5101Z" fill="#D5F1FC"/>
<path d="M117.128 95.5101H95.9474L74.1107 150.655H95.2914L117.128 95.5101Z" fill="#D5F1FC"/>
<path d="M45.7764 150.655H52.9264L74.7631 95.5101H67.6131L45.7764 150.655Z" fill="#D5F1FC"/>
<path d="M148.751 101.572C147.042 109.943 144.09 126.098 143.514 140.227C143.468 141.356 142.92 142.392 142.008 143.067L141.644 143.337L26.2743 144.548L26.0249 144.362C25.0044 143.603 24.4437 142.382 24.5233 141.096C25.5267 124.966 28.2976 110.947 32.7606 99.428C33.3035 98.0247 34.6908 97.0817 36.2102 97.0817H145.111C146.235 97.0817 147.285 97.5844 147.993 98.4593C148.7 99.3328 148.976 100.467 148.751 101.572ZM150.411 96.4731C149.108 94.8621 147.177 93.9385 145.111 93.9385H36.2102C33.4158 93.9385 30.861 95.6855 29.854 98.2853C25.2744 110.107 22.4332 124.445 21.4098 140.899C21.2634 143.256 22.296 145.495 24.1722 146.891L29.5363 150.881C30.7032 151.748 32.1452 152.227 33.5949 152.227H132.671C134.139 152.227 135.539 151.763 136.721 150.887L143.856 145.6C145.536 144.355 146.547 142.444 146.631 140.355C147.198 126.448 150.117 110.483 151.806 102.205C152.222 100.171 151.713 98.082 150.411 96.4731Z" fill="#191329"/>
<path d="M31.261 93.1967C30.2483 93.2032 29.3735 93.9199 29.171 94.9194C28.5378 98.0533 27.7496 104.507 31.6512 105.765C36.844 107.439 140.767 105.72 140.767 105.72C140.767 105.72 151.088 106.483 153.856 95.3025C154.196 93.9256 153.165 92.5874 151.757 92.5974L31.261 93.1967Z" fill="#191329"/>
<path d="M143.032 99.5476H135.61C134.635 99.5476 133.844 98.7507 133.844 97.7691C133.844 96.7867 134.635 95.9905 135.61 95.9905H143.032C144.007 95.9905 144.797 96.7867 144.797 97.7691C144.797 98.7507 144.007 99.5476 143.032 99.5476Z" fill="#D5F1FC"/>
<path d="M38.5951 99.5476H31.1729C30.1986 99.5476 29.4077 98.7507 29.4077 97.7691C29.4077 96.7867 30.1986 95.9905 31.1729 95.9905H38.5951C39.5702 95.9905 40.3604 96.7867 40.3604 97.7691C40.3604 98.7507 39.5702 99.5476 38.5951 99.5476Z" fill="#D5F1FC"/>
<path d="M77.8574 146.053L71.5871 137.732C71.5019 137.113 70.9738 136.588 70.2731 136.624L44.3373 137.967C43.8996 137.99 43.5037 138.24 43.292 138.627C43.2912 138.628 43.2912 138.63 43.2905 138.632L29.5327 139.069C29.2101 139.079 28.9194 139.192 28.7638 139.366C28.4213 139.751 28.8711 140.221 29.5804 140.221H43.5997C43.8143 140.402 44.0865 140.521 44.4027 140.521H69.2938L73.9679 147.284C74.1626 147.565 74.481 147.733 74.8207 147.733H77.0294C77.8893 147.733 78.3769 146.742 77.8574 146.053Z" fill="#191329"/>
<path d="M132.476 144.613L126.205 136.292C126.121 135.672 125.593 135.149 124.891 135.185L98.9563 136.528C98.5179 136.55 98.1227 136.8 97.9109 137.187C97.9102 137.188 97.9095 137.19 97.9088 137.192L84.151 137.629C83.8291 137.639 83.5384 137.752 83.3828 137.927C83.0402 138.31 83.4894 138.781 84.1993 138.781H98.2179C98.4326 138.961 98.7048 139.081 99.021 139.081H123.912L128.587 145.844C128.781 146.126 129.099 146.293 129.44 146.293H131.648C132.508 146.293 132.996 145.302 132.476 144.613Z" fill="#191329"/>
<path d="M21.2201 238.773H32.9887C34.4989 238.773 35.7233 237.539 35.7233 236.018V228.085C35.7233 226.562 34.4989 225.329 32.9887 225.329H21.2201C19.7099 225.329 18.4854 226.562 18.4854 228.085V236.018C18.4854 237.539 19.7099 238.773 21.2201 238.773Z" fill="#8AC5ED"/>
<path d="M32.9887 225.329H21.252C20.9472 226.585 20.8725 227.914 21.0708 229.116C21.2698 230.325 21.7374 231.502 22.4644 232.546C24.2979 235.177 27.7326 236.894 31.254 236.942C32.8089 236.963 34.3795 236.655 35.7233 235.975V228.085C35.7233 226.562 34.4989 225.329 32.9887 225.329Z" fill="#D5F1FC"/>
<path d="M35.2415 243.968V250.394C35.2415 251.69 34.4321 252.711 33.4947 252.597C27.9892 251.922 23.453 251.964 19.4519 247.995C18.1798 246.734 18.5174 241.761 20.0844 241.761H33.6404C34.5245 241.761 35.2415 242.749 35.2415 243.968Z" fill="#8AC5ED"/>
<path d="M33.6404 241.761H22.6357C22.6613 242.269 22.7338 242.791 22.8475 243.312C23.3151 245.456 24.2958 247.496 25.6994 249.176C26.678 250.347 27.8662 251.328 29.1745 252.104C30.5482 252.279 31.9838 252.412 33.4947 252.597C34.432 252.711 35.2415 251.69 35.2415 250.394V243.968C35.2415 242.749 34.5244 241.761 33.6404 241.761Z" fill="#D5F1FC"/>
<path d="M143.75 238.773H131.982C130.471 238.773 129.247 237.539 129.247 236.018V228.085C129.247 226.562 130.471 225.329 131.982 225.329H143.75C145.26 225.329 146.485 226.562 146.485 228.085V236.018C146.485 237.539 145.26 238.773 143.75 238.773Z" fill="#8AC5ED"/>
<path d="M131.982 225.329H143.718C144.023 226.585 144.097 227.914 143.899 229.116C143.7 230.325 143.233 231.502 142.505 232.546C140.672 235.177 137.238 236.894 133.716 236.942C132.162 236.963 130.59 236.655 129.247 235.975V228.085C129.247 226.562 130.472 225.329 131.982 225.329Z" fill="#D5F1FC"/>
<path d="M129.728 243.968V250.394C129.728 251.69 130.538 252.711 131.476 252.597C136.981 251.922 141.517 251.964 145.519 247.995C146.79 246.734 146.453 241.761 144.885 241.761H131.33C130.445 241.761 129.728 242.749 129.728 243.968Z" fill="#8AC5ED"/>
<path d="M131.33 241.761H142.334C142.309 242.269 142.236 242.791 142.122 243.312C141.655 245.456 140.675 247.496 139.27 249.176C138.292 250.347 137.104 251.328 135.796 252.104C134.421 252.279 132.986 252.412 131.476 252.597C130.538 252.711 129.728 251.69 129.728 250.394V243.968C129.728 242.749 130.445 241.761 131.33 241.761Z" fill="#D5F1FC"/>
</g>
</svg>
