<svg width="168" height="21" viewBox="0 0 168 21" fill="none" xmlns="http://www.w3.org/2000/svg">
<mask id="mask0_4_1715" style="mask-type:luminance" maskUnits="userSpaceOnUse" x="0" y="0" width="168" height="21">
<path d="M83.5537 20.2407C37.4353 20.2407 0.0439453 15.8451 0.0439453 10.4192C0.0439453 4.99329 37.4353 0.595509 83.5537 0.595509C129.677 0.595509 167.066 4.99329 167.066 10.4192C167.066 15.8451 129.677 20.2407 83.5537 20.2407Z" fill="white"/>
</mask>
<g mask="url(#mask0_4_1715)">
<path d="M83.5537 20.2407C37.4353 20.2407 0.0439453 15.8451 0.0439453 10.4192C0.0439453 4.99329 37.4353 0.595509 83.5537 0.595509C129.677 0.595509 167.066 4.99329 167.066 10.4192C167.066 15.8451 129.677 20.2407 83.5537 20.2407Z" fill="url(#paint0_linear_4_1715)"/>
</g>
<defs>
<linearGradient id="paint0_linear_4_1715" x1="658.865" y1="-482.167" x2="-978.906" y2="758.511" gradientUnits="userSpaceOnUse">
<stop stop-color="#FAB82A"/>
<stop offset="1" stop-color="#B78400"/>
</linearGradient>
</defs>
</svg>
