<svg width="113" height="159" viewBox="0 0 113 159" fill="none" xmlns="http://www.w3.org/2000/svg">
<path d="M111.515 0.566818C111.364 0.616501 69.2441 14.7343 35.7235 62.5308C2.21564 110.321 0.495347 158.441 0.485107 158.528L2.76348 158.586C2.76348 158.584 2.78909 157.86 2.90173 156.467C3.67741 146.719 8.63866 104.912 37.6844 63.5092C54.2809 39.8486 72.9792 24.5515 87.52 15.1706C94.7878 10.4812 101.016 7.27148 105.417 5.23677C107.619 4.21941 109.362 3.4958 110.552 3.02708C111.146 2.79381 111.602 2.62531 111.907 2.51299C112.211 2.40282 112.355 2.3553 112.355 2.3553L111.515 0.566818Z" fill="#148D00"/>
</svg>
