<svg width="68" height="233" viewBox="0 0 68 233" fill="none" xmlns="http://www.w3.org/2000/svg">
<path d="M64.5175 0.243748C64.4407 0.323668 48.3792 16.8952 32.3076 44.7073C16.241 72.5173 0.153927 111.583 0.151367 156.636C0.151367 180.491 4.66977 206.023 16.0925 232.405L20.2064 231.135C8.97059 205.182 4.53155 180.1 4.53155 156.636C4.52899 112.335 20.3754 73.7896 36.2448 46.3273C44.1782 32.5962 52.1117 21.6407 58.0535 14.1282C61.0256 10.372 63.4986 7.47541 65.2241 5.52277C66.0868 4.54645 66.7626 3.80774 67.2182 3.31526C67.4486 3.06686 67.6227 2.88325 67.7379 2.76013L67.9069 2.58299L64.5175 0.243748Z" fill="#148D00"/>
</svg>
