<svg width="68" height="233" viewBox="0 0 68 233" fill="none" xmlns="http://www.w3.org/2000/svg">
<path d="M64.5175 0.243927C64.4407 0.323853 48.3792 16.8953 32.3076 44.7075C16.241 72.5175 0.153927 111.583 0.151367 156.637C0.151367 180.492 4.66977 206.023 16.0925 232.405L20.2064 231.135C8.97059 205.183 4.53155 180.101 4.53155 156.637C4.52899 112.335 20.3754 73.7897 36.2448 46.3275C44.1782 32.5964 52.1117 21.6409 58.0535 14.1284C61.0256 10.3722 63.4986 7.4756 65.2241 5.52296C66.0868 4.54663 66.7626 3.80792 67.2182 3.31544C67.4486 3.06705 67.6227 2.88342 67.7379 2.76031L67.9069 2.58318L64.5175 0.243927Z" fill="#148D00"/>
</svg>
