<svg width="105" height="168" viewBox="0 0 105 168" fill="none" xmlns="http://www.w3.org/2000/svg">
<path d="M102.973 0.224472C102.875 0.282791 77.2523 14.5064 51.5934 41.4351C25.9397 68.3552 0.229611 108.043 0.227051 158.909C0.227051 161.704 0.306393 164.534 0.465113 167.396L3.95949 167.257C3.80077 164.441 3.72655 161.659 3.72655 158.909C3.72399 108.911 28.9912 69.8737 54.3198 43.2841C66.979 29.9958 79.6459 19.8308 89.1384 12.9987C93.8846 9.58162 97.8372 6.99826 100.594 5.27242C101.974 4.40842 103.057 3.76042 103.789 3.32841C104.155 3.11241 104.437 2.95258 104.621 2.84457L104.895 2.69122L102.973 0.224472Z" fill="#148D00"/>
</svg>
