<svg width="105" height="168" viewBox="0 0 105 168" fill="none" xmlns="http://www.w3.org/2000/svg">
<path d="M102.973 0.224351C102.875 0.282671 77.2523 14.5063 51.5934 41.435C25.9397 68.3551 0.229611 108.043 0.227051 158.909C0.227051 161.704 0.306393 164.533 0.465113 167.395L3.95949 167.257C3.80077 164.441 3.72655 161.658 3.72655 158.909C3.72399 108.911 28.9912 69.8736 54.3198 43.284C66.979 29.9956 79.6459 19.8307 89.1384 12.9986C93.8846 9.5815 97.8372 6.99814 100.594 5.2723C101.974 4.4083 103.057 3.7603 103.789 3.3283C104.155 3.1123 104.437 2.95246 104.621 2.84446L104.895 2.69111L102.973 0.224351Z" fill="#148D00"/>
</svg>
